<svg fill="none" height="25" viewBox="0 0 24 25" width="24" xmlns="http://www.w3.org/2000/svg"><g stroke="#000" stroke-linecap="round" stroke-linejoin="round" stroke-width="2"><path d="m2.97 13.42c-.29524.1774-.53967.428-.70961.7276s-.25964.638-.26039.9824v3.24c.00075.3444.09045.6828.26039.9824s.41437.5502.70961.7276l3 1.8c.31106.1869.66711.2856 1.03.2856s.71894-.0987 1.03-.2856l3.97-2.38v-5.5l-5-3z"/><path d="m6.99977 17.0004-4.74-2.85"/><path d="m7 17 5-3"/><path d="m7 17v5.17"/><path d="m12 14v5.5l3.97 2.38c.3111.1869.6671.2856 1.03.2856s.7189-.0987 1.03-.2856l3-1.8c.2952-.1774.5397-.428.7096-.7276.17-.2996.2596-.638.2604-.9824v-3.24c-.0008-.3444-.0904-.6828-.2604-.9824-.1699-.2996-.4144-.5502-.7096-.7276l-4.03-2.42z"/><path d="m17 17-5-3"/><path d="m17 17.0004 4.74-2.85"/><path d="m17 17v5.17"/><path d="m7.97 4.9196c-.29524.17738-.53967.42801-.70961.72759-.16994.29959-.25964.63799-.26039.98241v4.37l5 3 5-3v-4.37c-.0008-.34442-.0904-.68282-.2604-.98241-.1699-.29958-.4144-.55021-.7096-.72759l-3-1.8c-.3111-.18688-.6671-.28562-1.03-.28562s-.7189.09874-1.03.28562z"/><path d="m11.9998 8.50039-4.74003-2.85"/><path d="m12 8.50039 4.74-2.85"/><path d="m12 14v-5.5"/></g></svg>