<svg fill="none" height="299" viewBox="0 0 192 299" width="192" xmlns="http://www.w3.org/2000/svg" xmlns:xlink="http://www.w3.org/1999/xlink"><filter id="a" color-interpolation-filters="sRGB" filterUnits="userSpaceOnUse" height="300.526" width="190.983" x=".339456" y=".132424"><feFlood flood-opacity="0" result="BackgroundImageFix"/><feColorMatrix in="SourceAlpha" result="hardAlpha" type="matrix" values="0 0 0 0 0 0 0 0 0 0 0 0 0 0 0 0 0 0 127 0"/><feOffset dx="12.4146" dy="12.4146"/><feGaussianBlur stdDeviation="18.622"/><feComposite in2="hardAlpha" operator="out"/><feColorMatrix type="matrix" values="0 0 0 0 0.823529 0 0 0 0 0.823529 0 0 0 0 0.823529 0 0 0 1 0"/><feBlend in2="BackgroundImageFix" mode="normal" result="effect1_dropShadow_527_6755"/><feColorMatrix in="SourceAlpha" result="hardAlpha" type="matrix" values="0 0 0 0 0 0 0 0 0 0 0 0 0 0 0 0 0 0 127 0"/><feOffset dx="-12.4146" dy="-12.4146"/><feGaussianBlur stdDeviation="18.622"/><feComposite in2="hardAlpha" operator="out"/><feColorMatrix type="matrix" values="0 0 0 0 1 0 0 0 0 1 0 0 0 0 1 0 0 0 0.5 0"/><feBlend in2="effect1_dropShadow_527_6755" mode="normal" result="effect2_dropShadow_527_6755"/><feColorMatrix in="SourceAlpha" result="hardAlpha" type="matrix" values="0 0 0 0 0 0 0 0 0 0 0 0 0 0 0 0 0 0 127 0"/><feOffset dx="4.96586" dy="4.96586"/><feGaussianBlur stdDeviation="4.96586"/><feComposite in2="hardAlpha" operator="out"/><feColorMatrix type="matrix" values="0 0 0 0 0.5 0 0 0 0 0.5 0 0 0 0 0.5 0 0 0 0.2 0"/><feBlend in2="effect2_dropShadow_527_6755" mode="normal" result="effect3_dropShadow_527_6755"/><feBlend in="SourceGraphic" in2="effect3_dropShadow_527_6755" mode="normal" result="shape"/><feColorMatrix in="SourceAlpha" result="hardAlpha" type="matrix" values="0 0 0 0 0 0 0 0 0 0 0 0 0 0 0 0 0 0 127 0"/><feOffset dx="4.44444"/><feGaussianBlur stdDeviation="11.1111"/><feComposite in2="hardAlpha" k2="-1" k3="1" operator="arithmetic"/><feColorMatrix type="matrix" values="0 0 0 0 0 0 0 0 0 0 0 0 0 0 0 0 0 0 0.15 0"/><feBlend in2="shape" mode="normal" result="effect4_innerShadow_527_6755"/><feColorMatrix in="SourceAlpha" result="hardAlpha" type="matrix" values="0 0 0 0 0 0 0 0 0 0 0 0 0 0 0 0 0 0 127 0"/><feOffset dx="-4.44444"/><feGaussianBlur stdDeviation="11.1111"/><feComposite in2="hardAlpha" k2="-1" k3="1" operator="arithmetic"/><feColorMatrix type="matrix" values="0 0 0 0 0 0 0 0 0 0 0 0 0 0 0 0 0 0 0.15 0"/><feBlend in2="effect4_innerShadow_527_6755" mode="normal" result="effect5_innerShadow_527_6755"/></filter><filter id="b" color-interpolation-filters="sRGB" filterUnits="userSpaceOnUse" height="5.55469" width="29.5441" x="79.2157" y="49.791"><feFlood flood-opacity="0" result="BackgroundImageFix"/><feBlend in="SourceGraphic" in2="BackgroundImageFix" mode="normal" result="shape"/><feColorMatrix in="SourceAlpha" result="hardAlpha" type="matrix" values="0 0 0 0 0 0 0 0 0 0 0 0 0 0 0 0 0 0 127 0"/><feOffset dx="-26.6667"/><feGaussianBlur stdDeviation="2.22222"/><feComposite in2="hardAlpha" k2="-1" k3="1" operator="arithmetic"/><feColorMatrix type="matrix" values="0 0 0 0 0 0 0 0 0 0 0 0 0 0 0 0 0 0 0.25 0"/><feBlend in2="shape" mode="normal" result="effect1_innerShadow_527_6755"/></filter><filter id="c" color-interpolation-filters="sRGB" filterUnits="userSpaceOnUse" height="2.22266" width="79.9991" x="54.1669" y="246.555"><feFlood flood-opacity="0" result="BackgroundImageFix"/><feBlend in="SourceGraphic" in2="BackgroundImageFix" mode="normal" result="shape"/><feColorMatrix in="SourceAlpha" result="hardAlpha" type="matrix" values="0 0 0 0 0 0 0 0 0 0 0 0 0 0 0 0 0 0 127 0"/><feOffset dx="-26.6667"/><feGaussianBlur stdDeviation="2.22222"/><feComposite in2="hardAlpha" k2="-1" k3="1" operator="arithmetic"/><feColorMatrix type="matrix" values="0 0 0 0 0 0 0 0 0 0 0 0 0 0 0 0 0 0 0.25 0"/><feBlend in2="shape" mode="normal" result="effect1_innerShadow_527_6755"/></filter><linearGradient id="d" gradientUnits="userSpaceOnUse" x1="49.7203" x2="141.942" y1="55.4451" y2="246.556"><stop offset="0" stop-color="#758363"/><stop offset=".307692" stop-color="#424a38"/><stop offset="1" stop-color="#1a1d16"/></linearGradient><radialGradient id="e" cx="0" cy="0" gradientTransform="matrix(0 29.1694 -27.1225 0 96.5732 189.038)" gradientUnits="userSpaceOnUse" r="1"><stop offset="0" stop-color="#91fe03"/><stop offset=".9375" stop-color="#80e61a"/></radialGradient><linearGradient id="f"><stop offset="0" stop-color="#acaca0"/><stop offset=".5" stop-color="#e7e7e4"/><stop offset="1" stop-color="#acaca0"/></linearGradient><linearGradient id="g" gradientUnits="userSpaceOnUse" x1="83.6602" x2="108.759" xlink:href="#f" y1="52.5688" y2="52.5688"/><linearGradient id="h" gradientUnits="userSpaceOnUse" x1="134.166" x2="58.6105" xlink:href="#f" y1="247.666" y2="247.666"/><radialGradient id="i" cx="0" cy="0" gradientTransform="matrix(0 62.7778 -123.874 0 96.3869 55.4451)" gradientUnits="userSpaceOnUse" r="1"><stop offset="0" stop-color="#efff9e"/><stop offset=".25" stop-color="#d4fe03"/><stop offset=".5625" stop-color="#b2ed38"/><stop offset="1" stop-color="#99e052"/></radialGradient><linearGradient id="j" gradientUnits="userSpaceOnUse" x1="141.665" x2="49.998" y1="151.002" y2="151.002"><stop offset="0" stop-color="#32382b" stop-opacity="0"/><stop offset=".25" stop-color="#c2c3c0" stop-opacity=".15"/><stop offset=".5" stop-color="#fff" stop-opacity=".3"/><stop offset=".7" stop-color="#c2c3c0" stop-opacity=".15"/><stop offset="1" stop-color="#32382b" stop-opacity="0"/></linearGradient><g filter="url(#a)"><rect fill="url(#d)" height="191.304" rx="11.1111" width="91.6667" x="49.998" y="55.3496"/><path d="m113.103 196.85c-.019-.504-.475-.827-1.003-.827l-4.059.026c-3.087-.104-6.481.355-8.0837-.834-.0195-.026-.0391-.052-.0651-.071-1.2573-1.564.7228-8.323 1.2828-9.913.339-1.118.463-2.604-1.029-2.578-6.8853.969-12.468 12.582-17.0345 17.551-1.0944 1.247-2.4884 2.83-2.8206 3.186-.1694.174-.2541.394-.2476.62.0196.504.4756.827 1.0032.827l4.0584-.026c3.0877.104 6.4816-.355 8.0841.834.0196.026.0391.052.0652.071 1.2572 1.564-.7231 8.323-1.2833 9.913-.3388 1.118-.4625 2.604 1.0292 2.579 6.8856-.97 12.4679-12.582 17.0349-17.552 1.094-1.247 2.488-2.83 2.821-3.186.169-.174.254-.394.247-.62z" fill="url(#e)"/><path d="m113.103 196.85c-.019-.504-.475-.827-1.003-.827l-4.059.026c-3.087-.104-6.481.355-8.0837-.834-.0195-.026-.0391-.052-.0651-.071-1.2573-1.564.7228-8.323 1.2828-9.913.339-1.118.463-2.604-1.029-2.578-6.8853.969-12.468 12.582-17.0345 17.551-1.0944 1.247-2.4884 2.83-2.8206 3.186-.1694.174-.2541.394-.2476.62.0196.504.4756.827 1.0032.827l4.0584-.026c3.0877.104 6.4816-.355 8.0841.834.0196.026.0391.052.0652.071 1.2572 1.564-.7231 8.323-1.2833 9.913-.3388 1.118-.4625 2.604 1.0292 2.579 6.8856-.97 12.4679-12.582 17.0349-17.552 1.094-1.247 2.488-2.83 2.821-3.186.169-.174.254-.394.247-.62z" fill="#fff" fill-opacity=".2"/><path d="m83.6602 52.5568c0-1.5275 1.2382-2.7658 2.7657-2.7658h19.5681c1.527 0 2.765 1.2383 2.765 2.7658v2.7898h-25.0988z" fill="#1a1a1a"/><g filter="url(#b)"><path d="m83.6602 52.5568c0-1.5275 1.2382-2.7658 2.7657-2.7658h19.5681c1.527 0 2.765 1.2383 2.765 2.7658v2.7898h-25.0988z" fill="url(#g)"/></g><g filter="url(#c)"><path d="m134.166 246.555c0 1.227-.995 2.222-2.222 2.222h-71.1113c-1.2273 0-2.2222-.995-2.2222-2.222z" fill="url(#h)"/></g><path d="m49.998 119.842h91.667v-53.3819c0-6.1364-4.975-11.1111-11.111-11.1111h-69.4449c-6.1365 0-11.1111 4.9747-11.1111 11.1112z" fill="url(#i)"/><path d="m49.998 66.4607c0-6.1365 4.9747-11.1111 11.1112-11.1111h69.4448c6.136 0 11.111 4.9746 11.111 11.1111v169.0823c0 6.136-4.975 11.111-11.111 11.111h-69.4449c-6.1365 0-11.1111-4.975-11.1111-11.111z" fill="url(#j)" fill-opacity=".7"/></g></svg>