<svg width="173" height="269" viewBox="0 0 173 269" fill="none" xmlns="http://www.w3.org/2000/svg">
<path d="M15.5154 27L45.4843 68.1832M45.4843 68.1832L31.2885 94.1602M45.4843 68.1832L10.5 84M45.4843 68.1832L59.6802 37.771M45.4843 68.1832L17.0927 52.3435M45.4843 68.1832L85.4429 141.046" stroke="url(#paint0_radial_467_7022)"/>
<path d="M155.953 203.59L140.487 205.586M140.487 205.586L142.848 237.52M140.487 205.586L118.601 217.531M140.487 205.586L111.661 162.658M111.661 162.658L128.209 125.568M111.661 162.658L66.0207 138.27M60.9496 247L55.6115 215.067M55.6115 215.067L27.5 230M55.6115 215.067L39.5 204M55.6115 215.067L72.0762 234.028M55.6115 215.067L79.4155 170.658M55.6115 215.067V154.021M79.4155 170.658L12.373 188.57M79.4155 170.658L33.7254 158.085M151.697 100.672L128.209 125.568M128.209 125.568L162.373 118.963M128.209 125.568L147.041 148.205M128.209 125.568L130.345 107.277M20.3802 113.882L66.0207 138.27M27.8535 144.367L66.0207 138.27M140.487 27L134.615 59.5173M134.615 59.5173L100.451 90.0023M134.615 59.5173L100.451 34.1132M134.615 59.5173L128.209 40.7182M134.615 59.5173L151.697 70.6952M134.615 59.5173L130.345 73.7436" stroke="url(#paint1_linear_467_7022)"/>
<circle cx="140" cy="206" r="6" fill="url(#paint2_radial_467_7022)"/>
<circle cx="129" cy="125" r="6" fill="url(#paint3_radial_467_7022)"/>
<circle cx="27" cy="230" r="4" fill="url(#paint4_radial_467_7022)"/>
<circle cx="13.5" cy="188.5" r="3.5" fill="url(#paint5_radial_467_7022)"/>
<circle cx="34.5" cy="157.5" r="3.5" fill="url(#paint6_radial_467_7022)"/>
<circle cx="38.5" cy="203.5" r="3.5" fill="url(#paint7_radial_467_7022)"/>
<circle cx="70.5" cy="232.5" r="3.5" fill="url(#paint8_radial_467_7022)"/>
<circle cx="55.5" cy="215.5" r="6.5" fill="url(#paint9_radial_467_7022)"/>
<circle cx="55.5" cy="154.5" r="3.5" fill="url(#paint10_radial_467_7022)"/>
<circle cx="27.5" cy="144.5" r="3.5" fill="url(#paint11_radial_467_7022)"/>
<circle cx="22.5" cy="114.5" r="3.5" fill="url(#paint12_radial_467_7022)"/>
<circle cx="31.5" cy="93.5" r="3.5" fill="url(#paint13_radial_467_7022)"/>
<circle cx="45.5" cy="68.5" r="8.5" fill="url(#paint14_radial_467_7022)"/>
<circle cx="15.5" cy="27.5" r="3.5" fill="url(#paint15_radial_467_7022)"/>
<circle cx="16.5" cy="51.5" r="3.5" fill="url(#paint16_radial_467_7022)"/>
<circle cx="59.5" cy="37.5" r="3.5" fill="url(#paint17_radial_467_7022)"/>
<circle cx="100.5" cy="33.5" r="3.5" fill="url(#paint18_radial_467_7022)"/>
<circle cx="128.5" cy="41.5" r="3.5" fill="url(#paint19_radial_467_7022)"/>
<circle cx="140.5" cy="27.5" r="3.5" fill="url(#paint20_radial_467_7022)"/>
<circle cx="150.5" cy="69.5" r="3.5" fill="url(#paint21_radial_467_7022)"/>
<circle cx="134.5" cy="59.5" r="3.5" fill="url(#paint22_radial_467_7022)"/>
<circle cx="130.5" cy="73.5" r="3.5" fill="url(#paint23_radial_467_7022)"/>
<circle cx="151.5" cy="100.5" r="3.5" fill="url(#paint24_radial_467_7022)"/>
<circle cx="130.5" cy="106.5" r="3.5" fill="url(#paint25_radial_467_7022)"/>
<circle cx="161.5" cy="118.5" r="3.5" fill="url(#paint26_radial_467_7022)"/>
<circle cx="147.5" cy="147.5" r="3.5" fill="url(#paint27_radial_467_7022)"/>
<circle cx="119.5" cy="217.5" r="3.5" fill="url(#paint28_radial_467_7022)"/>
<circle cx="142.5" cy="236.5" r="3.5" fill="url(#paint29_radial_467_7022)"/>
<circle cx="155.5" cy="203.5" r="3.5" fill="url(#paint30_radial_467_7022)"/>
<circle cx="10.5" cy="84.5" r="3.5" fill="url(#paint31_radial_467_7022)"/>
<circle cx="60.5" cy="245.5" r="3.5" fill="url(#paint32_radial_467_7022)"/>
<g filter="url(#filter0_dddii_467_7022)">
<rect x="45.25" y="49.9141" width="82.5" height="172.174" rx="10" fill="url(#paint33_linear_467_7022)"/>
<path d="M102.043 177.264C102.026 176.811 101.615 176.52 101.14 176.52L97.4877 176.543C94.7088 176.45 91.6542 176.863 90.212 175.793C90.1944 175.77 90.1768 175.746 90.1534 175.729C89.0218 174.321 90.8041 168.238 91.3083 166.807C91.6132 165.801 91.7246 164.463 90.382 164.487C84.185 165.359 79.1606 175.81 75.0508 180.283C74.0658 181.405 72.8112 182.83 72.5122 183.15C72.3597 183.307 72.2835 183.505 72.2894 183.708C72.307 184.162 72.7174 184.453 73.1923 184.453L76.8448 184.43C79.6238 184.523 82.6783 184.11 84.1205 185.18C84.1381 185.203 84.1557 185.226 84.1792 185.244C85.3107 186.651 83.5284 192.735 83.0242 194.165C82.7193 195.172 82.6079 196.509 83.9505 196.486C90.1475 195.614 95.1719 185.162 99.2818 180.69C100.267 179.567 101.521 178.142 101.82 177.823C101.973 177.666 102.049 177.468 102.043 177.264Z" fill="url(#paint34_radial_467_7022)"/>
<path d="M102.043 177.264C102.026 176.811 101.615 176.52 101.14 176.52L97.4877 176.543C94.7088 176.45 91.6542 176.863 90.212 175.793C90.1944 175.77 90.1768 175.746 90.1534 175.729C89.0218 174.321 90.8041 168.238 91.3083 166.807C91.6132 165.801 91.7246 164.463 90.382 164.487C84.185 165.359 79.1606 175.81 75.0508 180.283C74.0658 181.405 72.8112 182.83 72.5122 183.15C72.3597 183.307 72.2835 183.505 72.2894 183.708C72.307 184.162 72.7174 184.453 73.1923 184.453L76.8448 184.43C79.6238 184.523 82.6783 184.11 84.1205 185.18C84.1381 185.203 84.1557 185.226 84.1792 185.244C85.3107 186.651 83.5284 192.735 83.0242 194.165C82.7193 195.172 82.6079 196.509 83.9505 196.486C90.1475 195.614 95.1719 185.162 99.2818 180.69C100.267 179.567 101.521 178.142 101.82 177.823C101.973 177.666 102.049 177.468 102.043 177.264Z" fill="white" fill-opacity="0.2"/>
<path d="M75.5449 47.4013C75.5449 46.0266 76.6594 44.9121 78.0341 44.9121H95.645C97.0198 44.9121 98.1342 46.0266 98.1342 47.4013V49.9121H75.5449V47.4013Z" fill="#1A1A1A"/>
<g filter="url(#filter1_i_467_7022)">
<path d="M75.5449 47.4013C75.5449 46.0266 76.6594 44.9121 78.0341 44.9121H95.645C97.0198 44.9121 98.1342 46.0266 98.1342 47.4013V49.9121H75.5449V47.4013Z" fill="url(#paint35_linear_467_7022)"/>
</g>
<g filter="url(#filter2_i_467_7022)">
<path d="M121 222C121 223.105 120.105 224 119 224H55C53.8954 224 53 223.105 53 222V222H121V222Z" fill="url(#paint36_linear_467_7022)"/>
</g>
<path d="M45.25 107.957H127.75V59.9136C127.75 54.3907 123.273 49.9136 117.75 49.9136H55.25C49.7272 49.9136 45.25 54.3907 45.25 59.9136V107.957Z" fill="url(#paint37_radial_467_7022)"/>
<g style="mix-blend-mode:plus-lighter">
<path d="M45.25 59.9141C45.25 54.3912 49.7272 49.9141 55.25 49.9141H117.75C123.273 49.9141 127.75 54.3912 127.75 59.9141V212.088C127.75 217.611 123.273 222.088 117.75 222.088H55.25C49.7272 222.088 45.25 217.611 45.25 212.088V59.9141Z" fill="url(#paint38_linear_467_7022)" fill-opacity="0.7"/>
</g>
</g>
<defs>
<filter id="filter0_dddii_467_7022" x="0.557265" y="0.219375" width="171.885" height="270.473" filterUnits="userSpaceOnUse" color-interpolation-filters="sRGB">
<feFlood flood-opacity="0" result="BackgroundImageFix"/>
<feColorMatrix in="SourceAlpha" type="matrix" values="0 0 0 0 0 0 0 0 0 0 0 0 0 0 0 0 0 0 127 0" result="hardAlpha"/>
<feOffset dx="11.1732" dy="11.1732"/>
<feGaussianBlur stdDeviation="16.7598"/>
<feComposite in2="hardAlpha" operator="out"/>
<feColorMatrix type="matrix" values="0 0 0 0 0.823529 0 0 0 0 0.823529 0 0 0 0 0.823529 0 0 0 1 0"/>
<feBlend mode="normal" in2="BackgroundImageFix" result="effect1_dropShadow_467_7022"/>
<feColorMatrix in="SourceAlpha" type="matrix" values="0 0 0 0 0 0 0 0 0 0 0 0 0 0 0 0 0 0 127 0" result="hardAlpha"/>
<feOffset dx="-11.1732" dy="-11.1732"/>
<feGaussianBlur stdDeviation="16.7598"/>
<feComposite in2="hardAlpha" operator="out"/>
<feColorMatrix type="matrix" values="0 0 0 0 1 0 0 0 0 1 0 0 0 0 1 0 0 0 0.5 0"/>
<feBlend mode="normal" in2="effect1_dropShadow_467_7022" result="effect2_dropShadow_467_7022"/>
<feColorMatrix in="SourceAlpha" type="matrix" values="0 0 0 0 0 0 0 0 0 0 0 0 0 0 0 0 0 0 127 0" result="hardAlpha"/>
<feOffset dx="4.46927" dy="4.46927"/>
<feGaussianBlur stdDeviation="4.46927"/>
<feComposite in2="hardAlpha" operator="out"/>
<feColorMatrix type="matrix" values="0 0 0 0 0.5 0 0 0 0 0.5 0 0 0 0 0.5 0 0 0 0.2 0"/>
<feBlend mode="normal" in2="effect2_dropShadow_467_7022" result="effect3_dropShadow_467_7022"/>
<feBlend mode="normal" in="SourceGraphic" in2="effect3_dropShadow_467_7022" result="shape"/>
<feColorMatrix in="SourceAlpha" type="matrix" values="0 0 0 0 0 0 0 0 0 0 0 0 0 0 0 0 0 0 127 0" result="hardAlpha"/>
<feOffset dx="4"/>
<feGaussianBlur stdDeviation="10"/>
<feComposite in2="hardAlpha" operator="arithmetic" k2="-1" k3="1"/>
<feColorMatrix type="matrix" values="0 0 0 0 0 0 0 0 0 0 0 0 0 0 0 0 0 0 0.15 0"/>
<feBlend mode="normal" in2="shape" result="effect4_innerShadow_467_7022"/>
<feColorMatrix in="SourceAlpha" type="matrix" values="0 0 0 0 0 0 0 0 0 0 0 0 0 0 0 0 0 0 127 0" result="hardAlpha"/>
<feOffset dx="-4"/>
<feGaussianBlur stdDeviation="10"/>
<feComposite in2="hardAlpha" operator="arithmetic" k2="-1" k3="1"/>
<feColorMatrix type="matrix" values="0 0 0 0 0 0 0 0 0 0 0 0 0 0 0 0 0 0 0.15 0"/>
<feBlend mode="normal" in2="effect4_innerShadow_467_7022" result="effect5_innerShadow_467_7022"/>
</filter>
<filter id="filter1_i_467_7022" x="71.5449" y="44.9121" width="26.5898" height="5" filterUnits="userSpaceOnUse" color-interpolation-filters="sRGB">
<feFlood flood-opacity="0" result="BackgroundImageFix"/>
<feBlend mode="normal" in="SourceGraphic" in2="BackgroundImageFix" result="shape"/>
<feColorMatrix in="SourceAlpha" type="matrix" values="0 0 0 0 0 0 0 0 0 0 0 0 0 0 0 0 0 0 127 0" result="hardAlpha"/>
<feOffset dx="-24"/>
<feGaussianBlur stdDeviation="2"/>
<feComposite in2="hardAlpha" operator="arithmetic" k2="-1" k3="1"/>
<feColorMatrix type="matrix" values="0 0 0 0 0 0 0 0 0 0 0 0 0 0 0 0 0 0 0.25 0"/>
<feBlend mode="normal" in2="shape" result="effect1_innerShadow_467_7022"/>
</filter>
<filter id="filter2_i_467_7022" x="49" y="222" width="72" height="2" filterUnits="userSpaceOnUse" color-interpolation-filters="sRGB">
<feFlood flood-opacity="0" result="BackgroundImageFix"/>
<feBlend mode="normal" in="SourceGraphic" in2="BackgroundImageFix" result="shape"/>
<feColorMatrix in="SourceAlpha" type="matrix" values="0 0 0 0 0 0 0 0 0 0 0 0 0 0 0 0 0 0 127 0" result="hardAlpha"/>
<feOffset dx="-24"/>
<feGaussianBlur stdDeviation="2"/>
<feComposite in2="hardAlpha" operator="arithmetic" k2="-1" k3="1"/>
<feColorMatrix type="matrix" values="0 0 0 0 0 0 0 0 0 0 0 0 0 0 0 0 0 0 0.25 0"/>
<feBlend mode="normal" in2="shape" result="effect1_innerShadow_467_7022"/>
</filter>
<radialGradient id="paint0_radial_467_7022" cx="0" cy="0" r="1" gradientUnits="userSpaceOnUse" gradientTransform="translate(45.2215 84.0228) rotate(90) scale(57.0228 40.2215)">
<stop stop-color="#D4FE03"/>
<stop offset="1" stop-color="#80E61A"/>
</radialGradient>
<linearGradient id="paint1_linear_467_7022" x1="87.373" y1="27" x2="87.373" y2="247" gradientUnits="userSpaceOnUse">
<stop stop-color="#D4FE03"/>
<stop offset="1" stop-color="#80E61A"/>
</linearGradient>
<radialGradient id="paint2_radial_467_7022" cx="0" cy="0" r="1" gradientUnits="userSpaceOnUse" gradientTransform="translate(140 206) rotate(90) scale(6)">
<stop offset="0.394231" stop-color="#80E61A"/>
<stop offset="1" stop-color="#D4FE03" stop-opacity="0"/>
</radialGradient>
<radialGradient id="paint3_radial_467_7022" cx="0" cy="0" r="1" gradientUnits="userSpaceOnUse" gradientTransform="translate(129 125) rotate(90) scale(6)">
<stop offset="0.394231" stop-color="#80E61A"/>
<stop offset="1" stop-color="#D4FE03" stop-opacity="0"/>
</radialGradient>
<radialGradient id="paint4_radial_467_7022" cx="0" cy="0" r="1" gradientUnits="userSpaceOnUse" gradientTransform="translate(27 230) rotate(90) scale(4)">
<stop offset="0.394231" stop-color="#80E61A"/>
<stop offset="1" stop-color="#D4FE03" stop-opacity="0"/>
</radialGradient>
<radialGradient id="paint5_radial_467_7022" cx="0" cy="0" r="1" gradientUnits="userSpaceOnUse" gradientTransform="translate(13.5 188.5) rotate(90) scale(3.5)">
<stop offset="0.394231" stop-color="#80E61A"/>
<stop offset="1" stop-color="#D4FE03" stop-opacity="0"/>
</radialGradient>
<radialGradient id="paint6_radial_467_7022" cx="0" cy="0" r="1" gradientUnits="userSpaceOnUse" gradientTransform="translate(34.5 157.5) rotate(90) scale(3.5)">
<stop offset="0.394231" stop-color="#80E61A"/>
<stop offset="1" stop-color="#D4FE03" stop-opacity="0"/>
</radialGradient>
<radialGradient id="paint7_radial_467_7022" cx="0" cy="0" r="1" gradientUnits="userSpaceOnUse" gradientTransform="translate(38.5 203.5) rotate(90) scale(3.5)">
<stop offset="0.394231" stop-color="#80E61A"/>
<stop offset="1" stop-color="#D4FE03" stop-opacity="0"/>
</radialGradient>
<radialGradient id="paint8_radial_467_7022" cx="0" cy="0" r="1" gradientUnits="userSpaceOnUse" gradientTransform="translate(70.5 232.5) rotate(90) scale(3.5)">
<stop offset="0.394231" stop-color="#80E61A"/>
<stop offset="1" stop-color="#D4FE03" stop-opacity="0"/>
</radialGradient>
<radialGradient id="paint9_radial_467_7022" cx="0" cy="0" r="1" gradientUnits="userSpaceOnUse" gradientTransform="translate(55.5 215.5) rotate(90) scale(6.5)">
<stop offset="0.394231" stop-color="#80E61A"/>
<stop offset="1" stop-color="#D4FE03" stop-opacity="0"/>
</radialGradient>
<radialGradient id="paint10_radial_467_7022" cx="0" cy="0" r="1" gradientUnits="userSpaceOnUse" gradientTransform="translate(55.5 154.5) rotate(90) scale(3.5)">
<stop offset="0.394231" stop-color="#80E61A"/>
<stop offset="1" stop-color="#D4FE03" stop-opacity="0"/>
</radialGradient>
<radialGradient id="paint11_radial_467_7022" cx="0" cy="0" r="1" gradientUnits="userSpaceOnUse" gradientTransform="translate(27.5 144.5) rotate(90) scale(3.5)">
<stop offset="0.394231" stop-color="#80E61A"/>
<stop offset="1" stop-color="#D4FE03" stop-opacity="0"/>
</radialGradient>
<radialGradient id="paint12_radial_467_7022" cx="0" cy="0" r="1" gradientUnits="userSpaceOnUse" gradientTransform="translate(22.5 114.5) rotate(90) scale(3.5)">
<stop offset="0.394231" stop-color="#80E61A"/>
<stop offset="1" stop-color="#D4FE03" stop-opacity="0"/>
</radialGradient>
<radialGradient id="paint13_radial_467_7022" cx="0" cy="0" r="1" gradientUnits="userSpaceOnUse" gradientTransform="translate(31.5 93.5) rotate(90) scale(3.5)">
<stop offset="0.394231" stop-color="#80E61A"/>
<stop offset="1" stop-color="#D4FE03" stop-opacity="0"/>
</radialGradient>
<radialGradient id="paint14_radial_467_7022" cx="0" cy="0" r="1" gradientUnits="userSpaceOnUse" gradientTransform="translate(45.5 68.5) rotate(90) scale(8.5)">
<stop offset="0.394231" stop-color="#80E61A"/>
<stop offset="1" stop-color="#D4FE03" stop-opacity="0"/>
</radialGradient>
<radialGradient id="paint15_radial_467_7022" cx="0" cy="0" r="1" gradientUnits="userSpaceOnUse" gradientTransform="translate(15.5 27.5) rotate(90) scale(3.5)">
<stop offset="0.394231" stop-color="#80E61A"/>
<stop offset="1" stop-color="#D4FE03" stop-opacity="0"/>
</radialGradient>
<radialGradient id="paint16_radial_467_7022" cx="0" cy="0" r="1" gradientUnits="userSpaceOnUse" gradientTransform="translate(16.5 51.5) rotate(90) scale(3.5)">
<stop offset="0.394231" stop-color="#80E61A"/>
<stop offset="1" stop-color="#D4FE03" stop-opacity="0"/>
</radialGradient>
<radialGradient id="paint17_radial_467_7022" cx="0" cy="0" r="1" gradientUnits="userSpaceOnUse" gradientTransform="translate(59.5 37.5) rotate(90) scale(3.5)">
<stop offset="0.394231" stop-color="#80E61A"/>
<stop offset="1" stop-color="#D4FE03" stop-opacity="0"/>
</radialGradient>
<radialGradient id="paint18_radial_467_7022" cx="0" cy="0" r="1" gradientUnits="userSpaceOnUse" gradientTransform="translate(100.5 33.5) rotate(90) scale(3.5)">
<stop offset="0.394231" stop-color="#80E61A"/>
<stop offset="1" stop-color="#D4FE03" stop-opacity="0"/>
</radialGradient>
<radialGradient id="paint19_radial_467_7022" cx="0" cy="0" r="1" gradientUnits="userSpaceOnUse" gradientTransform="translate(128.5 41.5) rotate(90) scale(3.5)">
<stop offset="0.394231" stop-color="#80E61A"/>
<stop offset="1" stop-color="#D4FE03" stop-opacity="0"/>
</radialGradient>
<radialGradient id="paint20_radial_467_7022" cx="0" cy="0" r="1" gradientUnits="userSpaceOnUse" gradientTransform="translate(140.5 27.5) rotate(90) scale(3.5)">
<stop offset="0.394231" stop-color="#80E61A"/>
<stop offset="1" stop-color="#D4FE03" stop-opacity="0"/>
</radialGradient>
<radialGradient id="paint21_radial_467_7022" cx="0" cy="0" r="1" gradientUnits="userSpaceOnUse" gradientTransform="translate(150.5 69.5) rotate(90) scale(3.5)">
<stop offset="0.394231" stop-color="#80E61A"/>
<stop offset="1" stop-color="#D4FE03" stop-opacity="0"/>
</radialGradient>
<radialGradient id="paint22_radial_467_7022" cx="0" cy="0" r="1" gradientUnits="userSpaceOnUse" gradientTransform="translate(134.5 59.5) rotate(90) scale(3.5)">
<stop offset="0.394231" stop-color="#80E61A"/>
<stop offset="1" stop-color="#D4FE03" stop-opacity="0"/>
</radialGradient>
<radialGradient id="paint23_radial_467_7022" cx="0" cy="0" r="1" gradientUnits="userSpaceOnUse" gradientTransform="translate(130.5 73.5) rotate(90) scale(3.5)">
<stop offset="0.394231" stop-color="#80E61A"/>
<stop offset="1" stop-color="#D4FE03" stop-opacity="0"/>
</radialGradient>
<radialGradient id="paint24_radial_467_7022" cx="0" cy="0" r="1" gradientUnits="userSpaceOnUse" gradientTransform="translate(151.5 100.5) rotate(90) scale(3.5)">
<stop offset="0.394231" stop-color="#80E61A"/>
<stop offset="1" stop-color="#D4FE03" stop-opacity="0"/>
</radialGradient>
<radialGradient id="paint25_radial_467_7022" cx="0" cy="0" r="1" gradientUnits="userSpaceOnUse" gradientTransform="translate(130.5 106.5) rotate(90) scale(3.5)">
<stop offset="0.394231" stop-color="#80E61A"/>
<stop offset="1" stop-color="#D4FE03" stop-opacity="0"/>
</radialGradient>
<radialGradient id="paint26_radial_467_7022" cx="0" cy="0" r="1" gradientUnits="userSpaceOnUse" gradientTransform="translate(161.5 118.5) rotate(90) scale(3.5)">
<stop offset="0.394231" stop-color="#80E61A"/>
<stop offset="1" stop-color="#D4FE03" stop-opacity="0"/>
</radialGradient>
<radialGradient id="paint27_radial_467_7022" cx="0" cy="0" r="1" gradientUnits="userSpaceOnUse" gradientTransform="translate(147.5 147.5) rotate(90) scale(3.5)">
<stop offset="0.394231" stop-color="#80E61A"/>
<stop offset="1" stop-color="#D4FE03" stop-opacity="0"/>
</radialGradient>
<radialGradient id="paint28_radial_467_7022" cx="0" cy="0" r="1" gradientUnits="userSpaceOnUse" gradientTransform="translate(119.5 217.5) rotate(90) scale(3.5)">
<stop offset="0.394231" stop-color="#80E61A"/>
<stop offset="1" stop-color="#D4FE03" stop-opacity="0"/>
</radialGradient>
<radialGradient id="paint29_radial_467_7022" cx="0" cy="0" r="1" gradientUnits="userSpaceOnUse" gradientTransform="translate(142.5 236.5) rotate(90) scale(3.5)">
<stop offset="0.394231" stop-color="#80E61A"/>
<stop offset="1" stop-color="#D4FE03" stop-opacity="0"/>
</radialGradient>
<radialGradient id="paint30_radial_467_7022" cx="0" cy="0" r="1" gradientUnits="userSpaceOnUse" gradientTransform="translate(155.5 203.5) rotate(90) scale(3.5)">
<stop offset="0.394231" stop-color="#80E61A"/>
<stop offset="1" stop-color="#D4FE03" stop-opacity="0"/>
</radialGradient>
<radialGradient id="paint31_radial_467_7022" cx="0" cy="0" r="1" gradientUnits="userSpaceOnUse" gradientTransform="translate(10.5 84.5) rotate(90) scale(3.5)">
<stop offset="0.394231" stop-color="#80E61A"/>
<stop offset="1" stop-color="#D4FE03" stop-opacity="0"/>
</radialGradient>
<radialGradient id="paint32_radial_467_7022" cx="0" cy="0" r="1" gradientUnits="userSpaceOnUse" gradientTransform="translate(60.5 245.5) rotate(90) scale(3.5)">
<stop offset="0.394231" stop-color="#80E61A"/>
<stop offset="1" stop-color="#D4FE03" stop-opacity="0"/>
</radialGradient>
<linearGradient id="paint33_linear_467_7022" x1="45" y1="50" x2="128" y2="222" gradientUnits="userSpaceOnUse">
<stop stop-color="#758363"/>
<stop offset="0.307692" stop-color="#424A38"/>
<stop offset="1" stop-color="#1A1D16"/>
</linearGradient>
<radialGradient id="paint34_radial_467_7022" cx="0" cy="0" r="1" gradientUnits="userSpaceOnUse" gradientTransform="translate(87.1663 170.234) rotate(90) scale(26.2525 24.4102)">
<stop stop-color="#91FE03"/>
<stop offset="0.9375" stop-color="#80E61A"/>
</radialGradient>
<linearGradient id="paint35_linear_467_7022" x1="75.5449" y1="47.4121" x2="98.1342" y2="47.4121" gradientUnits="userSpaceOnUse">
<stop stop-color="#ACACA0"/>
<stop offset="0.5" stop-color="#E7E7E4"/>
<stop offset="1" stop-color="#ACACA0"/>
</linearGradient>
<linearGradient id="paint36_linear_467_7022" x1="121" y1="223" x2="53" y2="223" gradientUnits="userSpaceOnUse">
<stop stop-color="#ACACA0"/>
<stop offset="0.5" stop-color="#E7E7E4"/>
<stop offset="1" stop-color="#ACACA0"/>
</linearGradient>
<radialGradient id="paint37_radial_467_7022" cx="0" cy="0" r="1" gradientUnits="userSpaceOnUse" gradientTransform="translate(87 50) rotate(90) scale(56.5 111.486)">
<stop stop-color="#EFFF9E"/>
<stop offset="0.25" stop-color="#D4FE03"/>
<stop offset="0.5625" stop-color="#B2ED38"/>
<stop offset="1" stop-color="#99E052"/>
</radialGradient>
<linearGradient id="paint38_linear_467_7022" x1="127.75" y1="136.001" x2="45.25" y2="136.001" gradientUnits="userSpaceOnUse">
<stop stop-color="#32382B" stop-opacity="0"/>
<stop offset="0.25" stop-color="#C2C3C0" stop-opacity="0.15"/>
<stop offset="0.5" stop-color="white" stop-opacity="0.3"/>
<stop offset="0.7" stop-color="#C2C3C0" stop-opacity="0.15"/>
<stop offset="1" stop-color="#32382B" stop-opacity="0"/>
</linearGradient>
</defs>
</svg>
