<svg width="190" height="290" viewBox="0 0 190 290" fill="none" xmlns="http://www.w3.org/2000/svg">
<g filter="url(#filter0_ddd_467_7079)">
<g filter="url(#filter1_ii_467_7079)">
<path d="M45 53.9386C45 49.0019 49.0019 45 53.9385 45H136.061C140.998 45 145 49.0019 145 53.9385V236.061C145 240.998 140.998 245 136.061 245H53.9385C49.0019 245 45 240.998 45 236.061V53.9386Z" fill="#4B4B4B"/>
<path d="M45 53.9386C45 49.0019 49.0019 45 53.9385 45H136.061C140.998 45 145 49.0019 145 53.9385V236.061C145 240.998 140.998 245 136.061 245H53.9385C49.0019 245 45 240.998 45 236.061V53.9386Z" fill="url(#paint0_linear_467_7079)" fill-opacity="0.5"/>
<path d="M53.9385 45.8379H136.062C140.535 45.8379 144.162 49.4647 144.162 53.9385V236.062C144.162 240.535 140.535 244.162 136.062 244.162H53.9385C49.4647 244.162 45.8379 240.535 45.8379 236.062V53.9385C45.8379 49.4647 49.4647 45.8379 53.9385 45.8379Z" stroke="#5E5E5E" stroke-opacity="0.1" stroke-width="1.67598" style="mix-blend-mode:multiply"/>
<mask id="mask0_467_7079" style="mask-type:alpha" maskUnits="userSpaceOnUse" x="69" y="74" width="54" height="147">
<path d="M69.0293 74.1992H122.029L107.779 220.499H95.5293H83.2793L69.0293 74.1992Z" fill="#3C3C3C"/>
</mask>
<g mask="url(#mask0_467_7079)">
<g filter="url(#filter2_f_467_7079)">
<line x1="68.0293" y1="75.3984" x2="122.029" y2="75.3984" stroke="#2B2B2B" stroke-width="2"/>
</g>
<g filter="url(#filter3_f_467_7079)">
<line x1="68.0293" y1="84.7852" x2="122.029" y2="84.7852" stroke="#2B2B2B" stroke-width="2"/>
</g>
<g filter="url(#filter4_f_467_7079)">
<line x1="68.0293" y1="94.1719" x2="122.029" y2="94.1719" stroke="#2B2B2B" stroke-width="2"/>
</g>
<g filter="url(#filter5_f_467_7079)">
<line x1="68.0293" y1="103.559" x2="122.029" y2="103.559" stroke="#2B2B2B" stroke-width="2"/>
</g>
<g filter="url(#filter6_f_467_7079)">
<line x1="68.0293" y1="112.945" x2="122.029" y2="112.945" stroke="#2B2B2B" stroke-width="2"/>
</g>
<g filter="url(#filter7_f_467_7079)">
<line x1="68.0293" y1="122.332" x2="122.029" y2="122.332" stroke="#2B2B2B" stroke-width="2"/>
</g>
<g filter="url(#filter8_f_467_7079)">
<line x1="68.0293" y1="131.719" x2="122.029" y2="131.719" stroke="#2B2B2B" stroke-width="2"/>
</g>
<g filter="url(#filter9_f_467_7079)">
<line x1="68.0293" y1="141.105" x2="122.029" y2="141.105" stroke="#2B2B2B" stroke-width="2"/>
</g>
<g filter="url(#filter10_f_467_7079)">
<line x1="68.0293" y1="150.492" x2="122.029" y2="150.492" stroke="#2B2B2B" stroke-width="2"/>
</g>
<g filter="url(#filter11_f_467_7079)">
<line x1="68.0293" y1="159.879" x2="122.029" y2="159.879" stroke="#2B2B2B" stroke-width="2"/>
</g>
<g filter="url(#filter12_f_467_7079)">
<line x1="68.0293" y1="169.266" x2="122.029" y2="169.266" stroke="#2B2B2B" stroke-width="2"/>
</g>
<g filter="url(#filter13_f_467_7079)">
<line x1="68.0293" y1="178.652" x2="122.029" y2="178.652" stroke="#2B2B2B" stroke-width="2"/>
</g>
<g filter="url(#filter14_f_467_7079)">
<line x1="68.0293" y1="188.039" x2="122.029" y2="188.039" stroke="#2B2B2B" stroke-width="2"/>
</g>
<g filter="url(#filter15_f_467_7079)">
<line x1="68.0293" y1="197.426" x2="122.029" y2="197.426" stroke="#2B2B2B" stroke-width="2"/>
</g>
<g filter="url(#filter16_f_467_7079)">
<line x1="68.0293" y1="206.812" x2="122.029" y2="206.812" stroke="#2B2B2B" stroke-width="2"/>
</g>
<g filter="url(#filter17_f_467_7079)">
<line x1="68.0293" y1="216.199" x2="122.029" y2="216.199" stroke="#2B2B2B" stroke-width="2"/>
</g>
</g>
<g filter="url(#filter18_i_467_7079)">
<rect x="91.6035" y="72.0508" width="7.23168" height="148.491" rx="3.61584" stroke="#4D4D4D" stroke-width="5.45455"/>
</g>
<g filter="url(#filter19_dii_467_7079)">
<rect x="91.502" y="72" width="7.27273" height="149" rx="3.63636" fill="#262626"/>
</g>
<g filter="url(#filter20_ddf_467_7079)">
<path d="M57.5691 60.6091C57.2291 60.6091 56.9391 60.5211 56.6991 60.3451C56.4591 60.1651 56.2751 59.9131 56.1471 59.5891C56.0191 59.2611 55.9551 58.8791 55.9551 58.4431C55.9551 57.9991 56.0191 57.6151 56.1471 57.2911C56.2751 56.9671 56.4591 56.7171 56.6991 56.5411C56.9391 56.3651 57.2291 56.2771 57.5691 56.2771C57.9131 56.2771 58.2031 56.3651 58.4391 56.5411C58.6791 56.7171 58.8631 56.9671 58.9911 57.2911C59.1191 57.6111 59.1831 57.9951 59.1831 58.4431C59.1831 58.8831 59.1191 59.2651 58.9911 59.5891C58.8631 59.9131 58.6791 60.1651 58.4391 60.3451C58.2031 60.5211 57.9131 60.6091 57.5691 60.6091ZM57.5691 60.0691C57.8851 60.0691 58.1231 59.9271 58.2831 59.6431C58.4431 59.3551 58.5231 58.9551 58.5231 58.4431C58.5231 57.9231 58.4431 57.5231 58.2831 57.2431C58.1231 56.9591 57.8851 56.8171 57.5691 56.8171C57.2571 56.8171 57.0211 56.9591 56.8611 57.2431C56.7011 57.5231 56.6211 57.9231 56.6211 58.4431C56.6211 58.9551 56.7011 59.3551 56.8611 59.6431C57.0211 59.9271 57.2571 60.0691 57.5691 60.0691ZM60.5835 60.5371V60.0811C61.1355 59.6691 61.5795 59.3111 61.9155 59.0071C62.2515 58.6991 62.4955 58.4271 62.6475 58.1911C62.7995 57.9511 62.8755 57.7331 62.8755 57.5371C62.8755 57.3211 62.8075 57.1471 62.6715 57.0151C62.5395 56.8831 62.3535 56.8171 62.1135 56.8171C61.8615 56.8171 61.6535 56.8951 61.4895 57.0511C61.3255 57.2031 61.2375 57.4191 61.2255 57.6991H60.5835C60.6035 57.3991 60.6795 57.1431 60.8115 56.9311C60.9475 56.7151 61.1275 56.5531 61.3515 56.4451C61.5795 56.3331 61.8375 56.2771 62.1255 56.2771C62.4135 56.2771 62.6635 56.3291 62.8755 56.4331C63.0875 56.5331 63.2495 56.6771 63.3615 56.8651C63.4775 57.0491 63.5355 57.2631 63.5355 57.5071C63.5355 57.7711 63.4675 58.0311 63.3315 58.2871C63.1995 58.5391 62.9855 58.8051 62.6895 59.0851C62.3975 59.3611 62.0095 59.6651 61.5255 59.9971H63.5475V60.5371H60.5835Z" fill="#B2B6AF"/>
</g>
<g filter="url(#filter21_di_467_7079)">
<circle cx="131.458" cy="59.0383" r="3.2" transform="rotate(-180 131.458 59.0383)" fill="#A3F552"/>
</g>
<g filter="url(#filter22_di_467_7079)">
<path d="M74.0293 84.5C74.0293 80.9101 76.9394 78 80.5293 78H110.529C114.119 78 117.029 80.9101 117.029 84.5C117.029 88.0899 114.119 91 110.529 91H80.5293C76.9394 91 74.0293 88.0899 74.0293 84.5Z" fill="#090909"/>
<path d="M80.5293 78.834H110.529C113.658 78.834 116.195 81.3709 116.195 84.5C116.195 87.6291 113.658 90.166 110.529 90.166H80.5293C77.4002 90.166 74.8633 87.6291 74.8633 84.5C74.8633 81.3709 77.4002 78.834 80.5293 78.834Z" stroke="#B3B3B3" stroke-opacity="0.1" stroke-width="1.66864" style="mix-blend-mode:multiply"/>
</g>
</g>
</g>
<defs>
<filter id="filter0_ddd_467_7079" x="0.503063" y="0.503063" width="189.052" height="288.994" filterUnits="userSpaceOnUse" color-interpolation-filters="sRGB">
<feFlood flood-opacity="0" result="BackgroundImageFix"/>
<feColorMatrix in="SourceAlpha" type="matrix" values="0 0 0 0 0 0 0 0 0 0 0 0 0 0 0 0 0 0 127 0" result="hardAlpha"/>
<feOffset dx="11.1242" dy="11.1242"/>
<feGaussianBlur stdDeviation="16.6864"/>
<feComposite in2="hardAlpha" operator="out"/>
<feColorMatrix type="matrix" values="0 0 0 0 0.823529 0 0 0 0 0.823529 0 0 0 0 0.823529 0 0 0 1 0"/>
<feBlend mode="normal" in2="BackgroundImageFix" result="effect1_dropShadow_467_7079"/>
<feColorMatrix in="SourceAlpha" type="matrix" values="0 0 0 0 0 0 0 0 0 0 0 0 0 0 0 0 0 0 127 0" result="hardAlpha"/>
<feOffset dx="-11.1242" dy="-11.1242"/>
<feGaussianBlur stdDeviation="16.6864"/>
<feComposite in2="hardAlpha" operator="out"/>
<feColorMatrix type="matrix" values="0 0 0 0 1 0 0 0 0 1 0 0 0 0 1 0 0 0 1 0"/>
<feBlend mode="normal" in2="effect1_dropShadow_467_7079" result="effect2_dropShadow_467_7079"/>
<feColorMatrix in="SourceAlpha" type="matrix" values="0 0 0 0 0 0 0 0 0 0 0 0 0 0 0 0 0 0 127 0" result="hardAlpha"/>
<feOffset dx="4.44969" dy="4.44969"/>
<feGaussianBlur stdDeviation="4.44969"/>
<feComposite in2="hardAlpha" operator="out"/>
<feColorMatrix type="matrix" values="0 0 0 0 0.5 0 0 0 0 0.5 0 0 0 0 0.5 0 0 0 0.2 0"/>
<feBlend mode="normal" in2="effect2_dropShadow_467_7079" result="effect3_dropShadow_467_7079"/>
<feBlend mode="normal" in="SourceGraphic" in2="effect3_dropShadow_467_7079" result="shape"/>
</filter>
<filter id="filter1_ii_467_7079" x="41.7859" y="41.7859" width="104.88" height="204.821" filterUnits="userSpaceOnUse" color-interpolation-filters="sRGB">
<feFlood flood-opacity="0" result="BackgroundImageFix"/>
<feBlend mode="normal" in="SourceGraphic" in2="BackgroundImageFix" result="shape"/>
<feColorMatrix in="SourceAlpha" type="matrix" values="0 0 0 0 0 0 0 0 0 0 0 0 0 0 0 0 0 0 127 0" result="hardAlpha"/>
<feOffset dx="-3.21408" dy="-3.21408"/>
<feGaussianBlur stdDeviation="1.60704"/>
<feComposite in2="hardAlpha" operator="arithmetic" k2="-1" k3="1"/>
<feColorMatrix type="matrix" values="0 0 0 0 0 0 0 0 0 0 0 0 0 0 0 0 0 0 0.25 0"/>
<feBlend mode="normal" in2="shape" result="effect1_innerShadow_467_7079"/>
<feColorMatrix in="SourceAlpha" type="matrix" values="0 0 0 0 0 0 0 0 0 0 0 0 0 0 0 0 0 0 127 0" result="hardAlpha"/>
<feOffset dx="1.60704" dy="1.60704"/>
<feGaussianBlur stdDeviation="1.20528"/>
<feComposite in2="hardAlpha" operator="arithmetic" k2="-1" k3="1"/>
<feColorMatrix type="matrix" values="0 0 0 0 1 0 0 0 0 1 0 0 0 0 1 0 0 0 0.4 0"/>
<feBlend mode="normal" in2="effect1_innerShadow_467_7079" result="effect2_innerShadow_467_7079"/>
</filter>
<filter id="filter2_f_467_7079" x="67.2258" y="73.5949" width="55.607" height="3.60704" filterUnits="userSpaceOnUse" color-interpolation-filters="sRGB">
<feFlood flood-opacity="0" result="BackgroundImageFix"/>
<feBlend mode="normal" in="SourceGraphic" in2="BackgroundImageFix" result="shape"/>
<feGaussianBlur stdDeviation="0.40176" result="effect1_foregroundBlur_467_7079"/>
</filter>
<filter id="filter3_f_467_7079" x="67.2258" y="82.9816" width="55.607" height="3.60704" filterUnits="userSpaceOnUse" color-interpolation-filters="sRGB">
<feFlood flood-opacity="0" result="BackgroundImageFix"/>
<feBlend mode="normal" in="SourceGraphic" in2="BackgroundImageFix" result="shape"/>
<feGaussianBlur stdDeviation="0.40176" result="effect1_foregroundBlur_467_7079"/>
</filter>
<filter id="filter4_f_467_7079" x="67.2258" y="92.3684" width="55.607" height="3.60704" filterUnits="userSpaceOnUse" color-interpolation-filters="sRGB">
<feFlood flood-opacity="0" result="BackgroundImageFix"/>
<feBlend mode="normal" in="SourceGraphic" in2="BackgroundImageFix" result="shape"/>
<feGaussianBlur stdDeviation="0.40176" result="effect1_foregroundBlur_467_7079"/>
</filter>
<filter id="filter5_f_467_7079" x="67.2258" y="101.755" width="55.607" height="3.60704" filterUnits="userSpaceOnUse" color-interpolation-filters="sRGB">
<feFlood flood-opacity="0" result="BackgroundImageFix"/>
<feBlend mode="normal" in="SourceGraphic" in2="BackgroundImageFix" result="shape"/>
<feGaussianBlur stdDeviation="0.40176" result="effect1_foregroundBlur_467_7079"/>
</filter>
<filter id="filter6_f_467_7079" x="67.2258" y="111.142" width="55.607" height="3.60704" filterUnits="userSpaceOnUse" color-interpolation-filters="sRGB">
<feFlood flood-opacity="0" result="BackgroundImageFix"/>
<feBlend mode="normal" in="SourceGraphic" in2="BackgroundImageFix" result="shape"/>
<feGaussianBlur stdDeviation="0.40176" result="effect1_foregroundBlur_467_7079"/>
</filter>
<filter id="filter7_f_467_7079" x="67.2258" y="120.529" width="55.607" height="3.60704" filterUnits="userSpaceOnUse" color-interpolation-filters="sRGB">
<feFlood flood-opacity="0" result="BackgroundImageFix"/>
<feBlend mode="normal" in="SourceGraphic" in2="BackgroundImageFix" result="shape"/>
<feGaussianBlur stdDeviation="0.40176" result="effect1_foregroundBlur_467_7079"/>
</filter>
<filter id="filter8_f_467_7079" x="67.2258" y="129.915" width="55.607" height="3.60704" filterUnits="userSpaceOnUse" color-interpolation-filters="sRGB">
<feFlood flood-opacity="0" result="BackgroundImageFix"/>
<feBlend mode="normal" in="SourceGraphic" in2="BackgroundImageFix" result="shape"/>
<feGaussianBlur stdDeviation="0.40176" result="effect1_foregroundBlur_467_7079"/>
</filter>
<filter id="filter9_f_467_7079" x="67.2258" y="139.302" width="55.607" height="3.60704" filterUnits="userSpaceOnUse" color-interpolation-filters="sRGB">
<feFlood flood-opacity="0" result="BackgroundImageFix"/>
<feBlend mode="normal" in="SourceGraphic" in2="BackgroundImageFix" result="shape"/>
<feGaussianBlur stdDeviation="0.40176" result="effect1_foregroundBlur_467_7079"/>
</filter>
<filter id="filter10_f_467_7079" x="67.2258" y="148.689" width="55.607" height="3.60704" filterUnits="userSpaceOnUse" color-interpolation-filters="sRGB">
<feFlood flood-opacity="0" result="BackgroundImageFix"/>
<feBlend mode="normal" in="SourceGraphic" in2="BackgroundImageFix" result="shape"/>
<feGaussianBlur stdDeviation="0.40176" result="effect1_foregroundBlur_467_7079"/>
</filter>
<filter id="filter11_f_467_7079" x="67.2258" y="158.075" width="55.607" height="3.60704" filterUnits="userSpaceOnUse" color-interpolation-filters="sRGB">
<feFlood flood-opacity="0" result="BackgroundImageFix"/>
<feBlend mode="normal" in="SourceGraphic" in2="BackgroundImageFix" result="shape"/>
<feGaussianBlur stdDeviation="0.40176" result="effect1_foregroundBlur_467_7079"/>
</filter>
<filter id="filter12_f_467_7079" x="67.2258" y="167.462" width="55.607" height="3.60704" filterUnits="userSpaceOnUse" color-interpolation-filters="sRGB">
<feFlood flood-opacity="0" result="BackgroundImageFix"/>
<feBlend mode="normal" in="SourceGraphic" in2="BackgroundImageFix" result="shape"/>
<feGaussianBlur stdDeviation="0.40176" result="effect1_foregroundBlur_467_7079"/>
</filter>
<filter id="filter13_f_467_7079" x="67.2258" y="176.849" width="55.607" height="3.60704" filterUnits="userSpaceOnUse" color-interpolation-filters="sRGB">
<feFlood flood-opacity="0" result="BackgroundImageFix"/>
<feBlend mode="normal" in="SourceGraphic" in2="BackgroundImageFix" result="shape"/>
<feGaussianBlur stdDeviation="0.40176" result="effect1_foregroundBlur_467_7079"/>
</filter>
<filter id="filter14_f_467_7079" x="67.2258" y="186.236" width="55.607" height="3.60704" filterUnits="userSpaceOnUse" color-interpolation-filters="sRGB">
<feFlood flood-opacity="0" result="BackgroundImageFix"/>
<feBlend mode="normal" in="SourceGraphic" in2="BackgroundImageFix" result="shape"/>
<feGaussianBlur stdDeviation="0.40176" result="effect1_foregroundBlur_467_7079"/>
</filter>
<filter id="filter15_f_467_7079" x="67.2258" y="195.622" width="55.607" height="3.60704" filterUnits="userSpaceOnUse" color-interpolation-filters="sRGB">
<feFlood flood-opacity="0" result="BackgroundImageFix"/>
<feBlend mode="normal" in="SourceGraphic" in2="BackgroundImageFix" result="shape"/>
<feGaussianBlur stdDeviation="0.40176" result="effect1_foregroundBlur_467_7079"/>
</filter>
<filter id="filter16_f_467_7079" x="67.2258" y="205.009" width="55.607" height="3.60704" filterUnits="userSpaceOnUse" color-interpolation-filters="sRGB">
<feFlood flood-opacity="0" result="BackgroundImageFix"/>
<feBlend mode="normal" in="SourceGraphic" in2="BackgroundImageFix" result="shape"/>
<feGaussianBlur stdDeviation="0.40176" result="effect1_foregroundBlur_467_7079"/>
</filter>
<filter id="filter17_f_467_7079" x="67.2258" y="214.396" width="55.607" height="3.60704" filterUnits="userSpaceOnUse" color-interpolation-filters="sRGB">
<feFlood flood-opacity="0" result="BackgroundImageFix"/>
<feBlend mode="normal" in="SourceGraphic" in2="BackgroundImageFix" result="shape"/>
<feGaussianBlur stdDeviation="0.40176" result="effect1_foregroundBlur_467_7079"/>
</filter>
<filter id="filter18_i_467_7079" x="88.877" y="69.3242" width="14.2926" height="157.159" filterUnits="userSpaceOnUse" color-interpolation-filters="sRGB">
<feFlood flood-opacity="0" result="BackgroundImageFix"/>
<feBlend mode="normal" in="SourceGraphic" in2="BackgroundImageFix" result="shape"/>
<feColorMatrix in="SourceAlpha" type="matrix" values="0 0 0 0 0 0 0 0 0 0 0 0 0 0 0 0 0 0 127 0" result="hardAlpha"/>
<feOffset dx="1.60704" dy="3.21408"/>
<feGaussianBlur stdDeviation="1.60704"/>
<feComposite in2="hardAlpha" operator="arithmetic" k2="-1" k3="1"/>
<feColorMatrix type="matrix" values="0 0 0 0 0 0 0 0 0 0 0 0 0 0 0 0 0 0 0.25 0"/>
<feBlend mode="normal" in2="shape" result="effect1_innerShadow_467_7079"/>
</filter>
<filter id="filter19_dii_467_7079" x="88.2879" y="71.1965" width="13.7016" height="156.232" filterUnits="userSpaceOnUse" color-interpolation-filters="sRGB">
<feFlood flood-opacity="0" result="BackgroundImageFix"/>
<feColorMatrix in="SourceAlpha" type="matrix" values="0 0 0 0 0 0 0 0 0 0 0 0 0 0 0 0 0 0 127 0" result="hardAlpha"/>
<feOffset dy="3.21408"/>
<feGaussianBlur stdDeviation="1.60704"/>
<feComposite in2="hardAlpha" operator="out"/>
<feColorMatrix type="matrix" values="0 0 0 0 0 0 0 0 0 0 0 0 0 0 0 0 0 0 0.5 0"/>
<feBlend mode="normal" in2="BackgroundImageFix" result="effect1_dropShadow_467_7079"/>
<feBlend mode="normal" in="SourceGraphic" in2="effect1_dropShadow_467_7079" result="shape"/>
<feColorMatrix in="SourceAlpha" type="matrix" values="0 0 0 0 0 0 0 0 0 0 0 0 0 0 0 0 0 0 127 0" result="hardAlpha"/>
<feOffset dx="-0.80352" dy="-0.80352"/>
<feGaussianBlur stdDeviation="3.21408"/>
<feComposite in2="hardAlpha" operator="arithmetic" k2="-1" k3="1"/>
<feColorMatrix type="matrix" values="0 0 0 0 0 0 0 0 0 0 0 0 0 0 0 0 0 0 0.25 0"/>
<feBlend mode="normal" in2="shape" result="effect2_innerShadow_467_7079"/>
<feColorMatrix in="SourceAlpha" type="matrix" values="0 0 0 0 0 0 0 0 0 0 0 0 0 0 0 0 0 0 127 0" result="hardAlpha"/>
<feOffset dx="0.80352" dy="0.80352"/>
<feGaussianBlur stdDeviation="1.20528"/>
<feComposite in2="hardAlpha" operator="arithmetic" k2="-1" k3="1"/>
<feColorMatrix type="matrix" values="0 0 0 0 0 0 0 0 0 0 0 0 0 0 0 0 0 0 0.25 0"/>
<feBlend mode="normal" in2="effect2_innerShadow_467_7079" result="effect3_innerShadow_467_7079"/>
</filter>
<filter id="filter20_ddf_467_7079" x="44.9399" y="45.1586" width="101.234" height="28.5936" filterUnits="userSpaceOnUse" color-interpolation-filters="sRGB">
<feFlood flood-opacity="0" result="BackgroundImageFix"/>
<feColorMatrix in="SourceAlpha" type="matrix" values="0 0 0 0 0 0 0 0 0 0 0 0 0 0 0 0 0 0 127 0" result="hardAlpha"/>
<feOffset dx="-0.139441" dy="-0.139441"/>
<feGaussianBlur stdDeviation="0.0697207"/>
<feColorMatrix type="matrix" values="0 0 0 0 0.290208 0 0 0 0 0.290208 0 0 0 0 0.290208 0 0 0 0.5 0"/>
<feBlend mode="normal" in2="BackgroundImageFix" result="effect1_dropShadow_467_7079"/>
<feColorMatrix in="SourceAlpha" type="matrix" values="0 0 0 0 0 0 0 0 0 0 0 0 0 0 0 0 0 0 127 0" result="hardAlpha"/>
<feOffset dx="0.557765" dy="0.557765"/>
<feGaussianBlur stdDeviation="0.278883"/>
<feColorMatrix type="matrix" values="0 0 0 0 0.485408 0 0 0 0 0.485408 0 0 0 0 0.485408 0 0 0 0.3 0"/>
<feBlend mode="normal" in2="effect1_dropShadow_467_7079" result="effect2_dropShadow_467_7079"/>
<feBlend mode="normal" in="SourceGraphic" in2="effect2_dropShadow_467_7079" result="shape"/>
<feGaussianBlur stdDeviation="0.0278883" result="effect3_foregroundBlur_467_7079"/>
</filter>
<filter id="filter21_di_467_7079" x="120.258" y="47.8379" width="22.4004" height="22.4004" filterUnits="userSpaceOnUse" color-interpolation-filters="sRGB">
<feFlood flood-opacity="0" result="BackgroundImageFix"/>
<feColorMatrix in="SourceAlpha" type="matrix" values="0 0 0 0 0 0 0 0 0 0 0 0 0 0 0 0 0 0 127 0" result="hardAlpha"/>
<feOffset/>
<feGaussianBlur stdDeviation="4"/>
<feComposite in2="hardAlpha" operator="out"/>
<feColorMatrix type="matrix" values="0 0 0 0 0.597112 0 0 0 0 0.977291 0 0 0 0 0.325556 0 0 0 1 0"/>
<feBlend mode="normal" in2="BackgroundImageFix" result="effect1_dropShadow_467_7079"/>
<feBlend mode="normal" in="SourceGraphic" in2="effect1_dropShadow_467_7079" result="shape"/>
<feColorMatrix in="SourceAlpha" type="matrix" values="0 0 0 0 0 0 0 0 0 0 0 0 0 0 0 0 0 0 127 0" result="hardAlpha"/>
<feOffset dy="1.6"/>
<feGaussianBlur stdDeviation="1.6"/>
<feComposite in2="hardAlpha" operator="arithmetic" k2="-1" k3="1"/>
<feColorMatrix type="matrix" values="0 0 0 0 0.886061 0 0 0 0 0.994244 0 0 0 0 0.34515 0 0 0 1 0"/>
<feBlend mode="normal" in2="shape" result="effect2_innerShadow_467_7079"/>
</filter>
<filter id="filter22_di_467_7079" x="70.8293" y="78" width="49.4" height="19.4" filterUnits="userSpaceOnUse" color-interpolation-filters="sRGB">
<feFlood flood-opacity="0" result="BackgroundImageFix"/>
<feColorMatrix in="SourceAlpha" type="matrix" values="0 0 0 0 0 0 0 0 0 0 0 0 0 0 0 0 0 0 127 0" result="hardAlpha"/>
<feOffset dy="3.2"/>
<feGaussianBlur stdDeviation="1.6"/>
<feComposite in2="hardAlpha" operator="out"/>
<feColorMatrix type="matrix" values="0 0 0 0 0 0 0 0 0 0 0 0 0 0 0 0 0 0 0.4 0"/>
<feBlend mode="normal" in2="BackgroundImageFix" result="effect1_dropShadow_467_7079"/>
<feBlend mode="normal" in="SourceGraphic" in2="effect1_dropShadow_467_7079" result="shape"/>
<feColorMatrix in="SourceAlpha" type="matrix" values="0 0 0 0 0 0 0 0 0 0 0 0 0 0 0 0 0 0 127 0" result="hardAlpha"/>
<feOffset dx="2.4" dy="1.6"/>
<feGaussianBlur stdDeviation="1.6"/>
<feComposite in2="hardAlpha" operator="arithmetic" k2="-1" k3="1"/>
<feColorMatrix type="matrix" values="0 0 0 0 0.496469 0 0 0 0 0.496469 0 0 0 0 0.496469 0 0 0 0.25 0"/>
<feBlend mode="normal" in2="shape" result="effect2_innerShadow_467_7079"/>
</filter>
<linearGradient id="paint0_linear_467_7079" x1="45" y1="45" x2="205" y2="125" gradientUnits="userSpaceOnUse">
<stop stop-color="#666666"/>
<stop offset="1" stop-color="#1A1A1A"/>
</linearGradient>
</defs>
</svg>
