<svg fill="none" height="290" viewBox="0 0 190 290" width="190" xmlns="http://www.w3.org/2000/svg" xmlns:xlink="http://www.w3.org/1999/xlink"><filter id="a" color-interpolation-filters="sRGB" filterUnits="userSpaceOnUse" height="288.994" width="189.052" x=".503063" y=".503063"><feFlood flood-opacity="0" result="BackgroundImageFix"/><feColorMatrix in="SourceAlpha" result="hardAlpha" type="matrix" values="0 0 0 0 0 0 0 0 0 0 0 0 0 0 0 0 0 0 127 0"/><feOffset dx="11.1242" dy="11.1242"/><feGaussianBlur stdDeviation="16.6864"/><feComposite in2="hardAlpha" operator="out"/><feColorMatrix type="matrix" values="0 0 0 0 0.823529 0 0 0 0 0.823529 0 0 0 0 0.823529 0 0 0 1 0"/><feBlend in2="BackgroundImageFix" mode="normal" result="effect1_dropShadow_467_7079"/><feColorMatrix in="SourceAlpha" result="hardAlpha" type="matrix" values="0 0 0 0 0 0 0 0 0 0 0 0 0 0 0 0 0 0 127 0"/><feOffset dx="-11.1242" dy="-11.1242"/><feGaussianBlur stdDeviation="16.6864"/><feComposite in2="hardAlpha" operator="out"/><feColorMatrix type="matrix" values="0 0 0 0 1 0 0 0 0 1 0 0 0 0 1 0 0 0 1 0"/><feBlend in2="effect1_dropShadow_467_7079" mode="normal" result="effect2_dropShadow_467_7079"/><feColorMatrix in="SourceAlpha" result="hardAlpha" type="matrix" values="0 0 0 0 0 0 0 0 0 0 0 0 0 0 0 0 0 0 127 0"/><feOffset dx="4.44969" dy="4.44969"/><feGaussianBlur stdDeviation="4.44969"/><feComposite in2="hardAlpha" operator="out"/><feColorMatrix type="matrix" values="0 0 0 0 0.5 0 0 0 0 0.5 0 0 0 0 0.5 0 0 0 0.2 0"/><feBlend in2="effect2_dropShadow_467_7079" mode="normal" result="effect3_dropShadow_467_7079"/><feBlend in="SourceGraphic" in2="effect3_dropShadow_467_7079" mode="normal" result="shape"/></filter><filter id="b" color-interpolation-filters="sRGB" filterUnits="userSpaceOnUse" height="204.821" width="104.88" x="41.7859" y="41.7859"><feFlood flood-opacity="0" result="BackgroundImageFix"/><feBlend in="SourceGraphic" in2="BackgroundImageFix" mode="normal" result="shape"/><feColorMatrix in="SourceAlpha" result="hardAlpha" type="matrix" values="0 0 0 0 0 0 0 0 0 0 0 0 0 0 0 0 0 0 127 0"/><feOffset dx="-3.21408" dy="-3.21408"/><feGaussianBlur stdDeviation="1.60704"/><feComposite in2="hardAlpha" k2="-1" k3="1" operator="arithmetic"/><feColorMatrix type="matrix" values="0 0 0 0 0 0 0 0 0 0 0 0 0 0 0 0 0 0 0.25 0"/><feBlend in2="shape" mode="normal" result="effect1_innerShadow_467_7079"/><feColorMatrix in="SourceAlpha" result="hardAlpha" type="matrix" values="0 0 0 0 0 0 0 0 0 0 0 0 0 0 0 0 0 0 127 0"/><feOffset dx="1.60704" dy="1.60704"/><feGaussianBlur stdDeviation="1.20528"/><feComposite in2="hardAlpha" k2="-1" k3="1" operator="arithmetic"/><feColorMatrix type="matrix" values="0 0 0 0 1 0 0 0 0 1 0 0 0 0 1 0 0 0 0.4 0"/><feBlend in2="effect1_innerShadow_467_7079" mode="normal" result="effect2_innerShadow_467_7079"/></filter><filter id="c" color-interpolation-filters="sRGB" filterUnits="userSpaceOnUse" height="3.60704" width="55.607" x="67.2258" y="73.5949"><feFlood flood-opacity="0" result="BackgroundImageFix"/><feBlend in="SourceGraphic" in2="BackgroundImageFix" mode="normal" result="shape"/><feGaussianBlur result="effect1_foregroundBlur_467_7079" stdDeviation=".40176"/></filter><filter id="d" color-interpolation-filters="sRGB" filterUnits="userSpaceOnUse" height="3.60704" width="55.607" x="67.2258" y="82.9816"><feFlood flood-opacity="0" result="BackgroundImageFix"/><feBlend in="SourceGraphic" in2="BackgroundImageFix" mode="normal" result="shape"/><feGaussianBlur result="effect1_foregroundBlur_467_7079" stdDeviation=".40176"/></filter><filter id="e" color-interpolation-filters="sRGB" filterUnits="userSpaceOnUse" height="3.60704" width="55.607" x="67.2258" y="92.3684"><feFlood flood-opacity="0" result="BackgroundImageFix"/><feBlend in="SourceGraphic" in2="BackgroundImageFix" mode="normal" result="shape"/><feGaussianBlur result="effect1_foregroundBlur_467_7079" stdDeviation=".40176"/></filter><filter id="f" color-interpolation-filters="sRGB" filterUnits="userSpaceOnUse" height="3.60704" width="55.607" x="67.2258" y="101.755"><feFlood flood-opacity="0" result="BackgroundImageFix"/><feBlend in="SourceGraphic" in2="BackgroundImageFix" mode="normal" result="shape"/><feGaussianBlur result="effect1_foregroundBlur_467_7079" stdDeviation=".40176"/></filter><filter id="g" color-interpolation-filters="sRGB" filterUnits="userSpaceOnUse" height="3.60704" width="55.607" x="67.2258" y="111.142"><feFlood flood-opacity="0" result="BackgroundImageFix"/><feBlend in="SourceGraphic" in2="BackgroundImageFix" mode="normal" result="shape"/><feGaussianBlur result="effect1_foregroundBlur_467_7079" stdDeviation=".40176"/></filter><filter id="h" color-interpolation-filters="sRGB" filterUnits="userSpaceOnUse" height="3.60704" width="55.607" x="67.2258" y="120.529"><feFlood flood-opacity="0" result="BackgroundImageFix"/><feBlend in="SourceGraphic" in2="BackgroundImageFix" mode="normal" result="shape"/><feGaussianBlur result="effect1_foregroundBlur_467_7079" stdDeviation=".40176"/></filter><filter id="i" color-interpolation-filters="sRGB" filterUnits="userSpaceOnUse" height="3.60704" width="55.607" x="67.2258" y="129.915"><feFlood flood-opacity="0" result="BackgroundImageFix"/><feBlend in="SourceGraphic" in2="BackgroundImageFix" mode="normal" result="shape"/><feGaussianBlur result="effect1_foregroundBlur_467_7079" stdDeviation=".40176"/></filter><filter id="j" color-interpolation-filters="sRGB" filterUnits="userSpaceOnUse" height="3.60704" width="55.607" x="67.2258" y="139.302"><feFlood flood-opacity="0" result="BackgroundImageFix"/><feBlend in="SourceGraphic" in2="BackgroundImageFix" mode="normal" result="shape"/><feGaussianBlur result="effect1_foregroundBlur_467_7079" stdDeviation=".40176"/></filter><filter id="k" color-interpolation-filters="sRGB" filterUnits="userSpaceOnUse" height="3.60704" width="55.607" x="67.2258" y="148.689"><feFlood flood-opacity="0" result="BackgroundImageFix"/><feBlend in="SourceGraphic" in2="BackgroundImageFix" mode="normal" result="shape"/><feGaussianBlur result="effect1_foregroundBlur_467_7079" stdDeviation=".40176"/></filter><filter id="l" color-interpolation-filters="sRGB" filterUnits="userSpaceOnUse" height="3.60704" width="55.607" x="67.2258" y="158.075"><feFlood flood-opacity="0" result="BackgroundImageFix"/><feBlend in="SourceGraphic" in2="BackgroundImageFix" mode="normal" result="shape"/><feGaussianBlur result="effect1_foregroundBlur_467_7079" stdDeviation=".40176"/></filter><filter id="m" color-interpolation-filters="sRGB" filterUnits="userSpaceOnUse" height="3.60704" width="55.607" x="67.2258" y="167.462"><feFlood flood-opacity="0" result="BackgroundImageFix"/><feBlend in="SourceGraphic" in2="BackgroundImageFix" mode="normal" result="shape"/><feGaussianBlur result="effect1_foregroundBlur_467_7079" stdDeviation=".40176"/></filter><filter id="n" color-interpolation-filters="sRGB" filterUnits="userSpaceOnUse" height="3.60704" width="55.607" x="67.2258" y="176.849"><feFlood flood-opacity="0" result="BackgroundImageFix"/><feBlend in="SourceGraphic" in2="BackgroundImageFix" mode="normal" result="shape"/><feGaussianBlur result="effect1_foregroundBlur_467_7079" stdDeviation=".40176"/></filter><filter id="o" color-interpolation-filters="sRGB" filterUnits="userSpaceOnUse" height="3.60704" width="55.607" x="67.2258" y="186.236"><feFlood flood-opacity="0" result="BackgroundImageFix"/><feBlend in="SourceGraphic" in2="BackgroundImageFix" mode="normal" result="shape"/><feGaussianBlur result="effect1_foregroundBlur_467_7079" stdDeviation=".40176"/></filter><filter id="p" color-interpolation-filters="sRGB" filterUnits="userSpaceOnUse" height="3.60704" width="55.607" x="67.2258" y="195.622"><feFlood flood-opacity="0" result="BackgroundImageFix"/><feBlend in="SourceGraphic" in2="BackgroundImageFix" mode="normal" result="shape"/><feGaussianBlur result="effect1_foregroundBlur_467_7079" stdDeviation=".40176"/></filter><filter id="q" color-interpolation-filters="sRGB" filterUnits="userSpaceOnUse" height="3.60704" width="55.607" x="67.2258" y="205.009"><feFlood flood-opacity="0" result="BackgroundImageFix"/><feBlend in="SourceGraphic" in2="BackgroundImageFix" mode="normal" result="shape"/><feGaussianBlur result="effect1_foregroundBlur_467_7079" stdDeviation=".40176"/></filter><filter id="r" color-interpolation-filters="sRGB" filterUnits="userSpaceOnUse" height="3.60704" width="55.607" x="67.2258" y="214.396"><feFlood flood-opacity="0" result="BackgroundImageFix"/><feBlend in="SourceGraphic" in2="BackgroundImageFix" mode="normal" result="shape"/><feGaussianBlur result="effect1_foregroundBlur_467_7079" stdDeviation=".40176"/></filter><filter id="s" color-interpolation-filters="sRGB" filterUnits="userSpaceOnUse" height="157.159" width="14.2926" x="88.877" y="69.3242"><feFlood flood-opacity="0" result="BackgroundImageFix"/><feBlend in="SourceGraphic" in2="BackgroundImageFix" mode="normal" result="shape"/><feColorMatrix in="SourceAlpha" result="hardAlpha" type="matrix" values="0 0 0 0 0 0 0 0 0 0 0 0 0 0 0 0 0 0 127 0"/><feOffset dx="1.60704" dy="3.21408"/><feGaussianBlur stdDeviation="1.60704"/><feComposite in2="hardAlpha" k2="-1" k3="1" operator="arithmetic"/><feColorMatrix type="matrix" values="0 0 0 0 0 0 0 0 0 0 0 0 0 0 0 0 0 0 0.25 0"/><feBlend in2="shape" mode="normal" result="effect1_innerShadow_467_7079"/></filter><filter id="t" color-interpolation-filters="sRGB" filterUnits="userSpaceOnUse" height="156.232" width="13.7016" x="88.2879" y="71.1965"><feFlood flood-opacity="0" result="BackgroundImageFix"/><feColorMatrix in="SourceAlpha" result="hardAlpha" type="matrix" values="0 0 0 0 0 0 0 0 0 0 0 0 0 0 0 0 0 0 127 0"/><feOffset dy="3.21408"/><feGaussianBlur stdDeviation="1.60704"/><feComposite in2="hardAlpha" operator="out"/><feColorMatrix type="matrix" values="0 0 0 0 0 0 0 0 0 0 0 0 0 0 0 0 0 0 0.5 0"/><feBlend in2="BackgroundImageFix" mode="normal" result="effect1_dropShadow_467_7079"/><feBlend in="SourceGraphic" in2="effect1_dropShadow_467_7079" mode="normal" result="shape"/><feColorMatrix in="SourceAlpha" result="hardAlpha" type="matrix" values="0 0 0 0 0 0 0 0 0 0 0 0 0 0 0 0 0 0 127 0"/><feOffset dx="-.80352" dy="-.80352"/><feGaussianBlur stdDeviation="3.21408"/><feComposite in2="hardAlpha" k2="-1" k3="1" operator="arithmetic"/><feColorMatrix type="matrix" values="0 0 0 0 0 0 0 0 0 0 0 0 0 0 0 0 0 0 0.25 0"/><feBlend in2="shape" mode="normal" result="effect2_innerShadow_467_7079"/><feColorMatrix in="SourceAlpha" result="hardAlpha" type="matrix" values="0 0 0 0 0 0 0 0 0 0 0 0 0 0 0 0 0 0 127 0"/><feOffset dx=".80352" dy=".80352"/><feGaussianBlur stdDeviation="1.20528"/><feComposite in2="hardAlpha" k2="-1" k3="1" operator="arithmetic"/><feColorMatrix type="matrix" values="0 0 0 0 0 0 0 0 0 0 0 0 0 0 0 0 0 0 0.25 0"/><feBlend in2="effect2_innerShadow_467_7079" mode="normal" result="effect3_innerShadow_467_7079"/></filter><filter id="u" color-interpolation-filters="sRGB" filterUnits="userSpaceOnUse" height="28.5936" width="101.234" x="44.9399" y="45.1586"><feFlood flood-opacity="0" result="BackgroundImageFix"/><feColorMatrix in="SourceAlpha" result="hardAlpha" type="matrix" values="0 0 0 0 0 0 0 0 0 0 0 0 0 0 0 0 0 0 127 0"/><feOffset dx="-.139441" dy="-.139441"/><feGaussianBlur stdDeviation=".0697207"/><feColorMatrix type="matrix" values="0 0 0 0 0.290208 0 0 0 0 0.290208 0 0 0 0 0.290208 0 0 0 0.5 0"/><feBlend in2="BackgroundImageFix" mode="normal" result="effect1_dropShadow_467_7079"/><feColorMatrix in="SourceAlpha" result="hardAlpha" type="matrix" values="0 0 0 0 0 0 0 0 0 0 0 0 0 0 0 0 0 0 127 0"/><feOffset dx=".557765" dy=".557765"/><feGaussianBlur stdDeviation=".278883"/><feColorMatrix type="matrix" values="0 0 0 0 0.485408 0 0 0 0 0.485408 0 0 0 0 0.485408 0 0 0 0.3 0"/><feBlend in2="effect1_dropShadow_467_7079" mode="normal" result="effect2_dropShadow_467_7079"/><feBlend in="SourceGraphic" in2="effect2_dropShadow_467_7079" mode="normal" result="shape"/><feGaussianBlur result="effect3_foregroundBlur_467_7079" stdDeviation=".0278883"/></filter><filter id="v" color-interpolation-filters="sRGB" filterUnits="userSpaceOnUse" height="22.4004" width="22.4004" x="120.258" y="47.8379"><feFlood flood-opacity="0" result="BackgroundImageFix"/><feColorMatrix in="SourceAlpha" result="hardAlpha" type="matrix" values="0 0 0 0 0 0 0 0 0 0 0 0 0 0 0 0 0 0 127 0"/><feOffset/><feGaussianBlur stdDeviation="4"/><feComposite in2="hardAlpha" operator="out"/><feColorMatrix type="matrix" values="0 0 0 0 0.597112 0 0 0 0 0.977291 0 0 0 0 0.325556 0 0 0 1 0"/><feBlend in2="BackgroundImageFix" mode="normal" result="effect1_dropShadow_467_7079"/><feBlend in="SourceGraphic" in2="effect1_dropShadow_467_7079" mode="normal" result="shape"/><feColorMatrix in="SourceAlpha" result="hardAlpha" type="matrix" values="0 0 0 0 0 0 0 0 0 0 0 0 0 0 0 0 0 0 127 0"/><feOffset dy="1.6"/><feGaussianBlur stdDeviation="1.6"/><feComposite in2="hardAlpha" k2="-1" k3="1" operator="arithmetic"/><feColorMatrix type="matrix" values="0 0 0 0 0.886061 0 0 0 0 0.994244 0 0 0 0 0.34515 0 0 0 1 0"/><feBlend in2="shape" mode="normal" result="effect2_innerShadow_467_7079"/></filter><filter id="w" color-interpolation-filters="sRGB" filterUnits="userSpaceOnUse" height="19.4" width="49.4" x="70.8293" y="78"><feFlood flood-opacity="0" result="BackgroundImageFix"/><feColorMatrix in="SourceAlpha" result="hardAlpha" type="matrix" values="0 0 0 0 0 0 0 0 0 0 0 0 0 0 0 0 0 0 127 0"/><feOffset dy="3.2"/><feGaussianBlur stdDeviation="1.6"/><feComposite in2="hardAlpha" operator="out"/><feColorMatrix type="matrix" values="0 0 0 0 0 0 0 0 0 0 0 0 0 0 0 0 0 0 0.4 0"/><feBlend in2="BackgroundImageFix" mode="normal" result="effect1_dropShadow_467_7079"/><feBlend in="SourceGraphic" in2="effect1_dropShadow_467_7079" mode="normal" result="shape"/><feColorMatrix in="SourceAlpha" result="hardAlpha" type="matrix" values="0 0 0 0 0 0 0 0 0 0 0 0 0 0 0 0 0 0 127 0"/><feOffset dx="2.4" dy="1.6"/><feGaussianBlur stdDeviation="1.6"/><feComposite in2="hardAlpha" k2="-1" k3="1" operator="arithmetic"/><feColorMatrix type="matrix" values="0 0 0 0 0.496469 0 0 0 0 0.496469 0 0 0 0 0.496469 0 0 0 0.25 0"/><feBlend in2="shape" mode="normal" result="effect2_innerShadow_467_7079"/></filter><linearGradient id="x" gradientUnits="userSpaceOnUse" x1="45" x2="205" y1="45" y2="125"><stop offset="0" stop-color="#666"/><stop offset="1" stop-color="#1a1a1a"/></linearGradient><mask id="y" height="147" maskUnits="userSpaceOnUse" width="54" x="69" y="74"><path d="m69.0293 74.1992h52.9997l-14.25 146.2998h-12.2497-12.25z" fill="#3c3c3c"/></mask><g filter="url(#a)"><g filter="url(#b)"><path d="m45 53.9386c0-4.9367 4.0019-8.9386 8.9385-8.9386h82.1225c4.937 0 8.939 4.0019 8.939 8.9385v182.1225c0 4.937-4.002 8.939-8.939 8.939h-82.1225c-4.9366 0-8.9385-4.002-8.9385-8.939z" fill="#4b4b4b"/><path d="m45 53.9386c0-4.9367 4.0019-8.9386 8.9385-8.9386h82.1225c4.937 0 8.939 4.0019 8.939 8.9385v182.1225c0 4.937-4.002 8.939-8.939 8.939h-82.1225c-4.9366 0-8.9385-4.002-8.9385-8.939z" fill="url(#x)" fill-opacity=".5"/><path d="m53.9385 45.8379h82.1235c4.473 0 8.1 3.6268 8.1 8.1006v182.1235c0 4.473-3.627 8.1-8.1 8.1h-82.1235c-4.4738 0-8.1006-3.627-8.1006-8.1v-182.1235c0-4.4738 3.6268-8.1006 8.1006-8.1006z" stroke="#5e5e5e" stroke-opacity=".1" stroke-width="1.67598"/><g mask="url(#y)"><g filter="url(#c)"><path d="m68.0293 75.3984h53.9997" stroke="#2b2b2b" stroke-width="2"/></g><g filter="url(#d)"><path d="m68.0293 84.7852h53.9997" stroke="#2b2b2b" stroke-width="2"/></g><g filter="url(#e)"><path d="m68.0293 94.1719h53.9997" stroke="#2b2b2b" stroke-width="2"/></g><g filter="url(#f)"><path d="m68.0293 103.559h53.9997" stroke="#2b2b2b" stroke-width="2"/></g><g filter="url(#g)"><path d="m68.0293 112.945h53.9997" stroke="#2b2b2b" stroke-width="2"/></g><g filter="url(#h)"><path d="m68.0293 122.332h53.9997" stroke="#2b2b2b" stroke-width="2"/></g><g filter="url(#i)"><path d="m68.0293 131.719h53.9997" stroke="#2b2b2b" stroke-width="2"/></g><g filter="url(#j)"><path d="m68.0293 141.105h53.9997" stroke="#2b2b2b" stroke-width="2"/></g><g filter="url(#k)"><path d="m68.0293 150.492h53.9997" stroke="#2b2b2b" stroke-width="2"/></g><g filter="url(#l)"><path d="m68.0293 159.879h53.9997" stroke="#2b2b2b" stroke-width="2"/></g><g filter="url(#m)"><path d="m68.0293 169.266h53.9997" stroke="#2b2b2b" stroke-width="2"/></g><g filter="url(#n)"><path d="m68.0293 178.652h53.9997" stroke="#2b2b2b" stroke-width="2"/></g><g filter="url(#o)"><path d="m68.0293 188.039h53.9997" stroke="#2b2b2b" stroke-width="2"/></g><g filter="url(#p)"><path d="m68.0293 197.426h53.9997" stroke="#2b2b2b" stroke-width="2"/></g><g filter="url(#q)"><path d="m68.0293 206.812h53.9997" stroke="#2b2b2b" stroke-width="2"/></g><g filter="url(#r)"><path d="m68.0293 216.199h53.9997" stroke="#2b2b2b" stroke-width="2"/></g></g><g filter="url(#s)"><rect height="148.491" rx="3.61584" stroke="#4d4d4d" stroke-width="5.45455" width="7.23168" x="91.6035" y="72.0508"/></g><g filter="url(#t)"><rect fill="#262626" height="149" rx="3.63636" width="7.27273" x="91.502" y="72"/></g><g filter="url(#u)"><path d="m57.5691 60.6091c-.34 0-.63-.088-.87-.264-.24-.18-.424-.432-.552-.756-.128-.328-.192-.71-.192-1.146 0-.444.064-.828.192-1.152s.312-.574.552-.75.53-.264.87-.264c.344 0 .634.088.87.264.24.176.424.426.552.75.128.32.192.704.192 1.152 0 .44-.064.822-.192 1.146s-.312.576-.552.756c-.236.176-.526.264-.87.264zm0-.54c.316 0 .554-.142.714-.426.16-.288.24-.688.24-1.2 0-.52-.08-.92-.24-1.2-.16-.284-.398-.426-.714-.426-.312 0-.548.142-.708.426-.16.28-.24.68-.24 1.2 0 .512.08.912.24 1.2.16.284.396.426.708.426zm3.0144.468v-.456c.552-.412.996-.77 1.332-1.074.336-.308.58-.58.732-.816.152-.24.228-.458.228-.654 0-.216-.068-.39-.204-.522-.132-.132-.318-.198-.558-.198-.252 0-.46.078-.624.234-.164.152-.252.368-.264.648h-.642c.02-.3.096-.556.228-.768.136-.216.316-.378.54-.486.228-.112.486-.168.774-.168s.538.052.75.156c.212.1.374.244.486.432.116.184.174.398.174.642 0 .264-.068.524-.204.78-.132.252-.346.518-.642.798-.292.276-.68.58-1.164.912h2.022v.54z" fill="#b2b6af"/></g><g filter="url(#v)"><circle cx="131.458" cy="59.0383" fill="#a3f552" r="3.2" transform="matrix(-1 -0 0 -1 262.916 118.0766)"/></g><g filter="url(#w)"><path d="m74.0293 84.5c0-3.5899 2.9101-6.5 6.5-6.5h29.9997c3.59 0 6.5 2.9101 6.5 6.5s-2.91 6.5-6.5 6.5h-29.9997c-3.5899 0-6.5-2.9101-6.5-6.5z" fill="#090909"/><path d="m80.5293 78.834h29.9997c3.129 0 5.666 2.5369 5.666 5.666s-2.537 5.666-5.666 5.666h-29.9997c-3.1291 0-5.666-2.5369-5.666-5.666s2.5369-5.666 5.666-5.666z" stroke="#b3b3b3" stroke-opacity=".1" stroke-width="1.66864"/></g></g></g></svg>