<svg width="95" height="24" viewBox="0 0 95 24" fill="none" xmlns="http://www.w3.org/2000/svg">
<g clip-path="url(#clip0_467_7808)">
<path d="M3.35664 3.692C3.35664 2.76509 2.60524 2.01367 1.67832 2.01367C0.751411 2.01367 0 2.76509 0 3.692C0 4.24167 0.26404 4.72871 0.671329 5.03458V11.7479C0.671329 12.7796 1.3874 13.6441 2.34965 13.8714V15.4403C2.34965 20.1675 6.18184 23.9997 10.9091 23.9997C15.6363 23.9997 19.4685 20.1675 19.4685 15.4403V13.8714C20.4307 13.6441 21.1469 12.7796 21.1469 11.7479V5.03458C21.5542 4.72871 21.8182 4.24167 21.8182 3.692C21.8182 2.76509 21.0667 2.01367 20.1398 2.01367C19.2129 2.01367 18.4615 2.76509 18.4615 3.692C18.4615 4.14596 18.6418 4.5572 18.9336 4.85887L18.4316 6.28587C17.5706 5.21616 16.2503 4.53116 14.7692 4.53116H7.04895C5.56784 4.53116 4.24762 5.21616 3.38656 6.28587L2.88447 4.85887C3.17644 4.5572 3.35664 4.14596 3.35664 3.692Z" fill="black"/>
<path d="M19.1322 3.69253C19.1322 3.13638 19.5831 2.68555 20.1391 2.68555C20.6953 2.68555 21.1462 3.13638 21.1462 3.69253C21.1462 4.13098 20.866 4.50398 20.4748 4.64224V11.7485C20.4748 12.5827 19.7986 13.259 18.9644 13.259H18.4609V8.224L19.7313 4.61347C19.3784 4.45691 19.1322 4.10347 19.1322 3.69253Z" fill="#757575"/>
<path d="M2.68586 3.69253C2.68586 3.13638 2.23501 2.68555 1.67887 2.68555C1.12272 2.68555 0.671875 3.13638 0.671875 3.69253C0.671875 4.13098 0.952091 4.50398 1.3432 4.64224V11.7485C1.3432 12.5827 2.01946 13.259 2.8537 13.259H3.35719V8.224L2.08681 4.61347C2.43972 4.45691 2.68586 4.10347 2.68586 3.69253Z" fill="#757575"/>
<path d="M3.02148 9.23109C3.02148 7.00651 4.82487 5.20312 7.04945 5.20312H14.7697C16.9943 5.20312 18.7978 7.00651 18.7978 9.23109V15.4409C18.7978 19.7974 15.2661 23.329 10.9096 23.329C6.5531 23.329 3.02148 19.7974 3.02148 15.4409V9.23109Z" fill="#CCCCCC"/>
<path d="M7.38477 5.20312H14.4337V10.5737H7.38477V5.20312Z" fill="white"/>
<path d="M9.39844 5.03516H11.1467C11.8496 5.03516 12.4194 5.60497 12.4194 6.30788V8.22396C12.4194 9.05819 11.7431 9.73445 10.9089 9.73445C10.0747 9.73445 9.39844 9.05819 9.39844 8.22396V5.03516Z" fill="#F03917"/>
<path d="M8.39062 17.623H13.4256V18.9657H8.39062V17.623Z" fill="black"/>
<path d="M4.53125 11.5812C4.53125 11.0251 4.9821 10.5742 5.53825 10.5742H16.2795C16.8357 10.5742 17.2865 11.0251 17.2865 11.5812V14.2665C17.2865 14.8227 16.8357 15.2735 16.2795 15.2735H5.53825C4.98209 15.2735 4.53125 14.8227 4.53125 14.2665V11.5812Z" fill="black"/>
<path d="M6.20898 12.4191C6.20898 11.8629 6.65984 11.4121 7.21598 11.4121C7.77213 11.4121 8.22297 11.8629 8.22297 12.4191V13.4261C8.22297 13.9822 7.77213 14.4331 7.21598 14.4331C6.65984 14.4331 6.20898 13.9822 6.20898 13.4261V12.4191Z" fill="#30D2F8"/>
<path d="M13.5938 12.4191C13.5938 11.8629 14.0446 11.4121 14.6007 11.4121C15.1569 11.4121 15.6077 11.8629 15.6077 12.4191V13.4261C15.6077 13.9822 15.1569 14.4331 14.6007 14.4331C14.0446 14.4331 13.5938 13.9822 13.5938 13.4261V12.4191Z" fill="#30D2F8"/>
<path d="M6.50596 21.986C4.40394 20.5691 3.02148 18.1663 3.02148 15.4406V15.377L6.54596 18.2937V21.986H6.50596Z" fill="#757575"/>
<path d="M18.796 15.377V15.4406C18.796 18.1663 17.4135 20.5691 15.3115 21.986H15.2715V18.2937L18.796 15.377Z" fill="#757575"/>
<path fill-rule="evenodd" clip-rule="evenodd" d="M7.41345 4.05678C7.22145 4.24878 7.16401 4.53753 7.26792 4.78838C7.37183 5.03925 7.61663 5.20282 7.88815 5.20282H10.087L9.43283 7.17309C9.33477 7.46844 9.45255 7.79245 9.71737 7.95591C9.98219 8.11936 10.3246 8.07938 10.5447 7.85933L14.4048 3.99918C14.5968 3.8072 14.6542 3.51844 14.5503 3.26758C14.4464 3.01673 14.2016 2.85316 13.9301 2.85316H11.7312L12.3854 0.88288C12.4835 0.587535 12.3657 0.263516 12.1009 0.100067C11.8361 -0.0633826 11.4936 -0.0234091 11.2736 0.196642L7.41345 4.05678Z" fill="black"/>
<path d="M7.88867 4.53202L11.7488 0.671875L10.8015 3.52502H13.9306L10.0705 7.38517L11.0178 4.53202H7.88867Z" fill="#FFC93A"/>
<path d="M28.3633 18.8665V8.18164H36.0229V10.0197H30.5326V12.5901H35.1851V14.4432H30.5326V18.8665H28.3633Z" fill="black"/>
<path d="M37.4434 18.8665V8.18164H39.4779V18.8665H37.4434Z" fill="black"/>
<path d="M45.9816 18.8664C45.8818 18.7369 45.8019 18.4529 45.7421 18.0146H45.7121C45.4928 18.3433 45.2136 18.5975 44.8745 18.7767C44.5354 18.956 44.0616 19.0456 43.4532 19.0456C42.6454 19.0456 41.997 18.8415 41.5085 18.4331C41.0198 18.0246 40.7754 17.4467 40.7754 16.6995C40.7754 15.9224 41.0447 15.3546 41.5832 14.9959C42.1218 14.6273 42.8798 14.3732 43.8572 14.2338C44.5752 14.1341 45.0639 14.0345 45.3232 13.9349C45.5825 13.8253 45.7121 13.636 45.7121 13.367C45.7121 13.0881 45.6025 12.8689 45.383 12.7095C45.1638 12.5401 44.8445 12.4554 44.4256 12.4554C43.4981 12.4554 43.0045 12.8141 42.9447 13.5314H41.1345C41.1643 12.8041 41.4585 12.2014 42.017 11.7232C42.5756 11.245 43.3834 11.0059 44.4407 11.0059C46.5948 11.0059 47.6719 11.9473 47.6719 13.8303V17.7306C47.6719 18.3086 47.7618 18.6622 47.9412 18.7916V18.8664H45.9816ZM43.9468 17.626C44.5054 17.626 44.9443 17.4816 45.2634 17.1927C45.5925 16.9037 45.757 16.56 45.757 16.1615V15.0108C45.5378 15.1404 45.0639 15.2898 44.3359 15.4592C43.7574 15.5887 43.3485 15.7381 43.1092 15.9075C42.8698 16.0669 42.7501 16.3159 42.7501 16.6547C42.7501 17.3023 43.149 17.626 43.9468 17.626Z" fill="black"/>
<path d="M52.4089 19.0899C51.3118 19.0899 50.454 18.8508 49.8356 18.3726C49.2173 17.8844 48.8782 17.2219 48.8184 16.385H50.7035C50.8331 17.2318 51.3916 17.6552 52.3789 17.6552C52.8276 17.6552 53.1718 17.5755 53.4111 17.4161C53.6605 17.2567 53.7851 17.0425 53.7851 16.7735C53.7851 16.6739 53.7653 16.5843 53.7253 16.5045C53.6955 16.4249 53.6356 16.3551 53.5458 16.2953C53.466 16.2256 53.3913 16.1708 53.3215 16.1309C53.2616 16.0911 53.1518 16.0513 52.9924 16.0114C52.8327 15.9715 52.708 15.9417 52.6184 15.9217C52.5385 15.9018 52.3938 15.8769 52.1844 15.847C51.9849 15.8072 51.8453 15.7773 51.7656 15.7573C51.3467 15.6777 51.0025 15.5979 50.7333 15.5183C50.474 15.4286 50.1996 15.3041 49.9105 15.1447C49.6213 14.9753 49.4018 14.7511 49.2522 14.4722C49.1125 14.1833 49.0427 13.8395 49.0427 13.441C49.0427 12.644 49.332 12.0363 49.9105 11.6179C50.4989 11.1994 51.252 10.9902 52.1695 10.9902C53.1569 10.9902 53.9298 11.2194 54.4884 11.6777C55.0567 12.126 55.3809 12.7437 55.4607 13.5307H53.6205C53.5407 12.7835 53.0471 12.4099 52.1396 12.4099C51.7307 12.4099 51.4065 12.4846 51.1671 12.6341C50.9378 12.7835 50.8231 12.9927 50.8231 13.2617C50.8231 13.3514 50.838 13.4361 50.868 13.5158C50.9078 13.5855 50.9676 13.6503 51.0475 13.71C51.1373 13.7598 51.222 13.8047 51.3018 13.8445C51.3816 13.8744 51.4962 13.9093 51.6458 13.9491C51.7955 13.979 51.9251 14.0089 52.0349 14.0388C52.1445 14.0587 52.2942 14.0886 52.4836 14.1285C52.6731 14.1583 52.8227 14.1833 52.9324 14.2032C53.2516 14.2729 53.5109 14.3377 53.7104 14.3975C53.9198 14.4473 54.1591 14.5369 54.4284 14.6664C54.6978 14.786 54.9071 14.9255 55.0567 15.0849C55.2164 15.2343 55.3509 15.4435 55.4607 15.7125C55.5804 15.9715 55.6402 16.2754 55.6402 16.6241C55.6402 17.3813 55.3411 17.984 54.7425 18.4324C54.1542 18.8708 53.3762 19.0899 52.4089 19.0899Z" fill="black"/>
<path d="M58.9232 8.18164V12.2016H58.9681C59.2574 11.7831 59.5716 11.4793 59.9107 11.29C60.2598 11.0907 60.6885 10.9911 61.1972 10.9911C61.985 10.9911 62.6234 11.2601 63.1121 11.7981C63.6008 12.3261 63.8452 13.0135 63.8452 13.8604V18.8665H61.8105V14.1592C61.8105 13.7408 61.6908 13.4021 61.4516 13.143C61.2221 12.884 60.8979 12.7545 60.4792 12.7545C60.0303 12.7545 59.6563 12.9189 59.357 13.2476C59.0679 13.5764 58.9232 13.9998 58.9232 14.5179V18.8665H56.8887V8.18164H58.9232Z" fill="black"/>
<path d="M69.7102 19.0907C68.6729 19.0907 67.91 18.6973 67.4213 17.9101H67.3915V18.8665H65.4316V8.18164H67.4662V12.1268H67.5111C67.9998 11.3697 68.7129 10.9911 69.6504 10.9911C70.6178 10.9911 71.4107 11.3697 72.0291 12.1268C72.6475 12.874 72.9565 13.8454 72.9565 15.0409C72.9565 16.2763 72.6575 17.2626 72.0589 17.9998C71.4605 18.7271 70.6776 19.0907 69.7102 19.0907ZM69.2615 17.3871C69.78 17.3871 70.1789 17.1829 70.4582 16.7744C70.7475 16.3659 70.892 15.7881 70.892 15.0409C70.892 14.3037 70.7425 13.7209 70.4433 13.2925C70.154 12.8541 69.7351 12.6349 69.1865 12.6349C68.0098 12.6349 67.4213 13.4519 67.4213 15.0858C67.4213 15.7931 67.5858 16.356 67.9151 16.7744C68.2442 17.1829 68.6929 17.3871 69.2615 17.3871Z" fill="black"/>
<path d="M80.7581 17.9392C80.0099 18.7062 79.0475 19.0899 77.8706 19.0899C76.6939 19.0899 75.7313 18.7062 74.9833 17.9392C74.2353 17.1621 73.8613 16.1957 73.8613 15.04C73.8613 13.8844 74.2353 12.923 74.9833 12.1559C75.7313 11.3788 76.6939 10.9902 77.8706 10.9902C79.0475 10.9902 80.0099 11.3788 80.7581 12.1559C81.5061 12.923 81.8801 13.8844 81.8801 15.04C81.8801 16.1957 81.5061 17.1621 80.7581 17.9392ZM77.8706 17.5357C78.479 17.5357 78.9528 17.3115 79.2919 16.8632C79.641 16.4049 79.8155 15.7972 79.8155 15.04C79.8155 14.2829 79.641 13.6752 79.2919 13.2169C78.9528 12.7586 78.479 12.5295 77.8706 12.5295C77.2522 12.5295 76.7735 12.7586 76.4344 13.2169C76.0953 13.6652 75.9259 14.2729 75.9259 15.04C75.9259 15.7972 76.0953 16.4049 76.4344 16.8632C76.7735 17.3115 77.2522 17.5357 77.8706 17.5357Z" fill="black"/>
<path d="M82.5625 12.5446V11.1996H83.6247V8.80859H85.6143V11.1996H86.9309V12.5446H85.6143V16.6093C85.6143 17.1174 85.8687 17.3715 86.3774 17.3715L86.9758 17.3565V18.8509C86.6667 18.8709 86.2427 18.8808 85.7041 18.8808C85.1158 18.8808 84.622 18.7413 84.223 18.4624C83.8241 18.1735 83.6247 17.7002 83.6247 17.0427V12.5446H82.5625Z" fill="black"/>
<path d="M91.4947 19.0899C90.3977 19.0899 89.5399 18.8508 88.9216 18.3726C88.3032 17.8844 87.9641 17.2219 87.9043 16.385H89.7892C89.9188 17.2318 90.4774 17.6552 91.4648 17.6552C91.9136 17.6552 92.2577 17.5755 92.497 17.4161C92.7465 17.2567 92.871 17.0425 92.871 16.7735C92.871 16.6739 92.8512 16.5843 92.8112 16.5045C92.7812 16.4249 92.7214 16.3551 92.6317 16.2953C92.5519 16.2256 92.4772 16.1708 92.4074 16.1309C92.3474 16.0911 92.2378 16.0513 92.0781 16.0114C91.9187 15.9715 91.7939 15.9417 91.7041 15.9217C91.6243 15.9018 91.4798 15.8769 91.2703 15.847C91.0708 15.8072 90.9312 15.7773 90.8514 15.7573C90.4325 15.6777 90.0885 15.5979 89.8192 15.5183C89.5599 15.4286 89.2856 15.3041 88.9965 15.1447C88.7072 14.9753 88.4877 14.7511 88.3381 14.4722C88.1985 14.1833 88.1287 13.8395 88.1287 13.441C88.1287 12.644 88.4179 12.0363 88.9965 11.6179C89.5848 11.1994 90.3378 10.9902 91.2554 10.9902C92.2427 10.9902 93.0157 11.2194 93.5741 11.6777C94.1427 12.126 94.4668 12.7437 94.5467 13.5307H92.7065C92.6267 12.7835 92.133 12.4099 91.2254 12.4099C90.8165 12.4099 90.4925 12.4846 90.253 12.6341C90.0236 12.7835 89.909 12.9927 89.909 13.2617C89.909 13.3514 89.9239 13.4361 89.9539 13.5158C89.9937 13.5855 90.0536 13.6503 90.1334 13.71C90.2232 13.7598 90.3079 13.8047 90.3878 13.8445C90.4674 13.8744 90.5821 13.9093 90.7318 13.9491C90.8814 13.979 91.011 14.0089 91.1207 14.0388C91.2305 14.0587 91.3801 14.0886 91.5696 14.1285C91.759 14.1583 91.9087 14.1833 92.0183 14.2032C92.3376 14.2729 92.5968 14.3377 92.7963 14.3975C93.0057 14.4473 93.245 14.5369 93.5143 14.6664C93.7836 14.786 93.993 14.9255 94.1427 15.0849C94.3023 15.2343 94.4368 15.4435 94.5467 15.7125C94.6663 15.9715 94.7261 16.2754 94.7261 16.6241C94.7261 17.3813 94.4268 17.984 93.8285 18.4324C93.2401 18.8708 92.4621 19.0899 91.4947 19.0899Z" fill="black"/>
</g>
<defs>
<clipPath id="clip0_467_7808">
<rect width="94.7273" height="24" fill="white"/>
</clipPath>
</defs>
</svg>
