<svg width="107" height="25" viewBox="0 0 107 25" fill="none" xmlns="http://www.w3.org/2000/svg">
<path d="M3.93821 3.84591C3.93821 2.88037 3.06929 2.09766 1.99743 2.09766C0.92556 2.09766 0.0566406 2.88037 0.0566406 3.84591C0.0566406 4.41849 0.361973 4.92582 0.832955 5.24444V12.2375C0.832955 13.3122 1.66101 14.2127 2.77374 14.4494V16.0837C2.77374 21.0079 7.20523 24.9997 12.6717 24.9997C18.1383 24.9997 22.5698 21.0079 22.5698 16.0837V14.4494C23.6825 14.2127 24.5105 13.3122 24.5105 12.2375V5.24444C24.9815 4.92582 25.2869 4.41849 25.2869 3.84591C25.2869 2.88037 24.4179 2.09766 23.3461 2.09766C22.2742 2.09766 21.4053 2.88037 21.4053 3.84591C21.4053 4.31879 21.6137 4.74715 21.9513 5.0614L21.3707 6.54786C20.375 5.43357 18.8483 4.72003 17.1356 4.72003H8.20794C6.49521 4.72003 4.96852 5.43357 3.97282 6.54786L3.3922 5.0614C3.72983 4.74715 3.93821 4.31879 3.93821 3.84591Z" fill="black"/>
<path d="M22.1806 3.84583C22.1806 3.26651 22.702 2.79688 23.3451 2.79688C23.9882 2.79688 24.5096 3.26651 24.5096 3.84583C24.5096 4.30255 24.1855 4.69109 23.7332 4.83509V12.2374C23.7332 13.1064 22.9512 13.8109 21.9865 13.8109H21.4043V8.5661L22.8733 4.80513C22.4653 4.64205 22.1806 4.27388 22.1806 3.84583Z" fill="#757575"/>
<path d="M3.16097 3.84583C3.16097 3.26651 2.63962 2.79688 1.9965 2.79688C1.35338 2.79688 0.832031 3.26651 0.832031 3.84583C0.832031 4.30255 1.15607 4.69109 1.60835 4.83509V12.2374C1.60835 13.1064 2.39037 13.8109 3.35505 13.8109H3.93729V8.5661L2.46825 4.80513C2.87633 4.64205 3.16097 4.27388 3.16097 3.84583Z" fill="#757575"/>
<path d="M3.55078 9.61572C3.55078 7.29844 5.63619 5.41992 8.20867 5.41992H17.1363C19.7088 5.41992 21.7942 7.29845 21.7942 9.61573V16.0843C21.7942 20.6223 17.7103 24.301 12.6725 24.301C7.6347 24.301 3.55078 20.6222 3.55078 16.0842V9.61572Z" fill="#CCCCCC"/>
<path d="M8.5957 5.41992H16.747V11.0143H8.5957V5.41992Z" fill="white"/>
<path d="M10.9258 5.24414H14.4192V8.56582C14.4192 9.4348 13.6372 10.1392 12.6725 10.1392C11.7078 10.1392 10.9258 9.4348 10.9258 8.56582V5.24414Z" fill="#F03917"/>
<path d="M9.75977 18.3574H15.5821V19.756H9.75977V18.3574Z" fill="black"/>
<path d="M5.29688 12.0626C5.29688 11.4833 5.81823 11.0137 6.46135 11.0137H18.8824C19.5255 11.0137 20.0468 11.4833 20.0468 12.0626V14.8598C20.0468 15.4391 19.5255 15.9088 18.8824 15.9088H6.46135C5.81823 15.9088 5.29688 15.4391 5.29688 14.8598V12.0626Z" fill="black"/>
<path d="M7.23828 12.9376C7.23828 12.3583 7.75963 11.8887 8.40275 11.8887C9.04587 11.8887 9.56722 12.3583 9.56722 12.9376V13.9866C9.56722 14.5659 9.04587 15.0355 8.40275 15.0355C7.75963 15.0355 7.23828 14.5659 7.23828 13.9866V12.9376Z" fill="#30D2F8"/>
<path d="M15.7773 12.9376C15.7773 12.3583 16.2987 11.8887 16.9418 11.8887C17.5849 11.8887 18.1063 12.3583 18.1063 12.9376V13.9866C18.1063 14.5659 17.5849 15.0355 16.9418 15.0355C16.2987 15.0355 15.7773 14.5659 15.7773 13.9866V12.9376Z" fill="#30D2F8"/>
<path d="M7.58017 22.9021C5.14945 21.4261 3.55078 18.9232 3.55078 16.0839V16.0176L7.62643 19.0559V22.9021H7.58017Z" fill="#757575"/>
<path d="M21.7944 16.0176V16.0839C21.7944 18.9232 20.1957 21.4261 17.765 22.9021H17.7188V19.0559L21.7944 16.0176Z" fill="#757575"/>
<path fill-rule="evenodd" clip-rule="evenodd" d="M8.62974 4.22581C8.40772 4.42581 8.3413 4.72659 8.46146 4.9879C8.58162 5.24921 8.86469 5.41959 9.17868 5.41959H11.7214L10.9649 7.47197C10.8515 7.77962 10.9877 8.11714 11.294 8.2874C11.6002 8.45766 11.9962 8.41602 12.2506 8.1868L16.7144 4.16582C16.9365 3.96582 17.0029 3.66504 16.8827 3.40373C16.7626 3.14242 16.4795 2.97204 16.1655 2.97204H13.6228L14.3793 0.919666C14.4927 0.612015 14.3565 0.274496 14.0502 0.104236C13.744 -0.0660235 13.348 -0.0243844 13.0936 0.204835L8.62974 4.22581Z" fill="black"/>
<path d="M9.17773 4.72019L13.6415 0.699219L12.5461 3.67124H16.1646L11.7008 7.69222L12.7962 4.72019H9.17773Z" fill="#FFC93A"/>
<mask id="path-15-outside-1_527_7214" maskUnits="userSpaceOnUse" x="31.6719" y="7.27344" width="75" height="14" fill="black">
<rect fill="white" x="31.6719" y="7.27344" width="75" height="14"/>
<path d="M32.6719 20.5743V20.029H33.0957C33.7358 20.029 34.1279 19.977 34.2721 19.8732C34.422 19.7635 34.497 19.5356 34.497 19.1893V9.90086C34.497 9.56037 34.422 9.33819 34.2721 9.23431C34.1221 9.12466 33.73 9.06984 33.0957 9.06984H32.6719V8.51582H42.3941L42.8871 12.5065H42.446C42.3653 11.8313 42.2701 11.3032 42.1605 10.9223C42.0568 10.5357 41.8838 10.1894 41.6416 9.88355C41.3994 9.57768 41.0736 9.36704 40.6642 9.25162C40.2605 9.13043 39.7271 9.06984 39.064 9.06984H36.9362C36.5325 9.06984 36.2874 9.11312 36.2009 9.19968C36.1144 9.28048 36.0712 9.47381 36.0712 9.77967V14.2637H37.5935C38.3951 14.2637 38.9083 14.1195 39.1332 13.8309C39.3581 13.5424 39.4705 12.9941 39.4705 12.1862H39.9116V16.8867H39.4705C39.4705 16.073 39.3581 15.5247 39.1332 15.2419C38.9083 14.9534 38.3951 14.8091 37.5935 14.8091H36.0712V19.172C36.0712 19.4201 36.0914 19.5933 36.1317 19.6914C36.1721 19.7837 36.3163 19.8645 36.5642 19.9338C36.8122 19.9972 37.2072 20.029 37.7492 20.029H38.3374V20.5743C37.9107 20.5397 36.9189 20.5224 35.3619 20.5224C33.9837 20.5224 33.0871 20.5397 32.6719 20.5743Z"/>
<path d="M44.2278 20.5743V20.029C44.8564 20.029 45.2427 19.9915 45.3869 19.9164C45.531 19.8356 45.6031 19.6048 45.6031 19.2239V10.0047C45.6031 9.56614 45.5253 9.29202 45.3696 9.18237C45.2196 9.07272 44.8391 9.0179 44.2278 9.0179V8.46388L46.7708 8.27344V19.2239C46.7708 19.6048 46.8458 19.8356 46.9957 19.9164C47.1456 19.9915 47.532 20.029 48.1548 20.029V20.5743C48.0106 20.5743 47.7886 20.5686 47.4887 20.557C47.1889 20.5455 46.9294 20.5368 46.7103 20.5311C46.4911 20.5253 46.3182 20.5224 46.1913 20.5224C46.0529 20.5224 45.3984 20.5397 44.2278 20.5743Z"/>
<path d="M49.2965 18.8863C49.2965 17.8822 49.8876 17.1146 51.0697 16.5837C51.779 16.2432 52.8659 16.0297 54.3306 15.9431V15.2939C54.3306 14.5609 54.1374 14.0012 53.7511 13.6145C53.3705 13.2221 52.938 13.0259 52.4536 13.0259C51.5887 13.0259 50.9486 13.2971 50.5334 13.8396C50.8852 13.8511 51.1245 13.9463 51.2513 14.1252C51.3782 14.2984 51.4416 14.4744 51.4416 14.6533C51.4416 14.8899 51.3667 15.0861 51.2167 15.2419C51.0726 15.392 50.8765 15.467 50.6286 15.467C50.3921 15.467 50.1961 15.3949 50.0404 15.2506C49.8847 15.1005 49.8068 14.8957 49.8068 14.636C49.8068 14.0589 50.0663 13.5799 50.5853 13.199C51.1101 12.8181 51.7444 12.6277 52.4882 12.6277C53.457 12.6277 54.2643 12.9537 54.9101 13.6058C55.112 13.8078 55.2619 14.0387 55.3599 14.2984C55.4637 14.5581 55.5214 14.7745 55.5329 14.9476C55.5445 15.115 55.5502 15.366 55.5502 15.7007V19.2412C55.5502 19.3105 55.5618 19.4028 55.5848 19.5182C55.6079 19.6337 55.6713 19.7664 55.7751 19.9164C55.8847 20.0607 56.0288 20.1329 56.2076 20.1329C56.6343 20.1329 56.8448 19.7549 56.839 18.9989V18.0034H57.2888V18.9989C57.2888 19.6279 57.1216 20.0665 56.7871 20.3146C56.4584 20.557 56.1413 20.6782 55.8357 20.6782C55.4435 20.6782 55.1235 20.5339 54.8755 20.2454C54.6276 19.9568 54.4863 19.6164 54.4517 19.2239C54.273 19.6741 53.9789 20.0463 53.5694 20.3406C53.1658 20.6292 52.6872 20.7734 52.1336 20.7734C51.7069 20.7734 51.2917 20.7186 50.8881 20.609C50.4902 20.5051 50.124 20.306 49.7895 20.0117C49.4609 19.7116 49.2965 19.3365 49.2965 18.8863ZM50.6632 18.869C50.6632 19.3076 50.8189 19.6683 51.1302 19.9511C51.4416 20.2338 51.8165 20.3752 52.2547 20.3752C52.7506 20.3752 53.2206 20.1848 53.6646 19.8039C54.1086 19.4173 54.3306 18.8459 54.3306 18.0899V16.3153C53.0216 16.3615 52.0817 16.6472 51.5108 17.1723C50.9457 17.6917 50.6632 18.2573 50.6632 18.869Z"/>
<path d="M57.9981 20.3406V18.0034C57.9981 17.8706 58.001 17.7812 58.0067 17.735C58.0125 17.6888 58.0327 17.6484 58.0673 17.6138C58.1019 17.5792 58.1538 17.5619 58.223 17.5619C58.3037 17.5619 58.3585 17.5792 58.3873 17.6138C58.4219 17.6484 58.4507 17.7321 58.4738 17.8648C58.6526 18.6786 58.9322 19.3018 59.3128 19.7347C59.6992 20.1617 60.2412 20.3752 60.939 20.3752C61.6021 20.3752 62.1009 20.2281 62.4353 19.9338C62.7698 19.6394 62.937 19.2499 62.937 18.7651C62.937 17.8995 62.3229 17.357 61.0946 17.1377C60.3854 16.9934 59.8837 16.8751 59.5896 16.7828C59.2955 16.6847 59.0187 16.5289 58.7592 16.3153C58.2518 15.8998 57.9981 15.3977 57.9981 14.8091C57.9981 14.2205 58.2201 13.7097 58.6641 13.2769C59.1139 12.8441 59.8347 12.6277 60.8265 12.6277C61.4897 12.6277 62.0461 12.795 62.4959 13.1297C62.6285 13.0259 62.7294 12.9306 62.7986 12.8441C62.9543 12.6998 63.0725 12.6277 63.1533 12.6277C63.2455 12.6277 63.3003 12.6594 63.3176 12.7229C63.3349 12.7806 63.3436 12.8931 63.3436 13.0605V14.8437C63.3436 14.9765 63.3407 15.0659 63.3349 15.1121C63.3291 15.1582 63.309 15.1986 63.2744 15.2333C63.2398 15.2621 63.185 15.2766 63.11 15.2766C62.9774 15.2766 62.9082 15.2217 62.9024 15.1121C62.8102 13.6809 62.1182 12.9653 60.8265 12.9653C60.1288 12.9653 59.6242 13.1009 59.3128 13.3721C59.0014 13.6376 58.8457 13.9521 58.8457 14.3157C58.8457 14.5177 58.8919 14.6966 58.9841 14.8524C59.0822 15.0024 59.1917 15.1236 59.3128 15.216C59.4397 15.3025 59.6184 15.3891 59.8491 15.4757C60.0798 15.5564 60.2643 15.6113 60.4027 15.6401C60.5468 15.669 60.7544 15.7123 61.0255 15.77C61.9711 15.9489 62.6429 16.2317 63.0408 16.6183C63.5367 17.1146 63.7847 17.6773 63.7847 18.3063C63.7847 19.0046 63.5483 19.5904 63.0754 20.0636C62.6026 20.5368 61.8904 20.7734 60.939 20.7734C60.172 20.7734 59.5204 20.5166 58.9841 20.003C58.9149 20.0723 58.8544 20.1386 58.8025 20.2021C58.7506 20.2598 58.7131 20.3002 58.69 20.3233C58.6727 20.3464 58.6612 20.3666 58.6554 20.3839C58.6497 20.3954 58.641 20.407 58.6295 20.4185C58.3931 20.6551 58.246 20.7734 58.1884 20.7734C58.0961 20.7734 58.0413 20.7417 58.024 20.6782C58.0067 20.6205 57.9981 20.508 57.9981 20.3406Z"/>
<path d="M64.9524 20.5743V20.029C65.5809 20.029 65.9673 19.9915 66.1115 19.9164C66.2556 19.8356 66.3277 19.6048 66.3277 19.2239V10.0047C66.3277 9.56614 66.2498 9.29202 66.0942 9.18237C65.9442 9.07272 65.5636 9.0179 64.9524 9.0179V8.46388L67.4954 8.27344V14.4369H67.5127C67.703 14.0098 68.0115 13.6203 68.4382 13.2682C68.8649 12.9162 69.407 12.7402 70.0643 12.7402C70.9524 12.7402 71.5723 12.9595 71.924 13.3981C72.1835 13.6924 72.3392 14.004 72.3911 14.333C72.4488 14.6619 72.4776 15.2535 72.4776 16.1076V19.4923C72.4891 19.7404 72.59 19.8934 72.7803 19.9511C72.9706 20.003 73.331 20.029 73.8615 20.029V20.5743C72.6564 20.5397 71.9932 20.5224 71.8721 20.5224C71.7799 20.5224 71.1138 20.5397 69.8741 20.5743V20.029C70.5026 20.029 70.8889 19.9915 71.0331 19.9164C71.183 19.8356 71.258 19.6048 71.258 19.2239V15.0948C71.258 14.4946 71.1657 14.0185 70.9812 13.6664C70.7967 13.3086 70.4507 13.1297 69.9432 13.1297C69.332 13.1297 68.7813 13.3865 68.2912 13.9002C67.801 14.4138 67.5559 15.1034 67.5559 15.9691V19.2239C67.5559 19.6048 67.628 19.8356 67.7722 19.9164C67.9221 19.9915 68.3085 20.029 68.9312 20.029V20.5743C67.7261 20.5397 67.0658 20.5224 66.9505 20.5224C66.8582 20.5224 66.1922 20.5397 64.9524 20.5743Z"/>
<path d="M74.1989 9.0179V8.46388L76.7505 8.27344V13.8915C77.4367 13.124 78.2469 12.7402 79.1811 12.7402C80.196 12.7402 81.0754 13.1297 81.8192 13.9088C82.5631 14.6879 82.935 15.6344 82.935 16.7482C82.935 17.8735 82.5458 18.8257 81.7673 19.6048C80.9889 20.3839 80.0605 20.7734 78.9821 20.7734C78.0018 20.7734 77.2291 20.3406 76.664 19.475C76.2489 20.1963 76.0355 20.5628 76.024 20.5743H75.5828V10.0047C75.5828 9.56614 75.505 9.29202 75.3493 9.18237C75.1936 9.07272 74.8101 9.0179 74.1989 9.0179ZM76.8024 18.5574C76.8024 18.8055 76.886 19.0537 77.0533 19.3018C77.5203 20.0174 78.1345 20.3752 78.8956 20.3752C78.9014 20.3752 78.9072 20.3752 78.9129 20.3752C79.7375 20.3752 80.4065 19.9972 80.9197 19.2412C81.283 18.6757 81.4646 17.8389 81.4646 16.7308C81.4646 15.6344 81.2945 14.812 80.9543 14.2637C80.4814 13.5077 79.8615 13.1297 79.0946 13.1297C78.2296 13.1297 77.5319 13.5077 77.0014 14.2637C76.8687 14.4542 76.8024 14.6677 76.8024 14.9043V18.5574Z"/>
<path d="M85.6943 19.6221C84.9158 18.8488 84.5266 17.9024 84.5266 16.7828C84.5266 15.6574 84.9072 14.685 85.6683 13.8655C86.4353 13.0403 87.3665 12.6277 88.4622 12.6277C89.5347 12.6277 90.4545 13.0374 91.2214 13.8569C91.9941 14.6706 92.3805 15.6459 92.3805 16.7828C92.3805 17.8966 91.9912 18.8401 91.2128 19.6135C90.4401 20.3868 89.5174 20.7734 88.4449 20.7734C87.3954 20.7734 86.4785 20.3897 85.6943 19.6221ZM85.997 16.6356C85.997 17.7841 86.1469 18.618 86.4468 19.1374C86.9081 19.928 87.5799 20.3233 88.4622 20.3233C88.9004 20.3233 89.3012 20.205 89.6645 19.9684C90.0335 19.7318 90.319 19.4144 90.5208 19.0162C90.7803 18.4968 90.91 17.7033 90.91 16.6356C90.91 15.4987 90.7543 14.6793 90.4429 14.1772C89.9816 13.4096 89.3156 13.0259 88.4449 13.0259C88.0643 13.0259 87.6866 13.1269 87.3118 13.3288C86.9427 13.5251 86.6457 13.8194 86.4208 14.2118C86.1383 14.7312 85.997 15.5391 85.997 16.6356Z"/>
<path d="M93.2281 13.4847V13.0951C93.7702 13.072 94.22 12.87 94.5775 12.4892C94.9408 12.1025 95.183 11.6726 95.304 11.1993C95.4309 10.7261 95.5001 10.2154 95.5116 9.66714H95.9528V12.9306H98.4871V13.4847H95.9528V18.4102C95.9528 19.6856 96.3507 20.3233 97.1464 20.3233C97.4866 20.3233 97.7692 20.1502 97.9941 19.8039C98.219 19.4519 98.3314 18.9642 98.3314 18.341V17.3628H98.7726V18.3756C98.7726 19.0162 98.6255 19.576 98.3314 20.0549C98.0373 20.5339 97.5991 20.7734 97.0167 20.7734C96.8033 20.7734 96.59 20.7446 96.3766 20.6869C96.169 20.6349 95.9268 20.5397 95.65 20.4012C95.379 20.2569 95.157 20.0117 94.984 19.6654C94.8168 19.3134 94.7332 18.8834 94.7332 18.3756V13.4847H93.2281Z"/>
<path d="M100.347 20.3406V18.0034C100.347 17.8706 100.35 17.7812 100.355 17.735C100.361 17.6888 100.381 17.6484 100.416 17.6138C100.451 17.5792 100.502 17.5619 100.572 17.5619C100.652 17.5619 100.707 17.5792 100.736 17.6138C100.771 17.6484 100.799 17.7321 100.823 17.8648C101.001 18.6786 101.281 19.3018 101.662 19.7347C102.048 20.1617 102.59 20.3752 103.288 20.3752C103.951 20.3752 104.45 20.2281 104.784 19.9338C105.119 19.6394 105.286 19.2499 105.286 18.7651C105.286 17.8995 104.672 17.357 103.443 17.1377C102.734 16.9934 102.232 16.8751 101.938 16.7828C101.644 16.6847 101.367 16.5289 101.108 16.3153C100.601 15.8998 100.347 15.3977 100.347 14.8091C100.347 14.2205 100.569 13.7097 101.013 13.2769C101.463 12.8441 102.183 12.6277 103.175 12.6277C103.838 12.6277 104.395 12.795 104.845 13.1297C104.977 13.0259 105.078 12.9306 105.147 12.8441C105.303 12.6998 105.421 12.6277 105.502 12.6277C105.594 12.6277 105.649 12.6594 105.666 12.7229C105.684 12.7806 105.692 12.8931 105.692 13.0605V14.8437C105.692 14.9765 105.689 15.0659 105.684 15.1121C105.678 15.1582 105.658 15.1986 105.623 15.2333C105.588 15.2621 105.534 15.2766 105.459 15.2766C105.326 15.2766 105.257 15.2217 105.251 15.1121C105.159 13.6809 104.467 12.9653 103.175 12.9653C102.477 12.9653 101.973 13.1009 101.662 13.3721C101.35 13.6376 101.194 13.9521 101.194 14.3157C101.194 14.5177 101.241 14.6966 101.333 14.8524C101.431 15.0024 101.54 15.1236 101.662 15.216C101.788 15.3025 101.967 15.3891 102.198 15.4757C102.428 15.5564 102.613 15.6113 102.751 15.6401C102.896 15.669 103.103 15.7123 103.374 15.77C104.32 15.9489 104.992 16.2317 105.39 16.6183C105.885 17.1146 106.133 17.6773 106.133 18.3063C106.133 19.0046 105.897 19.5904 105.424 20.0636C104.951 20.5368 104.239 20.7734 103.288 20.7734C102.521 20.7734 101.869 20.5166 101.333 20.003C101.264 20.0723 101.203 20.1386 101.151 20.2021C101.099 20.2598 101.062 20.3002 101.039 20.3233C101.021 20.3464 101.01 20.3666 101.004 20.3839C100.998 20.3954 100.99 20.407 100.978 20.4185C100.742 20.6551 100.595 20.7734 100.537 20.7734C100.445 20.7734 100.39 20.7417 100.373 20.6782C100.355 20.6205 100.347 20.508 100.347 20.3406Z"/>
</mask>
<path d="M32.6719 20.5743V20.029H33.0957C33.7358 20.029 34.1279 19.977 34.2721 19.8732C34.422 19.7635 34.497 19.5356 34.497 19.1893V9.90086C34.497 9.56037 34.422 9.33819 34.2721 9.23431C34.1221 9.12466 33.73 9.06984 33.0957 9.06984H32.6719V8.51582H42.3941L42.8871 12.5065H42.446C42.3653 11.8313 42.2701 11.3032 42.1605 10.9223C42.0568 10.5357 41.8838 10.1894 41.6416 9.88355C41.3994 9.57768 41.0736 9.36704 40.6642 9.25162C40.2605 9.13043 39.7271 9.06984 39.064 9.06984H36.9362C36.5325 9.06984 36.2874 9.11312 36.2009 9.19968C36.1144 9.28048 36.0712 9.47381 36.0712 9.77967V14.2637H37.5935C38.3951 14.2637 38.9083 14.1195 39.1332 13.8309C39.3581 13.5424 39.4705 12.9941 39.4705 12.1862H39.9116V16.8867H39.4705C39.4705 16.073 39.3581 15.5247 39.1332 15.2419C38.9083 14.9534 38.3951 14.8091 37.5935 14.8091H36.0712V19.172C36.0712 19.4201 36.0914 19.5933 36.1317 19.6914C36.1721 19.7837 36.3163 19.8645 36.5642 19.9338C36.8122 19.9972 37.2072 20.029 37.7492 20.029H38.3374V20.5743C37.9107 20.5397 36.9189 20.5224 35.3619 20.5224C33.9837 20.5224 33.0871 20.5397 32.6719 20.5743Z" fill="black"/>
<path d="M44.2278 20.5743V20.029C44.8564 20.029 45.2427 19.9915 45.3869 19.9164C45.531 19.8356 45.6031 19.6048 45.6031 19.2239V10.0047C45.6031 9.56614 45.5253 9.29202 45.3696 9.18237C45.2196 9.07272 44.8391 9.0179 44.2278 9.0179V8.46388L46.7708 8.27344V19.2239C46.7708 19.6048 46.8458 19.8356 46.9957 19.9164C47.1456 19.9915 47.532 20.029 48.1548 20.029V20.5743C48.0106 20.5743 47.7886 20.5686 47.4887 20.557C47.1889 20.5455 46.9294 20.5368 46.7103 20.5311C46.4911 20.5253 46.3182 20.5224 46.1913 20.5224C46.0529 20.5224 45.3984 20.5397 44.2278 20.5743Z" fill="black"/>
<path d="M49.2965 18.8863C49.2965 17.8822 49.8876 17.1146 51.0697 16.5837C51.779 16.2432 52.8659 16.0297 54.3306 15.9431V15.2939C54.3306 14.5609 54.1374 14.0012 53.7511 13.6145C53.3705 13.2221 52.938 13.0259 52.4536 13.0259C51.5887 13.0259 50.9486 13.2971 50.5334 13.8396C50.8852 13.8511 51.1245 13.9463 51.2513 14.1252C51.3782 14.2984 51.4416 14.4744 51.4416 14.6533C51.4416 14.8899 51.3667 15.0861 51.2167 15.2419C51.0726 15.392 50.8765 15.467 50.6286 15.467C50.3921 15.467 50.1961 15.3949 50.0404 15.2506C49.8847 15.1005 49.8068 14.8957 49.8068 14.636C49.8068 14.0589 50.0663 13.5799 50.5853 13.199C51.1101 12.8181 51.7444 12.6277 52.4882 12.6277C53.457 12.6277 54.2643 12.9537 54.9101 13.6058C55.112 13.8078 55.2619 14.0387 55.3599 14.2984C55.4637 14.5581 55.5214 14.7745 55.5329 14.9476C55.5445 15.115 55.5502 15.366 55.5502 15.7007V19.2412C55.5502 19.3105 55.5618 19.4028 55.5848 19.5182C55.6079 19.6337 55.6713 19.7664 55.7751 19.9164C55.8847 20.0607 56.0288 20.1329 56.2076 20.1329C56.6343 20.1329 56.8448 19.7549 56.839 18.9989V18.0034H57.2888V18.9989C57.2888 19.6279 57.1216 20.0665 56.7871 20.3146C56.4584 20.557 56.1413 20.6782 55.8357 20.6782C55.4435 20.6782 55.1235 20.5339 54.8755 20.2454C54.6276 19.9568 54.4863 19.6164 54.4517 19.2239C54.273 19.6741 53.9789 20.0463 53.5694 20.3406C53.1658 20.6292 52.6872 20.7734 52.1336 20.7734C51.7069 20.7734 51.2917 20.7186 50.8881 20.609C50.4902 20.5051 50.124 20.306 49.7895 20.0117C49.4609 19.7116 49.2965 19.3365 49.2965 18.8863ZM50.6632 18.869C50.6632 19.3076 50.8189 19.6683 51.1302 19.9511C51.4416 20.2338 51.8165 20.3752 52.2547 20.3752C52.7506 20.3752 53.2206 20.1848 53.6646 19.8039C54.1086 19.4173 54.3306 18.8459 54.3306 18.0899V16.3153C53.0216 16.3615 52.0817 16.6472 51.5108 17.1723C50.9457 17.6917 50.6632 18.2573 50.6632 18.869Z" fill="black"/>
<path d="M57.9981 20.3406V18.0034C57.9981 17.8706 58.001 17.7812 58.0067 17.735C58.0125 17.6888 58.0327 17.6484 58.0673 17.6138C58.1019 17.5792 58.1538 17.5619 58.223 17.5619C58.3037 17.5619 58.3585 17.5792 58.3873 17.6138C58.4219 17.6484 58.4507 17.7321 58.4738 17.8648C58.6526 18.6786 58.9322 19.3018 59.3128 19.7347C59.6992 20.1617 60.2412 20.3752 60.939 20.3752C61.6021 20.3752 62.1009 20.2281 62.4353 19.9338C62.7698 19.6394 62.937 19.2499 62.937 18.7651C62.937 17.8995 62.3229 17.357 61.0946 17.1377C60.3854 16.9934 59.8837 16.8751 59.5896 16.7828C59.2955 16.6847 59.0187 16.5289 58.7592 16.3153C58.2518 15.8998 57.9981 15.3977 57.9981 14.8091C57.9981 14.2205 58.2201 13.7097 58.6641 13.2769C59.1139 12.8441 59.8347 12.6277 60.8265 12.6277C61.4897 12.6277 62.0461 12.795 62.4959 13.1297C62.6285 13.0259 62.7294 12.9306 62.7986 12.8441C62.9543 12.6998 63.0725 12.6277 63.1533 12.6277C63.2455 12.6277 63.3003 12.6594 63.3176 12.7229C63.3349 12.7806 63.3436 12.8931 63.3436 13.0605V14.8437C63.3436 14.9765 63.3407 15.0659 63.3349 15.1121C63.3291 15.1582 63.309 15.1986 63.2744 15.2333C63.2398 15.2621 63.185 15.2766 63.11 15.2766C62.9774 15.2766 62.9082 15.2217 62.9024 15.1121C62.8102 13.6809 62.1182 12.9653 60.8265 12.9653C60.1288 12.9653 59.6242 13.1009 59.3128 13.3721C59.0014 13.6376 58.8457 13.9521 58.8457 14.3157C58.8457 14.5177 58.8919 14.6966 58.9841 14.8524C59.0822 15.0024 59.1917 15.1236 59.3128 15.216C59.4397 15.3025 59.6184 15.3891 59.8491 15.4757C60.0798 15.5564 60.2643 15.6113 60.4027 15.6401C60.5468 15.669 60.7544 15.7123 61.0255 15.77C61.9711 15.9489 62.6429 16.2317 63.0408 16.6183C63.5367 17.1146 63.7847 17.6773 63.7847 18.3063C63.7847 19.0046 63.5483 19.5904 63.0754 20.0636C62.6026 20.5368 61.8904 20.7734 60.939 20.7734C60.172 20.7734 59.5204 20.5166 58.9841 20.003C58.9149 20.0723 58.8544 20.1386 58.8025 20.2021C58.7506 20.2598 58.7131 20.3002 58.69 20.3233C58.6727 20.3464 58.6612 20.3666 58.6554 20.3839C58.6497 20.3954 58.641 20.407 58.6295 20.4185C58.3931 20.6551 58.246 20.7734 58.1884 20.7734C58.0961 20.7734 58.0413 20.7417 58.024 20.6782C58.0067 20.6205 57.9981 20.508 57.9981 20.3406Z" fill="black"/>
<path d="M64.9524 20.5743V20.029C65.5809 20.029 65.9673 19.9915 66.1115 19.9164C66.2556 19.8356 66.3277 19.6048 66.3277 19.2239V10.0047C66.3277 9.56614 66.2498 9.29202 66.0942 9.18237C65.9442 9.07272 65.5636 9.0179 64.9524 9.0179V8.46388L67.4954 8.27344V14.4369H67.5127C67.703 14.0098 68.0115 13.6203 68.4382 13.2682C68.8649 12.9162 69.407 12.7402 70.0643 12.7402C70.9524 12.7402 71.5723 12.9595 71.924 13.3981C72.1835 13.6924 72.3392 14.004 72.3911 14.333C72.4488 14.6619 72.4776 15.2535 72.4776 16.1076V19.4923C72.4891 19.7404 72.59 19.8934 72.7803 19.9511C72.9706 20.003 73.331 20.029 73.8615 20.029V20.5743C72.6564 20.5397 71.9932 20.5224 71.8721 20.5224C71.7799 20.5224 71.1138 20.5397 69.8741 20.5743V20.029C70.5026 20.029 70.8889 19.9915 71.0331 19.9164C71.183 19.8356 71.258 19.6048 71.258 19.2239V15.0948C71.258 14.4946 71.1657 14.0185 70.9812 13.6664C70.7967 13.3086 70.4507 13.1297 69.9432 13.1297C69.332 13.1297 68.7813 13.3865 68.2912 13.9002C67.801 14.4138 67.5559 15.1034 67.5559 15.9691V19.2239C67.5559 19.6048 67.628 19.8356 67.7722 19.9164C67.9221 19.9915 68.3085 20.029 68.9312 20.029V20.5743C67.7261 20.5397 67.0658 20.5224 66.9505 20.5224C66.8582 20.5224 66.1922 20.5397 64.9524 20.5743Z" fill="black"/>
<path d="M74.1989 9.0179V8.46388L76.7505 8.27344V13.8915C77.4367 13.124 78.2469 12.7402 79.1811 12.7402C80.196 12.7402 81.0754 13.1297 81.8192 13.9088C82.5631 14.6879 82.935 15.6344 82.935 16.7482C82.935 17.8735 82.5458 18.8257 81.7673 19.6048C80.9889 20.3839 80.0605 20.7734 78.9821 20.7734C78.0018 20.7734 77.2291 20.3406 76.664 19.475C76.2489 20.1963 76.0355 20.5628 76.024 20.5743H75.5828V10.0047C75.5828 9.56614 75.505 9.29202 75.3493 9.18237C75.1936 9.07272 74.8101 9.0179 74.1989 9.0179ZM76.8024 18.5574C76.8024 18.8055 76.886 19.0537 77.0533 19.3018C77.5203 20.0174 78.1345 20.3752 78.8956 20.3752C78.9014 20.3752 78.9072 20.3752 78.9129 20.3752C79.7375 20.3752 80.4065 19.9972 80.9197 19.2412C81.283 18.6757 81.4646 17.8389 81.4646 16.7308C81.4646 15.6344 81.2945 14.812 80.9543 14.2637C80.4814 13.5077 79.8615 13.1297 79.0946 13.1297C78.2296 13.1297 77.5319 13.5077 77.0014 14.2637C76.8687 14.4542 76.8024 14.6677 76.8024 14.9043V18.5574Z" fill="black"/>
<path d="M85.6943 19.6221C84.9158 18.8488 84.5266 17.9024 84.5266 16.7828C84.5266 15.6574 84.9072 14.685 85.6683 13.8655C86.4353 13.0403 87.3665 12.6277 88.4622 12.6277C89.5347 12.6277 90.4545 13.0374 91.2214 13.8569C91.9941 14.6706 92.3805 15.6459 92.3805 16.7828C92.3805 17.8966 91.9912 18.8401 91.2128 19.6135C90.4401 20.3868 89.5174 20.7734 88.4449 20.7734C87.3954 20.7734 86.4785 20.3897 85.6943 19.6221ZM85.997 16.6356C85.997 17.7841 86.1469 18.618 86.4468 19.1374C86.9081 19.928 87.5799 20.3233 88.4622 20.3233C88.9004 20.3233 89.3012 20.205 89.6645 19.9684C90.0335 19.7318 90.319 19.4144 90.5208 19.0162C90.7803 18.4968 90.91 17.7033 90.91 16.6356C90.91 15.4987 90.7543 14.6793 90.4429 14.1772C89.9816 13.4096 89.3156 13.0259 88.4449 13.0259C88.0643 13.0259 87.6866 13.1269 87.3118 13.3288C86.9427 13.5251 86.6457 13.8194 86.4208 14.2118C86.1383 14.7312 85.997 15.5391 85.997 16.6356Z" fill="black"/>
<path d="M93.2281 13.4847V13.0951C93.7702 13.072 94.22 12.87 94.5775 12.4892C94.9408 12.1025 95.183 11.6726 95.304 11.1993C95.4309 10.7261 95.5001 10.2154 95.5116 9.66714H95.9528V12.9306H98.4871V13.4847H95.9528V18.4102C95.9528 19.6856 96.3507 20.3233 97.1464 20.3233C97.4866 20.3233 97.7692 20.1502 97.9941 19.8039C98.219 19.4519 98.3314 18.9642 98.3314 18.341V17.3628H98.7726V18.3756C98.7726 19.0162 98.6255 19.576 98.3314 20.0549C98.0373 20.5339 97.5991 20.7734 97.0167 20.7734C96.8033 20.7734 96.59 20.7446 96.3766 20.6869C96.169 20.6349 95.9268 20.5397 95.65 20.4012C95.379 20.2569 95.157 20.0117 94.984 19.6654C94.8168 19.3134 94.7332 18.8834 94.7332 18.3756V13.4847H93.2281Z" fill="black"/>
<path d="M100.347 20.3406V18.0034C100.347 17.8706 100.35 17.7812 100.355 17.735C100.361 17.6888 100.381 17.6484 100.416 17.6138C100.451 17.5792 100.502 17.5619 100.572 17.5619C100.652 17.5619 100.707 17.5792 100.736 17.6138C100.771 17.6484 100.799 17.7321 100.823 17.8648C101.001 18.6786 101.281 19.3018 101.662 19.7347C102.048 20.1617 102.59 20.3752 103.288 20.3752C103.951 20.3752 104.45 20.2281 104.784 19.9338C105.119 19.6394 105.286 19.2499 105.286 18.7651C105.286 17.8995 104.672 17.357 103.443 17.1377C102.734 16.9934 102.232 16.8751 101.938 16.7828C101.644 16.6847 101.367 16.5289 101.108 16.3153C100.601 15.8998 100.347 15.3977 100.347 14.8091C100.347 14.2205 100.569 13.7097 101.013 13.2769C101.463 12.8441 102.183 12.6277 103.175 12.6277C103.838 12.6277 104.395 12.795 104.845 13.1297C104.977 13.0259 105.078 12.9306 105.147 12.8441C105.303 12.6998 105.421 12.6277 105.502 12.6277C105.594 12.6277 105.649 12.6594 105.666 12.7229C105.684 12.7806 105.692 12.8931 105.692 13.0605V14.8437C105.692 14.9765 105.689 15.0659 105.684 15.1121C105.678 15.1582 105.658 15.1986 105.623 15.2333C105.588 15.2621 105.534 15.2766 105.459 15.2766C105.326 15.2766 105.257 15.2217 105.251 15.1121C105.159 13.6809 104.467 12.9653 103.175 12.9653C102.477 12.9653 101.973 13.1009 101.662 13.3721C101.35 13.6376 101.194 13.9521 101.194 14.3157C101.194 14.5177 101.241 14.6966 101.333 14.8524C101.431 15.0024 101.54 15.1236 101.662 15.216C101.788 15.3025 101.967 15.3891 102.198 15.4757C102.428 15.5564 102.613 15.6113 102.751 15.6401C102.896 15.669 103.103 15.7123 103.374 15.77C104.32 15.9489 104.992 16.2317 105.39 16.6183C105.885 17.1146 106.133 17.6773 106.133 18.3063C106.133 19.0046 105.897 19.5904 105.424 20.0636C104.951 20.5368 104.239 20.7734 103.288 20.7734C102.521 20.7734 101.869 20.5166 101.333 20.003C101.264 20.0723 101.203 20.1386 101.151 20.2021C101.099 20.2598 101.062 20.3002 101.039 20.3233C101.021 20.3464 101.01 20.3666 101.004 20.3839C100.998 20.3954 100.99 20.407 100.978 20.4185C100.742 20.6551 100.595 20.7734 100.537 20.7734C100.445 20.7734 100.39 20.7417 100.373 20.6782C100.355 20.6205 100.347 20.508 100.347 20.3406Z" fill="black"/>
<path d="M32.6719 20.5743V20.029H33.0957C33.7358 20.029 34.1279 19.977 34.2721 19.8732C34.422 19.7635 34.497 19.5356 34.497 19.1893V9.90086C34.497 9.56037 34.422 9.33819 34.2721 9.23431C34.1221 9.12466 33.73 9.06984 33.0957 9.06984H32.6719V8.51582H42.3941L42.8871 12.5065H42.446C42.3653 11.8313 42.2701 11.3032 42.1605 10.9223C42.0568 10.5357 41.8838 10.1894 41.6416 9.88355C41.3994 9.57768 41.0736 9.36704 40.6642 9.25162C40.2605 9.13043 39.7271 9.06984 39.064 9.06984H36.9362C36.5325 9.06984 36.2874 9.11312 36.2009 9.19968C36.1144 9.28048 36.0712 9.47381 36.0712 9.77967V14.2637H37.5935C38.3951 14.2637 38.9083 14.1195 39.1332 13.8309C39.3581 13.5424 39.4705 12.9941 39.4705 12.1862H39.9116V16.8867H39.4705C39.4705 16.073 39.3581 15.5247 39.1332 15.2419C38.9083 14.9534 38.3951 14.8091 37.5935 14.8091H36.0712V19.172C36.0712 19.4201 36.0914 19.5933 36.1317 19.6914C36.1721 19.7837 36.3163 19.8645 36.5642 19.9338C36.8122 19.9972 37.2072 20.029 37.7492 20.029H38.3374V20.5743C37.9107 20.5397 36.9189 20.5224 35.3619 20.5224C33.9837 20.5224 33.0871 20.5397 32.6719 20.5743Z" stroke="black" stroke-width="0.208333" mask="url(#path-15-outside-1_527_7214)"/>
<path d="M44.2278 20.5743V20.029C44.8564 20.029 45.2427 19.9915 45.3869 19.9164C45.531 19.8356 45.6031 19.6048 45.6031 19.2239V10.0047C45.6031 9.56614 45.5253 9.29202 45.3696 9.18237C45.2196 9.07272 44.8391 9.0179 44.2278 9.0179V8.46388L46.7708 8.27344V19.2239C46.7708 19.6048 46.8458 19.8356 46.9957 19.9164C47.1456 19.9915 47.532 20.029 48.1548 20.029V20.5743C48.0106 20.5743 47.7886 20.5686 47.4887 20.557C47.1889 20.5455 46.9294 20.5368 46.7103 20.5311C46.4911 20.5253 46.3182 20.5224 46.1913 20.5224C46.0529 20.5224 45.3984 20.5397 44.2278 20.5743Z" stroke="black" stroke-width="0.208333" mask="url(#path-15-outside-1_527_7214)"/>
<path d="M49.2965 18.8863C49.2965 17.8822 49.8876 17.1146 51.0697 16.5837C51.779 16.2432 52.8659 16.0297 54.3306 15.9431V15.2939C54.3306 14.5609 54.1374 14.0012 53.7511 13.6145C53.3705 13.2221 52.938 13.0259 52.4536 13.0259C51.5887 13.0259 50.9486 13.2971 50.5334 13.8396C50.8852 13.8511 51.1245 13.9463 51.2513 14.1252C51.3782 14.2984 51.4416 14.4744 51.4416 14.6533C51.4416 14.8899 51.3667 15.0861 51.2167 15.2419C51.0726 15.392 50.8765 15.467 50.6286 15.467C50.3921 15.467 50.1961 15.3949 50.0404 15.2506C49.8847 15.1005 49.8068 14.8957 49.8068 14.636C49.8068 14.0589 50.0663 13.5799 50.5853 13.199C51.1101 12.8181 51.7444 12.6277 52.4882 12.6277C53.457 12.6277 54.2643 12.9537 54.9101 13.6058C55.112 13.8078 55.2619 14.0387 55.3599 14.2984C55.4637 14.5581 55.5214 14.7745 55.5329 14.9476C55.5445 15.115 55.5502 15.366 55.5502 15.7007V19.2412C55.5502 19.3105 55.5618 19.4028 55.5848 19.5182C55.6079 19.6337 55.6713 19.7664 55.7751 19.9164C55.8847 20.0607 56.0288 20.1329 56.2076 20.1329C56.6343 20.1329 56.8448 19.7549 56.839 18.9989V18.0034H57.2888V18.9989C57.2888 19.6279 57.1216 20.0665 56.7871 20.3146C56.4584 20.557 56.1413 20.6782 55.8357 20.6782C55.4435 20.6782 55.1235 20.5339 54.8755 20.2454C54.6276 19.9568 54.4863 19.6164 54.4517 19.2239C54.273 19.6741 53.9789 20.0463 53.5694 20.3406C53.1658 20.6292 52.6872 20.7734 52.1336 20.7734C51.7069 20.7734 51.2917 20.7186 50.8881 20.609C50.4902 20.5051 50.124 20.306 49.7895 20.0117C49.4609 19.7116 49.2965 19.3365 49.2965 18.8863ZM50.6632 18.869C50.6632 19.3076 50.8189 19.6683 51.1302 19.9511C51.4416 20.2338 51.8165 20.3752 52.2547 20.3752C52.7506 20.3752 53.2206 20.1848 53.6646 19.8039C54.1086 19.4173 54.3306 18.8459 54.3306 18.0899V16.3153C53.0216 16.3615 52.0817 16.6472 51.5108 17.1723C50.9457 17.6917 50.6632 18.2573 50.6632 18.869Z" stroke="black" stroke-width="0.208333" mask="url(#path-15-outside-1_527_7214)"/>
<path d="M57.9981 20.3406V18.0034C57.9981 17.8706 58.001 17.7812 58.0067 17.735C58.0125 17.6888 58.0327 17.6484 58.0673 17.6138C58.1019 17.5792 58.1538 17.5619 58.223 17.5619C58.3037 17.5619 58.3585 17.5792 58.3873 17.6138C58.4219 17.6484 58.4507 17.7321 58.4738 17.8648C58.6526 18.6786 58.9322 19.3018 59.3128 19.7347C59.6992 20.1617 60.2412 20.3752 60.939 20.3752C61.6021 20.3752 62.1009 20.2281 62.4353 19.9338C62.7698 19.6394 62.937 19.2499 62.937 18.7651C62.937 17.8995 62.3229 17.357 61.0946 17.1377C60.3854 16.9934 59.8837 16.8751 59.5896 16.7828C59.2955 16.6847 59.0187 16.5289 58.7592 16.3153C58.2518 15.8998 57.9981 15.3977 57.9981 14.8091C57.9981 14.2205 58.2201 13.7097 58.6641 13.2769C59.1139 12.8441 59.8347 12.6277 60.8265 12.6277C61.4897 12.6277 62.0461 12.795 62.4959 13.1297C62.6285 13.0259 62.7294 12.9306 62.7986 12.8441C62.9543 12.6998 63.0725 12.6277 63.1533 12.6277C63.2455 12.6277 63.3003 12.6594 63.3176 12.7229C63.3349 12.7806 63.3436 12.8931 63.3436 13.0605V14.8437C63.3436 14.9765 63.3407 15.0659 63.3349 15.1121C63.3291 15.1582 63.309 15.1986 63.2744 15.2333C63.2398 15.2621 63.185 15.2766 63.11 15.2766C62.9774 15.2766 62.9082 15.2217 62.9024 15.1121C62.8102 13.6809 62.1182 12.9653 60.8265 12.9653C60.1288 12.9653 59.6242 13.1009 59.3128 13.3721C59.0014 13.6376 58.8457 13.9521 58.8457 14.3157C58.8457 14.5177 58.8919 14.6966 58.9841 14.8524C59.0822 15.0024 59.1917 15.1236 59.3128 15.216C59.4397 15.3025 59.6184 15.3891 59.8491 15.4757C60.0798 15.5564 60.2643 15.6113 60.4027 15.6401C60.5468 15.669 60.7544 15.7123 61.0255 15.77C61.9711 15.9489 62.6429 16.2317 63.0408 16.6183C63.5367 17.1146 63.7847 17.6773 63.7847 18.3063C63.7847 19.0046 63.5483 19.5904 63.0754 20.0636C62.6026 20.5368 61.8904 20.7734 60.939 20.7734C60.172 20.7734 59.5204 20.5166 58.9841 20.003C58.9149 20.0723 58.8544 20.1386 58.8025 20.2021C58.7506 20.2598 58.7131 20.3002 58.69 20.3233C58.6727 20.3464 58.6612 20.3666 58.6554 20.3839C58.6497 20.3954 58.641 20.407 58.6295 20.4185C58.3931 20.6551 58.246 20.7734 58.1884 20.7734C58.0961 20.7734 58.0413 20.7417 58.024 20.6782C58.0067 20.6205 57.9981 20.508 57.9981 20.3406Z" stroke="black" stroke-width="0.208333" mask="url(#path-15-outside-1_527_7214)"/>
<path d="M64.9524 20.5743V20.029C65.5809 20.029 65.9673 19.9915 66.1115 19.9164C66.2556 19.8356 66.3277 19.6048 66.3277 19.2239V10.0047C66.3277 9.56614 66.2498 9.29202 66.0942 9.18237C65.9442 9.07272 65.5636 9.0179 64.9524 9.0179V8.46388L67.4954 8.27344V14.4369H67.5127C67.703 14.0098 68.0115 13.6203 68.4382 13.2682C68.8649 12.9162 69.407 12.7402 70.0643 12.7402C70.9524 12.7402 71.5723 12.9595 71.924 13.3981C72.1835 13.6924 72.3392 14.004 72.3911 14.333C72.4488 14.6619 72.4776 15.2535 72.4776 16.1076V19.4923C72.4891 19.7404 72.59 19.8934 72.7803 19.9511C72.9706 20.003 73.331 20.029 73.8615 20.029V20.5743C72.6564 20.5397 71.9932 20.5224 71.8721 20.5224C71.7799 20.5224 71.1138 20.5397 69.8741 20.5743V20.029C70.5026 20.029 70.8889 19.9915 71.0331 19.9164C71.183 19.8356 71.258 19.6048 71.258 19.2239V15.0948C71.258 14.4946 71.1657 14.0185 70.9812 13.6664C70.7967 13.3086 70.4507 13.1297 69.9432 13.1297C69.332 13.1297 68.7813 13.3865 68.2912 13.9002C67.801 14.4138 67.5559 15.1034 67.5559 15.9691V19.2239C67.5559 19.6048 67.628 19.8356 67.7722 19.9164C67.9221 19.9915 68.3085 20.029 68.9312 20.029V20.5743C67.7261 20.5397 67.0658 20.5224 66.9505 20.5224C66.8582 20.5224 66.1922 20.5397 64.9524 20.5743Z" stroke="black" stroke-width="0.208333" mask="url(#path-15-outside-1_527_7214)"/>
<path d="M74.1989 9.0179V8.46388L76.7505 8.27344V13.8915C77.4367 13.124 78.2469 12.7402 79.1811 12.7402C80.196 12.7402 81.0754 13.1297 81.8192 13.9088C82.5631 14.6879 82.935 15.6344 82.935 16.7482C82.935 17.8735 82.5458 18.8257 81.7673 19.6048C80.9889 20.3839 80.0605 20.7734 78.9821 20.7734C78.0018 20.7734 77.2291 20.3406 76.664 19.475C76.2489 20.1963 76.0355 20.5628 76.024 20.5743H75.5828V10.0047C75.5828 9.56614 75.505 9.29202 75.3493 9.18237C75.1936 9.07272 74.8101 9.0179 74.1989 9.0179ZM76.8024 18.5574C76.8024 18.8055 76.886 19.0537 77.0533 19.3018C77.5203 20.0174 78.1345 20.3752 78.8956 20.3752C78.9014 20.3752 78.9072 20.3752 78.9129 20.3752C79.7375 20.3752 80.4065 19.9972 80.9197 19.2412C81.283 18.6757 81.4646 17.8389 81.4646 16.7308C81.4646 15.6344 81.2945 14.812 80.9543 14.2637C80.4814 13.5077 79.8615 13.1297 79.0946 13.1297C78.2296 13.1297 77.5319 13.5077 77.0014 14.2637C76.8687 14.4542 76.8024 14.6677 76.8024 14.9043V18.5574Z" stroke="black" stroke-width="0.208333" mask="url(#path-15-outside-1_527_7214)"/>
<path d="M85.6943 19.6221C84.9158 18.8488 84.5266 17.9024 84.5266 16.7828C84.5266 15.6574 84.9072 14.685 85.6683 13.8655C86.4353 13.0403 87.3665 12.6277 88.4622 12.6277C89.5347 12.6277 90.4545 13.0374 91.2214 13.8569C91.9941 14.6706 92.3805 15.6459 92.3805 16.7828C92.3805 17.8966 91.9912 18.8401 91.2128 19.6135C90.4401 20.3868 89.5174 20.7734 88.4449 20.7734C87.3954 20.7734 86.4785 20.3897 85.6943 19.6221ZM85.997 16.6356C85.997 17.7841 86.1469 18.618 86.4468 19.1374C86.9081 19.928 87.5799 20.3233 88.4622 20.3233C88.9004 20.3233 89.3012 20.205 89.6645 19.9684C90.0335 19.7318 90.319 19.4144 90.5208 19.0162C90.7803 18.4968 90.91 17.7033 90.91 16.6356C90.91 15.4987 90.7543 14.6793 90.4429 14.1772C89.9816 13.4096 89.3156 13.0259 88.4449 13.0259C88.0643 13.0259 87.6866 13.1269 87.3118 13.3288C86.9427 13.5251 86.6457 13.8194 86.4208 14.2118C86.1383 14.7312 85.997 15.5391 85.997 16.6356Z" stroke="black" stroke-width="0.208333" mask="url(#path-15-outside-1_527_7214)"/>
<path d="M93.2281 13.4847V13.0951C93.7702 13.072 94.22 12.87 94.5775 12.4892C94.9408 12.1025 95.183 11.6726 95.304 11.1993C95.4309 10.7261 95.5001 10.2154 95.5116 9.66714H95.9528V12.9306H98.4871V13.4847H95.9528V18.4102C95.9528 19.6856 96.3507 20.3233 97.1464 20.3233C97.4866 20.3233 97.7692 20.1502 97.9941 19.8039C98.219 19.4519 98.3314 18.9642 98.3314 18.341V17.3628H98.7726V18.3756C98.7726 19.0162 98.6255 19.576 98.3314 20.0549C98.0373 20.5339 97.5991 20.7734 97.0167 20.7734C96.8033 20.7734 96.59 20.7446 96.3766 20.6869C96.169 20.6349 95.9268 20.5397 95.65 20.4012C95.379 20.2569 95.157 20.0117 94.984 19.6654C94.8168 19.3134 94.7332 18.8834 94.7332 18.3756V13.4847H93.2281Z" stroke="black" stroke-width="0.208333" mask="url(#path-15-outside-1_527_7214)"/>
<path d="M100.347 20.3406V18.0034C100.347 17.8706 100.35 17.7812 100.355 17.735C100.361 17.6888 100.381 17.6484 100.416 17.6138C100.451 17.5792 100.502 17.5619 100.572 17.5619C100.652 17.5619 100.707 17.5792 100.736 17.6138C100.771 17.6484 100.799 17.7321 100.823 17.8648C101.001 18.6786 101.281 19.3018 101.662 19.7347C102.048 20.1617 102.59 20.3752 103.288 20.3752C103.951 20.3752 104.45 20.2281 104.784 19.9338C105.119 19.6394 105.286 19.2499 105.286 18.7651C105.286 17.8995 104.672 17.357 103.443 17.1377C102.734 16.9934 102.232 16.8751 101.938 16.7828C101.644 16.6847 101.367 16.5289 101.108 16.3153C100.601 15.8998 100.347 15.3977 100.347 14.8091C100.347 14.2205 100.569 13.7097 101.013 13.2769C101.463 12.8441 102.183 12.6277 103.175 12.6277C103.838 12.6277 104.395 12.795 104.845 13.1297C104.977 13.0259 105.078 12.9306 105.147 12.8441C105.303 12.6998 105.421 12.6277 105.502 12.6277C105.594 12.6277 105.649 12.6594 105.666 12.7229C105.684 12.7806 105.692 12.8931 105.692 13.0605V14.8437C105.692 14.9765 105.689 15.0659 105.684 15.1121C105.678 15.1582 105.658 15.1986 105.623 15.2333C105.588 15.2621 105.534 15.2766 105.459 15.2766C105.326 15.2766 105.257 15.2217 105.251 15.1121C105.159 13.6809 104.467 12.9653 103.175 12.9653C102.477 12.9653 101.973 13.1009 101.662 13.3721C101.35 13.6376 101.194 13.9521 101.194 14.3157C101.194 14.5177 101.241 14.6966 101.333 14.8524C101.431 15.0024 101.54 15.1236 101.662 15.216C101.788 15.3025 101.967 15.3891 102.198 15.4757C102.428 15.5564 102.613 15.6113 102.751 15.6401C102.896 15.669 103.103 15.7123 103.374 15.77C104.32 15.9489 104.992 16.2317 105.39 16.6183C105.885 17.1146 106.133 17.6773 106.133 18.3063C106.133 19.0046 105.897 19.5904 105.424 20.0636C104.951 20.5368 104.239 20.7734 103.288 20.7734C102.521 20.7734 101.869 20.5166 101.333 20.003C101.264 20.0723 101.203 20.1386 101.151 20.2021C101.099 20.2598 101.062 20.3002 101.039 20.3233C101.021 20.3464 101.01 20.3666 101.004 20.3839C100.998 20.3954 100.99 20.407 100.978 20.4185C100.742 20.6551 100.595 20.7734 100.537 20.7734C100.445 20.7734 100.39 20.7417 100.373 20.6782C100.355 20.6205 100.347 20.508 100.347 20.3406Z" stroke="black" stroke-width="0.208333" mask="url(#path-15-outside-1_527_7214)"/>
</svg>
