<svg fill="none" height="25" viewBox="0 0 107 25" width="107" xmlns="http://www.w3.org/2000/svg" xmlns:xlink="http://www.w3.org/1999/xlink"><mask id="a" fill="#000" height="14" maskUnits="userSpaceOnUse" width="75" x="31.6719" y="7.27344"><path d="m31.6719 7.27344h75v14h-75z" fill="#fff"/><path d="m32.6719 20.5743v-.5453h.4238c.6401 0 1.0322-.052 1.1764-.1558.1499-.1097.2249-.3376.2249-.6839v-9.28844c0-.34049-.075-.56267-.2249-.66655-.15-.10965-.5421-.16447-1.1764-.16447h-.4238v-.55402h9.7222l.493 3.99068h-.4411c-.0807-.6752-.1759-1.2033-.2855-1.5842-.1037-.3866-.2767-.7329-.5189-1.03875-.2422-.30587-.568-.51651-.9774-.63193-.4037-.12119-.9371-.18178-1.6002-.18178h-2.1278c-.4037 0-.6488.04328-.7353.12984-.0865.0808-.1297.27413-.1297.57999v4.48403h1.5223c.8016 0 1.3148-.1442 1.5397-.4328.2249-.2885.3373-.8368.3373-1.6447h.4411v4.7005h-.4411c0-.8137-.1124-1.362-.3373-1.6448-.2249-.2885-.7381-.4328-1.5397-.4328h-1.5223v4.3629c0 .2481.0202.4213.0605.5194.0404.0923.1846.1731.4325.2424.248.0634.643.0952 1.185.0952h.5882v.5453c-.4267-.0346-1.4185-.0519-2.9755-.0519-1.3782 0-2.2748.0173-2.69.0519z" fill="#000"/><path d="m44.2278 20.5743v-.5453c.6286 0 1.0149-.0375 1.1591-.1126.1441-.0808.2162-.3116.2162-.6925v-9.2192c0-.43856-.0778-.71268-.2335-.82233-.15-.10965-.5305-.16447-1.1418-.16447v-.55402l2.543-.19044v10.95046c0 .3809.075.6117.2249.6925.1499.0751.5363.1126 1.1591.1126v.5453c-.1442 0-.3662-.0057-.6661-.0173-.2998-.0115-.5593-.0202-.7784-.0259-.2192-.0058-.3921-.0087-.519-.0087-.1384 0-.7929.0173-1.9635.0519z" fill="#000"/><path d="m49.2965 18.8863c0-1.0041.5911-1.7717 1.7732-2.3026.7093-.3405 1.7962-.554 3.2609-.6406v-.6492c0-.733-.1932-1.2927-.5795-1.6794-.3806-.3924-.8131-.5886-1.2975-.5886-.8649 0-1.505.2712-1.9202.8137.3518.0115.5911.1067.7179.2856.1269.1732.1903.3492.1903.5281 0 .2366-.0749.4328-.2249.5886-.1441.1501-.3402.2251-.5881.2251-.2365 0-.4325-.0721-.5882-.2164-.1557-.1501-.2336-.3549-.2336-.6146 0-.5771.2595-1.0561.7785-1.437.5248-.3809 1.1591-.5713 1.9029-.5713.9688 0 1.7761.326 2.4219.9781.2019.202.3518.4329.4498.6926.1038.2597.1615.4761.173.6492.0116.1674.0173.4184.0173.7531v3.5405c0 .0693.0116.1616.0346.277.0231.1155.0865.2482.1903.3982.1096.1443.2537.2165.4325.2165.4267 0 .6372-.378.6314-1.134v-.9955h.4498v.9955c0 .629-.1672 1.0676-.5017 1.3157-.3287.2424-.6458.3636-.9514.3636-.3922 0-.7122-.1443-.9602-.4328-.2479-.2886-.3892-.629-.4238-1.0215-.1787.4502-.4728.8224-.8823 1.1167-.4036.2886-.8822.4328-1.4358.4328-.4267 0-.8419-.0548-1.2455-.1644-.3979-.1039-.7641-.303-1.0986-.5973-.3286-.3001-.493-.6752-.493-1.1254zm1.3667-.0173c0 .4386.1557.7993.467 1.0821.3114.2827.6863.4241 1.1245.4241.4959 0 .9659-.1904 1.4099-.5713.444-.3866.666-.958.666-1.714v-1.7746c-1.309.0462-2.2489.3319-2.8198.857-.5651.5194-.8476 1.085-.8476 1.6967z" fill="#000"/><path d="m57.9981 20.3406v-2.3372c0-.1328.0029-.2222.0086-.2684.0058-.0462.026-.0866.0606-.1212s.0865-.0519.1557-.0519c.0807 0 .1355.0173.1643.0519.0346.0346.0634.1183.0865.251.1788.8138.4584 1.437.839 1.8699.3864.427.9284.6405 1.6262.6405.6631 0 1.1619-.1471 1.4963-.4414.3345-.2944.5017-.6839.5017-1.1687 0-.8656-.6141-1.4081-1.8424-1.6274-.7092-.1443-1.2109-.2626-1.505-.3549-.2941-.0981-.5709-.2539-.8304-.4675-.5074-.4155-.7611-.9176-.7611-1.5062s.222-1.0994.666-1.5322c.4498-.4328 1.1706-.6492 2.1624-.6492.6632 0 1.2196.1673 1.6694.502.1326-.1038.2335-.1991.3027-.2856.1557-.1443.2739-.2164.3547-.2164.0922 0 .147.0317.1643.0952.0173.0577.026.1702.026.3376v1.7832c0 .1328-.0029.2222-.0087.2684-.0058.0461-.0259.0865-.0605.1212-.0346.0288-.0894.0433-.1644.0433-.1326 0-.2018-.0549-.2076-.1645-.0922-1.4312-.7842-2.1468-2.0759-2.1468-.6977 0-1.2023.1356-1.5137.4068-.3114.2655-.4671.58-.4671.9436 0 .202.0462.3809.1384.5367.0981.15.2076.2712.3287.3636.1269.0865.3056.1731.5363.2597.2307.0807.4152.1356.5536.1644.1441.0289.3517.0722.6228.1299.9456.1789 1.6174.4617 2.0153.8483.4959.4963.7439 1.059.7439 1.688 0 .6983-.2364 1.2841-.7093 1.7573-.4728.4732-1.185.7098-2.1364.7098-.767 0-1.4186-.2568-1.9549-.7704-.0692.0693-.1297.1356-.1816.1991-.0519.0577-.0894.0981-.1125.1212-.0173.0231-.0288.0433-.0346.0606-.0057.0115-.0144.0231-.0259.0346-.2364.2366-.3835.3549-.4411.3549-.0923 0-.1471-.0317-.1644-.0952-.0173-.0577-.0259-.1702-.0259-.3376z" fill="#000"/><path d="m64.9524 20.5743v-.5453c.6285 0 1.0149-.0375 1.1591-.1126.1441-.0808.2162-.3116.2162-.6925v-9.2192c0-.43856-.0779-.71268-.2335-.82233-.15-.10965-.5306-.16447-1.1418-.16447v-.55402l2.543-.19044v6.16346h.0173c.1903-.4271.4988-.8166.9255-1.1687.4267-.352.9688-.528 1.6261-.528.8881 0 1.508.2193 1.8597.6579.2595.2943.4152.6059.4671.9349.0577.3289.0865.9205.0865 1.7746v3.3847c.0115.2481.1124.4011.3027.4588.1903.0519.5507.0779 1.0812.0779v.5453c-1.2051-.0346-1.8683-.0519-1.9894-.0519-.0922 0-.7583.0173-1.998.0519v-.5453c.6285 0 1.0148-.0375 1.159-.1126.1499-.0808.2249-.3116.2249-.6925v-4.1291c0-.6002-.0923-1.0763-.2768-1.4284-.1845-.3578-.5305-.5367-1.038-.5367-.6112 0-1.1619.2568-1.652.7705-.4902.5136-.7353 1.2032-.7353 2.0689v3.2548c0 .3809.0721.6117.2163.6925.1499.0751.5363.1126 1.159.1126v.5453c-1.2051-.0346-1.8654-.0519-1.9807-.0519-.0923 0-.7583.0173-1.9981.0519z" fill="#000"/><path d="m74.1989 9.0179v-.55402l2.5516-.19044v5.61806c.6862-.7675 1.4964-1.1513 2.4306-1.1513 1.0149 0 1.8943.3895 2.6381 1.1686.7439.7791 1.1158 1.7256 1.1158 2.8394 0 1.1253-.3892 2.0775-1.1677 2.8566-.7784.7791-1.7068 1.1686-2.7852 1.1686-.9803 0-1.753-.4328-2.3181-1.2984-.4151.7213-.6285 1.0878-.64 1.0993h-.4412v-10.5696c0-.43856-.0778-.71268-.2335-.82233s-.5392-.16447-1.1504-.16447zm2.6035 9.5395c0 .2481.0836.4963.2509.7444.467.7156 1.0812 1.0734 1.8423 1.0734h.0173c.8246 0 1.4936-.378 2.0068-1.134.3633-.5655.5449-1.4023.5449-2.5104 0-1.0964-.1701-1.9188-.5103-2.4671-.4729-.756-1.0928-1.134-1.8597-1.134-.865 0-1.5627.378-2.0932 1.134-.1327.1905-.199.404-.199.6406z" fill="#000"/><path d="m85.6943 19.6221c-.7785-.7733-1.1677-1.7197-1.1677-2.8393 0-1.1254.3806-2.0978 1.1417-2.9173.767-.8252 1.6982-1.2378 2.7939-1.2378 1.0725 0 1.9923.4097 2.7592 1.2292.7727.8137 1.1591 1.789 1.1591 2.9259 0 1.1138-.3893 2.0573-1.1677 2.8307-.7727.7733-1.6954 1.1599-2.7679 1.1599-1.0495 0-1.9664-.3837-2.7506-1.1513zm.3027-2.9865c0 1.1485.1499 1.9824.4498 2.5018.4613.7906 1.1331 1.1859 2.0154 1.1859.4382 0 .839-.1183 1.2023-.3549.369-.2366.6545-.554.8563-.9522.2595-.5194.3892-1.3129.3892-2.3806 0-1.1369-.1557-1.9563-.4671-2.4584-.4613-.7676-1.1273-1.1513-1.998-1.1513-.3806 0-.7583.101-1.1331.3029-.3691.1963-.6661.4906-.891.883-.2825.5194-.4238 1.3273-.4238 2.4238z" fill="#000"/><path d="m93.2281 13.4847v-.3896c.5421-.0231.9919-.2251 1.3494-.6059.3633-.3867.6055-.8166.7265-1.2899.1269-.4732.1961-.9839.2076-1.53216h.4412v3.26346h2.5343v.5541h-2.5343v4.9255c0 1.2754.3979 1.9131 1.1936 1.9131.3402 0 .6228-.1731.8477-.5194.2249-.352.3373-.8397.3373-1.4629v-.9782h.4412v1.0128c0 .6406-.1471 1.2004-.4412 1.6793-.2941.479-.7323.7185-1.3147.7185-.2134 0-.4267-.0288-.6401-.0865-.2076-.052-.4498-.1472-.7266-.2857-.271-.1443-.493-.3895-.666-.7358-.1672-.352-.2508-.782-.2508-1.2898v-4.8909z" fill="#000"/><path d="m100.347 20.3406v-2.3372c0-.1328.003-.2222.008-.2684.006-.0462.026-.0866.061-.1212s.086-.0519.156-.0519c.08 0 .135.0173.164.0519.035.0346.063.1183.087.251.178.8138.458 1.437.839 1.8699.386.427.928.6405 1.626.6405.663 0 1.162-.1471 1.496-.4414.335-.2944.502-.6839.502-1.1687 0-.8656-.614-1.4081-1.843-1.6274-.709-.1443-1.211-.2626-1.505-.3549-.294-.0981-.571-.2539-.83-.4675-.507-.4155-.761-.9176-.761-1.5062s.222-1.0994.666-1.5322c.45-.4328 1.17-.6492 2.162-.6492.663 0 1.22.1673 1.67.502.132-.1038.233-.1991.302-.2856.156-.1443.274-.2164.355-.2164.092 0 .147.0317.164.0952.018.0577.026.1702.026.3376v1.7832c0 .1328-.003.2222-.008.2684-.006.0461-.026.0865-.061.1212-.035.0288-.089.0433-.164.0433-.133 0-.202-.0549-.208-.1645-.092-1.4312-.784-2.1468-2.076-2.1468-.698 0-1.202.1356-1.513.4068-.312.2655-.468.58-.468.9436 0 .202.047.3809.139.5367.098.15.207.2712.329.3636.126.0865.305.1731.536.2597.23.0807.415.1356.553.1644.145.0289.352.0722.623.1299.946.1789 1.618.4617 2.016.8483.495.4963.743 1.059.743 1.688 0 .6983-.236 1.2841-.709 1.7573s-1.185.7098-2.136.7098c-.767 0-1.419-.2568-1.955-.7704-.069.0693-.13.1356-.182.1991-.052.0577-.089.0981-.112.1212-.018.0231-.029.0433-.035.0606-.006.0115-.014.0231-.026.0346-.236.2366-.383.3549-.441.3549-.092 0-.147-.0317-.164-.0952-.018-.0577-.026-.1702-.026-.3376z" fill="#000"/></mask><path d="m3.93821 3.84591c0-.96554-.86892-1.74825-1.94078-1.74825-1.07187 0-1.9407894.78271-1.9407894 1.74825 0 .57258.3053324 1.07991.7763144 1.39853v6.99306c0 1.0747.828055 1.9752 1.940785 2.2119v1.6343c0 4.9242 4.43149 8.916 9.89796 8.916 5.4666 0 9.8981-3.9918 9.8981-8.916v-1.6343c1.1127-.2367 1.9407-1.1372 1.9407-2.2119v-6.99306c.471-.31862.7764-.82595.7764-1.39853 0-.96554-.869-1.74825-1.9408-1.74825-1.0719 0-1.9408.78271-1.9408 1.74825 0 .47288.2084.90124.546 1.21549l-.5806 1.48646c-.9957-1.11429-2.5224-1.82783-4.2351-1.82783h-8.92766c-1.71273 0-3.23942.71354-4.23512 1.82783l-.58062-1.48646c.33763-.31425.54601-.74261.54601-1.21549z" fill="#000"/><path d="m22.1806 3.84583c0-.57932.5214-1.04895 1.1645-1.04895s1.1645.46963 1.1645 1.04895c0 .45672-.3241.84526-.7764.98926v7.40231c0 .869-.782 1.5735-1.7467 1.5735h-.5822v-5.2448l1.469-3.76097c-.408-.16308-.6927-.53125-.6927-.9593z" fill="#757575"/><path d="m3.16097 3.84583c0-.57932-.52135-1.04895-1.16447-1.04895s-1.164469.46963-1.164469 1.04895c0 .45672.324039.84526.776319.98926v7.40231c0 .869.78202 1.5735 1.7467 1.5735h.58224v-5.2448l-1.46904-3.76097c.40808-.16308.69272-.53125.69272-.9593z" fill="#757575"/><path d="m3.55078 9.61572c0-2.31728 2.08541-4.1958 4.65789-4.1958h8.92763c2.5725 0 4.6579 1.87853 4.6579 4.19581v6.46857c0 4.538-4.0839 8.2167-9.1217 8.2167s-9.12172-3.6788-9.12172-8.2168z" fill="#ccc"/><path d="m8.5957 5.41992h8.1513v5.59438h-8.1513z" fill="#fff"/><path d="m10.9258 5.24414h3.4934v3.32168c0 .86898-.782 1.57338-1.7467 1.57338s-1.7467-.7044-1.7467-1.57338z" fill="#f03917"/><path d="m9.75977 18.3574h5.82233v1.3986h-5.82233z" fill="#000"/><path d="m5.29688 12.0626c0-.5793.52135-1.0489 1.16447-1.0489h12.42105c.6431 0 1.1644.4696 1.1644 1.0489v2.7972c0 .5793-.5213 1.049-1.1644 1.049h-12.42105c-.64312 0-1.16447-.4697-1.16447-1.049z" fill="#000"/><path d="m7.23828 12.9376c0-.5793.52135-1.0489 1.16447-1.0489s1.16447.4696 1.16447 1.0489v1.049c0 .5793-.52135 1.0489-1.16447 1.0489s-1.16447-.4696-1.16447-1.0489z" fill="#30d2f8"/><path d="m15.7773 12.9376c0-.5793.5214-1.0489 1.1645-1.0489s1.1645.4696 1.1645 1.0489v1.049c0 .5793-.5214 1.0489-1.1645 1.0489s-1.1645-.4696-1.1645-1.0489z" fill="#30d2f8"/><path d="m7.58017 22.9021c-2.43072-1.476-4.02939-3.9789-4.02939-6.8182v-.0663l4.07565 3.0383v3.8462z" fill="#757575"/><path d="m21.7944 16.0176v.0663c0 2.8393-1.5987 5.3422-4.0294 6.8182h-.0462v-3.8462z" fill="#757575"/><path clip-rule="evenodd" d="m8.62974 4.22581c-.22202.2-.28844.50078-.16828.76209s.40323.43169.71722.43169h2.54272l-.7565 2.05238c-.1134.30765.0228.64517.3291.81543.3062.17026.7022.12862.9566-.1006l4.4638-4.02098c.2221-.2.2885-.50078.1683-.76209-.1201-.26131-.4032-.43169-.7172-.43169h-2.5427l.7565-2.052374c.1134-.307651-.0228-.64517-.3291-.81543-.3062-.1702595-.7022-.1286204-.9566.100599z" fill="#000" fill-rule="evenodd"/><path d="m9.17773 4.72019 4.46377-4.020971-1.0954 2.972021h3.6185l-4.4638 4.02098 1.0954-2.97203z" fill="#ffc93a"/><g fill="#000"><path d="m32.6719 20.5743v-.5453h.4238c.6401 0 1.0322-.052 1.1764-.1558.1499-.1097.2249-.3376.2249-.6839v-9.28844c0-.34049-.075-.56267-.2249-.66655-.15-.10965-.5421-.16447-1.1764-.16447h-.4238v-.55402h9.7222l.493 3.99068h-.4411c-.0807-.6752-.1759-1.2033-.2855-1.5842-.1037-.3866-.2767-.7329-.5189-1.03875-.2422-.30587-.568-.51651-.9774-.63193-.4037-.12119-.9371-.18178-1.6002-.18178h-2.1278c-.4037 0-.6488.04328-.7353.12984-.0865.0808-.1297.27413-.1297.57999v4.48403h1.5223c.8016 0 1.3148-.1442 1.5397-.4328.2249-.2885.3373-.8368.3373-1.6447h.4411v4.7005h-.4411c0-.8137-.1124-1.362-.3373-1.6448-.2249-.2885-.7381-.4328-1.5397-.4328h-1.5223v4.3629c0 .2481.0202.4213.0605.5194.0404.0923.1846.1731.4325.2424.248.0634.643.0952 1.185.0952h.5882v.5453c-.4267-.0346-1.4185-.0519-2.9755-.0519-1.3782 0-2.2748.0173-2.69.0519z"/><path d="m44.2278 20.5743v-.5453c.6286 0 1.0149-.0375 1.1591-.1126.1441-.0808.2162-.3116.2162-.6925v-9.2192c0-.43856-.0778-.71268-.2335-.82233-.15-.10965-.5305-.16447-1.1418-.16447v-.55402l2.543-.19044v10.95046c0 .3809.075.6117.2249.6925.1499.0751.5363.1126 1.1591.1126v.5453c-.1442 0-.3662-.0057-.6661-.0173-.2998-.0115-.5593-.0202-.7784-.0259-.2192-.0058-.3921-.0087-.519-.0087-.1384 0-.7929.0173-1.9635.0519z"/><path d="m49.2965 18.8863c0-1.0041.5911-1.7717 1.7732-2.3026.7093-.3405 1.7962-.554 3.2609-.6406v-.6492c0-.733-.1932-1.2927-.5795-1.6794-.3806-.3924-.8131-.5886-1.2975-.5886-.8649 0-1.505.2712-1.9202.8137.3518.0115.5911.1067.7179.2856.1269.1732.1903.3492.1903.5281 0 .2366-.0749.4328-.2249.5886-.1441.1501-.3402.2251-.5881.2251-.2365 0-.4325-.0721-.5882-.2164-.1557-.1501-.2336-.3549-.2336-.6146 0-.5771.2595-1.0561.7785-1.437.5248-.3809 1.1591-.5713 1.9029-.5713.9688 0 1.7761.326 2.4219.9781.2019.202.3518.4329.4498.6926.1038.2597.1615.4761.173.6492.0116.1674.0173.4184.0173.7531v3.5405c0 .0693.0116.1616.0346.277.0231.1155.0865.2482.1903.3982.1096.1443.2537.2165.4325.2165.4267 0 .6372-.378.6314-1.134v-.9955h.4498v.9955c0 .629-.1672 1.0676-.5017 1.3157-.3287.2424-.6458.3636-.9514.3636-.3922 0-.7122-.1443-.9602-.4328-.2479-.2886-.3892-.629-.4238-1.0215-.1787.4502-.4728.8224-.8823 1.1167-.4036.2886-.8822.4328-1.4358.4328-.4267 0-.8419-.0548-1.2455-.1644-.3979-.1039-.7641-.303-1.0986-.5973-.3286-.3001-.493-.6752-.493-1.1254zm1.3667-.0173c0 .4386.1557.7993.467 1.0821.3114.2827.6863.4241 1.1245.4241.4959 0 .9659-.1904 1.4099-.5713.444-.3866.666-.958.666-1.714v-1.7746c-1.309.0462-2.2489.3319-2.8198.857-.5651.5194-.8476 1.085-.8476 1.6967z"/><path d="m57.9981 20.3406v-2.3372c0-.1328.0029-.2222.0086-.2684.0058-.0462.026-.0866.0606-.1212s.0865-.0519.1557-.0519c.0807 0 .1355.0173.1643.0519.0346.0346.0634.1183.0865.251.1788.8138.4584 1.437.839 1.8699.3864.427.9284.6405 1.6262.6405.6631 0 1.1619-.1471 1.4963-.4414.3345-.2944.5017-.6839.5017-1.1687 0-.8656-.6141-1.4081-1.8424-1.6274-.7092-.1443-1.2109-.2626-1.505-.3549-.2941-.0981-.5709-.2539-.8304-.4675-.5074-.4155-.7611-.9176-.7611-1.5062s.222-1.0994.666-1.5322c.4498-.4328 1.1706-.6492 2.1624-.6492.6632 0 1.2196.1673 1.6694.502.1326-.1038.2335-.1991.3027-.2856.1557-.1443.2739-.2164.3547-.2164.0922 0 .147.0317.1643.0952.0173.0577.026.1702.026.3376v1.7832c0 .1328-.0029.2222-.0087.2684-.0058.0461-.0259.0865-.0605.1212-.0346.0288-.0894.0433-.1644.0433-.1326 0-.2018-.0549-.2076-.1645-.0922-1.4312-.7842-2.1468-2.0759-2.1468-.6977 0-1.2023.1356-1.5137.4068-.3114.2655-.4671.58-.4671.9436 0 .202.0462.3809.1384.5367.0981.15.2076.2712.3287.3636.1269.0865.3056.1731.5363.2597.2307.0807.4152.1356.5536.1644.1441.0289.3517.0722.6228.1299.9456.1789 1.6174.4617 2.0153.8483.4959.4963.7439 1.059.7439 1.688 0 .6983-.2364 1.2841-.7093 1.7573-.4728.4732-1.185.7098-2.1364.7098-.767 0-1.4186-.2568-1.9549-.7704-.0692.0693-.1297.1356-.1816.1991-.0519.0577-.0894.0981-.1125.1212-.0173.0231-.0288.0433-.0346.0606-.0057.0115-.0144.0231-.0259.0346-.2364.2366-.3835.3549-.4411.3549-.0923 0-.1471-.0317-.1644-.0952-.0173-.0577-.0259-.1702-.0259-.3376z"/><path d="m64.9524 20.5743v-.5453c.6285 0 1.0149-.0375 1.1591-.1126.1441-.0808.2162-.3116.2162-.6925v-9.2192c0-.43856-.0779-.71268-.2335-.82233-.15-.10965-.5306-.16447-1.1418-.16447v-.55402l2.543-.19044v6.16346h.0173c.1903-.4271.4988-.8166.9255-1.1687.4267-.352.9688-.528 1.6261-.528.8881 0 1.508.2193 1.8597.6579.2595.2943.4152.6059.4671.9349.0577.3289.0865.9205.0865 1.7746v3.3847c.0115.2481.1124.4011.3027.4588.1903.0519.5507.0779 1.0812.0779v.5453c-1.2051-.0346-1.8683-.0519-1.9894-.0519-.0922 0-.7583.0173-1.998.0519v-.5453c.6285 0 1.0148-.0375 1.159-.1126.1499-.0808.2249-.3116.2249-.6925v-4.1291c0-.6002-.0923-1.0763-.2768-1.4284-.1845-.3578-.5305-.5367-1.038-.5367-.6112 0-1.1619.2568-1.652.7705-.4902.5136-.7353 1.2032-.7353 2.0689v3.2548c0 .3809.0721.6117.2163.6925.1499.0751.5363.1126 1.159.1126v.5453c-1.2051-.0346-1.8654-.0519-1.9807-.0519-.0923 0-.7583.0173-1.9981.0519z"/><path d="m74.1989 9.0179v-.55402l2.5516-.19044v5.61806c.6862-.7675 1.4964-1.1513 2.4306-1.1513 1.0149 0 1.8943.3895 2.6381 1.1686.7439.7791 1.1158 1.7256 1.1158 2.8394 0 1.1253-.3892 2.0775-1.1677 2.8566-.7784.7791-1.7068 1.1686-2.7852 1.1686-.9803 0-1.753-.4328-2.3181-1.2984-.4151.7213-.6285 1.0878-.64 1.0993h-.4412v-10.5696c0-.43856-.0778-.71268-.2335-.82233s-.5392-.16447-1.1504-.16447zm2.6035 9.5395c0 .2481.0836.4963.2509.7444.467.7156 1.0812 1.0734 1.8423 1.0734h.0173c.8246 0 1.4936-.378 2.0068-1.134.3633-.5655.5449-1.4023.5449-2.5104 0-1.0964-.1701-1.9188-.5103-2.4671-.4729-.756-1.0928-1.134-1.8597-1.134-.865 0-1.5627.378-2.0932 1.134-.1327.1905-.199.404-.199.6406z"/><path d="m85.6943 19.6221c-.7785-.7733-1.1677-1.7197-1.1677-2.8393 0-1.1254.3806-2.0978 1.1417-2.9173.767-.8252 1.6982-1.2378 2.7939-1.2378 1.0725 0 1.9923.4097 2.7592 1.2292.7727.8137 1.1591 1.789 1.1591 2.9259 0 1.1138-.3893 2.0573-1.1677 2.8307-.7727.7733-1.6954 1.1599-2.7679 1.1599-1.0495 0-1.9664-.3837-2.7506-1.1513zm.3027-2.9865c0 1.1485.1499 1.9824.4498 2.5018.4613.7906 1.1331 1.1859 2.0154 1.1859.4382 0 .839-.1183 1.2023-.3549.369-.2366.6545-.554.8563-.9522.2595-.5194.3892-1.3129.3892-2.3806 0-1.1369-.1557-1.9563-.4671-2.4584-.4613-.7676-1.1273-1.1513-1.998-1.1513-.3806 0-.7583.101-1.1331.3029-.3691.1963-.6661.4906-.891.883-.2825.5194-.4238 1.3273-.4238 2.4238z"/><path d="m93.2281 13.4847v-.3896c.5421-.0231.9919-.2251 1.3494-.6059.3633-.3867.6055-.8166.7265-1.2899.1269-.4732.1961-.9839.2076-1.53216h.4412v3.26346h2.5343v.5541h-2.5343v4.9255c0 1.2754.3979 1.9131 1.1936 1.9131.3402 0 .6228-.1731.8477-.5194.2249-.352.3373-.8397.3373-1.4629v-.9782h.4412v1.0128c0 .6406-.1471 1.2004-.4412 1.6793-.2941.479-.7323.7185-1.3147.7185-.2134 0-.4267-.0288-.6401-.0865-.2076-.052-.4498-.1472-.7266-.2857-.271-.1443-.493-.3895-.666-.7358-.1672-.352-.2508-.782-.2508-1.2898v-4.8909z"/><path d="m100.347 20.3406v-2.3372c0-.1328.003-.2222.008-.2684.006-.0462.026-.0866.061-.1212s.086-.0519.156-.0519c.08 0 .135.0173.164.0519.035.0346.063.1183.087.251.178.8138.458 1.437.839 1.8699.386.427.928.6405 1.626.6405.663 0 1.162-.1471 1.496-.4414.335-.2944.502-.6839.502-1.1687 0-.8656-.614-1.4081-1.843-1.6274-.709-.1443-1.211-.2626-1.505-.3549-.294-.0981-.571-.2539-.83-.4675-.507-.4155-.761-.9176-.761-1.5062s.222-1.0994.666-1.5322c.45-.4328 1.17-.6492 2.162-.6492.663 0 1.22.1673 1.67.502.132-.1038.233-.1991.302-.2856.156-.1443.274-.2164.355-.2164.092 0 .147.0317.164.0952.018.0577.026.1702.026.3376v1.7832c0 .1328-.003.2222-.008.2684-.006.0461-.026.0865-.061.1212-.035.0288-.089.0433-.164.0433-.133 0-.202-.0549-.208-.1645-.092-1.4312-.784-2.1468-2.076-2.1468-.698 0-1.202.1356-1.513.4068-.312.2655-.468.58-.468.9436 0 .202.047.3809.139.5367.098.15.207.2712.329.3636.126.0865.305.1731.536.2597.23.0807.415.1356.553.1644.145.0289.352.0722.623.1299.946.1789 1.618.4617 2.016.8483.495.4963.743 1.059.743 1.688 0 .6983-.236 1.2841-.709 1.7573s-1.185.7098-2.136.7098c-.767 0-1.419-.2568-1.955-.7704-.069.0693-.13.1356-.182.1991-.052.0577-.089.0981-.112.1212-.018.0231-.029.0433-.035.0606-.006.0115-.014.0231-.026.0346-.236.2366-.383.3549-.441.3549-.092 0-.147-.0317-.164-.0952-.018-.0577-.026-.1702-.026-.3376z"/></g><path d="m32.6719 20.5743v-.5453h.4238c.6401 0 1.0322-.052 1.1764-.1558.1499-.1097.2249-.3376.2249-.6839v-9.28844c0-.34049-.075-.56267-.2249-.66655-.15-.10965-.5421-.16447-1.1764-.16447h-.4238v-.55402h9.7222l.493 3.99068h-.4411c-.0807-.6752-.1759-1.2033-.2855-1.5842-.1037-.3866-.2767-.7329-.5189-1.03875-.2422-.30587-.568-.51651-.9774-.63193-.4037-.12119-.9371-.18178-1.6002-.18178h-2.1278c-.4037 0-.6488.04328-.7353.12984-.0865.0808-.1297.27413-.1297.57999v4.48403h1.5223c.8016 0 1.3148-.1442 1.5397-.4328.2249-.2885.3373-.8368.3373-1.6447h.4411v4.7005h-.4411c0-.8137-.1124-1.362-.3373-1.6448-.2249-.2885-.7381-.4328-1.5397-.4328h-1.5223v4.3629c0 .2481.0202.4213.0605.5194.0404.0923.1846.1731.4325.2424.248.0634.643.0952 1.185.0952h.5882v.5453c-.4267-.0346-1.4185-.0519-2.9755-.0519-1.3782 0-2.2748.0173-2.69.0519z" mask="url(#a)" stroke="#000" stroke-width=".208333"/><path d="m44.2278 20.5743v-.5453c.6286 0 1.0149-.0375 1.1591-.1126.1441-.0808.2162-.3116.2162-.6925v-9.2192c0-.43856-.0778-.71268-.2335-.82233-.15-.10965-.5305-.16447-1.1418-.16447v-.55402l2.543-.19044v10.95046c0 .3809.075.6117.2249.6925.1499.0751.5363.1126 1.1591.1126v.5453c-.1442 0-.3662-.0057-.6661-.0173-.2998-.0115-.5593-.0202-.7784-.0259-.2192-.0058-.3921-.0087-.519-.0087-.1384 0-.7929.0173-1.9635.0519z" mask="url(#a)" stroke="#000" stroke-width=".208333"/><path d="m49.2965 18.8863c0-1.0041.5911-1.7717 1.7732-2.3026.7093-.3405 1.7962-.554 3.2609-.6406v-.6492c0-.733-.1932-1.2927-.5795-1.6794-.3806-.3924-.8131-.5886-1.2975-.5886-.8649 0-1.505.2712-1.9202.8137.3518.0115.5911.1067.7179.2856.1269.1732.1903.3492.1903.5281 0 .2366-.0749.4328-.2249.5886-.1441.1501-.3402.2251-.5881.2251-.2365 0-.4325-.0721-.5882-.2164-.1557-.1501-.2336-.3549-.2336-.6146 0-.5771.2595-1.0561.7785-1.437.5248-.3809 1.1591-.5713 1.9029-.5713.9688 0 1.7761.326 2.4219.9781.2019.202.3518.4329.4498.6926.1038.2597.1615.4761.173.6492.0116.1674.0173.4184.0173.7531v3.5405c0 .0693.0116.1616.0346.277.0231.1155.0865.2482.1903.3982.1096.1443.2537.2165.4325.2165.4267 0 .6372-.378.6314-1.134v-.9955h.4498v.9955c0 .629-.1672 1.0676-.5017 1.3157-.3287.2424-.6458.3636-.9514.3636-.3922 0-.7122-.1443-.9602-.4328-.2479-.2886-.3892-.629-.4238-1.0215-.1787.4502-.4728.8224-.8823 1.1167-.4036.2886-.8822.4328-1.4358.4328-.4267 0-.8419-.0548-1.2455-.1644-.3979-.1039-.7641-.303-1.0986-.5973-.3286-.3001-.493-.6752-.493-1.1254zm1.3667-.0173c0 .4386.1557.7993.467 1.0821.3114.2827.6863.4241 1.1245.4241.4959 0 .9659-.1904 1.4099-.5713.444-.3866.666-.958.666-1.714v-1.7746c-1.309.0462-2.2489.3319-2.8198.857-.5651.5194-.8476 1.085-.8476 1.6967z" mask="url(#a)" stroke="#000" stroke-width=".208333"/><path d="m57.9981 20.3406v-2.3372c0-.1328.0029-.2222.0086-.2684.0058-.0462.026-.0866.0606-.1212s.0865-.0519.1557-.0519c.0807 0 .1355.0173.1643.0519.0346.0346.0634.1183.0865.251.1788.8138.4584 1.437.839 1.8699.3864.427.9284.6405 1.6262.6405.6631 0 1.1619-.1471 1.4963-.4414.3345-.2944.5017-.6839.5017-1.1687 0-.8656-.6141-1.4081-1.8424-1.6274-.7092-.1443-1.2109-.2626-1.505-.3549-.2941-.0981-.5709-.2539-.8304-.4675-.5074-.4155-.7611-.9176-.7611-1.5062s.222-1.0994.666-1.5322c.4498-.4328 1.1706-.6492 2.1624-.6492.6632 0 1.2196.1673 1.6694.502.1326-.1038.2335-.1991.3027-.2856.1557-.1443.2739-.2164.3547-.2164.0922 0 .147.0317.1643.0952.0173.0577.026.1702.026.3376v1.7832c0 .1328-.0029.2222-.0087.2684-.0058.0461-.0259.0865-.0605.1212-.0346.0288-.0894.0433-.1644.0433-.1326 0-.2018-.0549-.2076-.1645-.0922-1.4312-.7842-2.1468-2.0759-2.1468-.6977 0-1.2023.1356-1.5137.4068-.3114.2655-.4671.58-.4671.9436 0 .202.0462.3809.1384.5367.0981.15.2076.2712.3287.3636.1269.0865.3056.1731.5363.2597.2307.0807.4152.1356.5536.1644.1441.0289.3517.0722.6228.1299.9456.1789 1.6174.4617 2.0153.8483.4959.4963.7439 1.059.7439 1.688 0 .6983-.2364 1.2841-.7093 1.7573-.4728.4732-1.185.7098-2.1364.7098-.767 0-1.4186-.2568-1.9549-.7704-.0692.0693-.1297.1356-.1816.1991-.0519.0577-.0894.0981-.1125.1212-.0173.0231-.0288.0433-.0346.0606-.0057.0115-.0144.0231-.0259.0346-.2364.2366-.3835.3549-.4411.3549-.0923 0-.1471-.0317-.1644-.0952-.0173-.0577-.0259-.1702-.0259-.3376z" mask="url(#a)" stroke="#000" stroke-width=".208333"/><path d="m64.9524 20.5743v-.5453c.6285 0 1.0149-.0375 1.1591-.1126.1441-.0808.2162-.3116.2162-.6925v-9.2192c0-.43856-.0779-.71268-.2335-.82233-.15-.10965-.5306-.16447-1.1418-.16447v-.55402l2.543-.19044v6.16346h.0173c.1903-.4271.4988-.8166.9255-1.1687.4267-.352.9688-.528 1.6261-.528.8881 0 1.508.2193 1.8597.6579.2595.2943.4152.6059.4671.9349.0577.3289.0865.9205.0865 1.7746v3.3847c.0115.2481.1124.4011.3027.4588.1903.0519.5507.0779 1.0812.0779v.5453c-1.2051-.0346-1.8683-.0519-1.9894-.0519-.0922 0-.7583.0173-1.998.0519v-.5453c.6285 0 1.0148-.0375 1.159-.1126.1499-.0808.2249-.3116.2249-.6925v-4.1291c0-.6002-.0923-1.0763-.2768-1.4284-.1845-.3578-.5305-.5367-1.038-.5367-.6112 0-1.1619.2568-1.652.7705-.4902.5136-.7353 1.2032-.7353 2.0689v3.2548c0 .3809.0721.6117.2163.6925.1499.0751.5363.1126 1.159.1126v.5453c-1.2051-.0346-1.8654-.0519-1.9807-.0519-.0923 0-.7583.0173-1.9981.0519z" mask="url(#a)" stroke="#000" stroke-width=".208333"/><path d="m74.1989 9.0179v-.55402l2.5516-.19044v5.61806c.6862-.7675 1.4964-1.1513 2.4306-1.1513 1.0149 0 1.8943.3895 2.6381 1.1686.7439.7791 1.1158 1.7256 1.1158 2.8394 0 1.1253-.3892 2.0775-1.1677 2.8566-.7784.7791-1.7068 1.1686-2.7852 1.1686-.9803 0-1.753-.4328-2.3181-1.2984-.4151.7213-.6285 1.0878-.64 1.0993h-.4412v-10.5696c0-.43856-.0778-.71268-.2335-.82233s-.5392-.16447-1.1504-.16447zm2.6035 9.5395c0 .2481.0836.4963.2509.7444.467.7156 1.0812 1.0734 1.8423 1.0734h.0173c.8246 0 1.4936-.378 2.0068-1.134.3633-.5655.5449-1.4023.5449-2.5104 0-1.0964-.1701-1.9188-.5103-2.4671-.4729-.756-1.0928-1.134-1.8597-1.134-.865 0-1.5627.378-2.0932 1.134-.1327.1905-.199.404-.199.6406z" mask="url(#a)" stroke="#000" stroke-width=".208333"/><path d="m85.6943 19.6221c-.7785-.7733-1.1677-1.7197-1.1677-2.8393 0-1.1254.3806-2.0978 1.1417-2.9173.767-.8252 1.6982-1.2378 2.7939-1.2378 1.0725 0 1.9923.4097 2.7592 1.2292.7727.8137 1.1591 1.789 1.1591 2.9259 0 1.1138-.3893 2.0573-1.1677 2.8307-.7727.7733-1.6954 1.1599-2.7679 1.1599-1.0495 0-1.9664-.3837-2.7506-1.1513zm.3027-2.9865c0 1.1485.1499 1.9824.4498 2.5018.4613.7906 1.1331 1.1859 2.0154 1.1859.4382 0 .839-.1183 1.2023-.3549.369-.2366.6545-.554.8563-.9522.2595-.5194.3892-1.3129.3892-2.3806 0-1.1369-.1557-1.9563-.4671-2.4584-.4613-.7676-1.1273-1.1513-1.998-1.1513-.3806 0-.7583.101-1.1331.3029-.3691.1963-.6661.4906-.891.883-.2825.5194-.4238 1.3273-.4238 2.4238z" mask="url(#a)" stroke="#000" stroke-width=".208333"/><path d="m93.2281 13.4847v-.3896c.5421-.0231.9919-.2251 1.3494-.6059.3633-.3867.6055-.8166.7265-1.2899.1269-.4732.1961-.9839.2076-1.53216h.4412v3.26346h2.5343v.5541h-2.5343v4.9255c0 1.2754.3979 1.9131 1.1936 1.9131.3402 0 .6228-.1731.8477-.5194.2249-.352.3373-.8397.3373-1.4629v-.9782h.4412v1.0128c0 .6406-.1471 1.2004-.4412 1.6793-.2941.479-.7323.7185-1.3147.7185-.2134 0-.4267-.0288-.6401-.0865-.2076-.052-.4498-.1472-.7266-.2857-.271-.1443-.493-.3895-.666-.7358-.1672-.352-.2508-.782-.2508-1.2898v-4.8909z" mask="url(#a)" stroke="#000" stroke-width=".208333"/><path d="m100.347 20.3406v-2.3372c0-.1328.003-.2222.008-.2684.006-.0462.026-.0866.061-.1212s.086-.0519.156-.0519c.08 0 .135.0173.164.0519.035.0346.063.1183.087.251.178.8138.458 1.437.839 1.8699.386.427.928.6405 1.626.6405.663 0 1.162-.1471 1.496-.4414.335-.2944.502-.6839.502-1.1687 0-.8656-.614-1.4081-1.843-1.6274-.709-.1443-1.211-.2626-1.505-.3549-.294-.0981-.571-.2539-.83-.4675-.507-.4155-.761-.9176-.761-1.5062s.222-1.0994.666-1.5322c.45-.4328 1.17-.6492 2.162-.6492.663 0 1.22.1673 1.67.502.132-.1038.233-.1991.302-.2856.156-.1443.274-.2164.355-.2164.092 0 .147.0317.164.0952.018.0577.026.1702.026.3376v1.7832c0 .1328-.003.2222-.008.2684-.006.0461-.026.0865-.061.1212-.035.0288-.089.0433-.164.0433-.133 0-.202-.0549-.208-.1645-.092-1.4312-.784-2.1468-2.076-2.1468-.698 0-1.202.1356-1.513.4068-.312.2655-.468.58-.468.9436 0 .202.047.3809.139.5367.098.15.207.2712.329.3636.126.0865.305.1731.536.2597.23.0807.415.1356.553.1644.145.0289.352.0722.623.1299.946.1789 1.618.4617 2.016.8483.495.4963.743 1.059.743 1.688 0 .6983-.236 1.2841-.709 1.7573s-1.185.7098-2.136.7098c-.767 0-1.419-.2568-1.955-.7704-.069.0693-.13.1356-.182.1991-.052.0577-.089.0981-.112.1212-.018.0231-.029.0433-.035.0606-.006.0115-.014.0231-.026.0346-.236.2366-.383.3549-.441.3549-.092 0-.147-.0317-.164-.0952-.018-.0577-.026-.1702-.026-.3376z" mask="url(#a)" stroke="#000" stroke-width=".208333"/></svg>