<svg fill="none" height="87" viewBox="0 0 87 87" width="87" xmlns="http://www.w3.org/2000/svg"><rect fill="#ff2e2e" height="87" rx="12" width="87"/><g fill="#fff"><path d="m27.8964 57.498c-3.088 0-5.6165-.7253-7.5854-2.1761-1.9482-1.4715-2.9223-3.5855-2.9223-6.3005 0-.5803.0621-1.2643.1865-2.0933.3316-1.8653.8083-4.1036 1.4301-6.7358 1.7616-7.1295 6.3212-10.6943 13.658-10.6943 1.9896 0 3.7927.3317 5.3679 1.0156 1.5751.6425 2.8186 1.6373 3.7305 2.9637.9119 1.3057 1.3679 2.8601 1.3679 4.6632 0 .5389-.0622 1.2228-.1865 2.0518-.3938 2.3006-.8498 4.5596-1.4093 6.7358-.912 3.544-2.4664 6.2176-4.7047 7.9793-2.2176 1.7409-5.2021 2.5906-8.9327 2.5906zm.5596-5.5958c1.4508 0 2.6736-.4352 3.6892-1.285 1.0362-.8497 1.7823-2.1554 2.2176-3.9378.601-2.4456 1.057-4.5596 1.3678-6.3834.1037-.5389.1658-1.0985.1658-1.6788 0-2.3627-1.2228-3.544-3.6891-3.544-1.4508 0-2.6943.4352-3.7305 1.2849-1.0156.8498-1.741 2.1555-2.1762 3.9379-.4767 1.7409-.9327 3.8549-1.4093 6.3834-.1037.5181-.1658 1.057-.1658 1.6373-.0208 2.4041 1.2435 3.5855 3.7305 3.5855z"/><path d="m44.934 57.1238c-.2902 0-.4974-.0829-.6632-.2694-.1244-.2073-.1658-.4353-.1244-.7047l5.3679-25.285c.0414-.2901.1865-.5181.4352-.7046.228-.1866.4767-.2695.7461-.2695h10.342c2.8808 0 5.1813.6011 6.9223 1.7824 1.7616 1.2021 2.6528 2.9223 2.6528 5.1814 0 .6424-.0829 1.3264-.228 2.031-.6424 2.9845-1.9481 5.1814-3.9378 6.6114-1.9482 1.4301-4.6217 2.1348-8.0207 2.1348h-5.2435l-1.7824 8.5181c-.0622.2901-.1865.5181-.4352.7047-.228.1865-.4767.2694-.7462.2694zm13.7616-14.8601c1.0985 0 2.0311-.2902 2.8394-.8912.829-.601 1.3679-1.4508 1.6373-2.57.0829-.4352.1244-.829.1244-1.1606 0-.7461-.228-1.3264-.6632-1.7202-.4353-.4145-1.2021-.6217-2.2591-.6217h-4.6632l-1.4715 6.9637z"/></g></svg>