<svg fill="none" height="26" viewBox="0 0 61 26" width="61" xmlns="http://www.w3.org/2000/svg"><g fill="#1a1d16"><path d="m46.9434 16.9973c-.0076-.1978-.1852-.3247-.3907-.3247l-1.5805.0102c-1.2025-.0406-2.5242.1395-3.1483-.3273-.0076-.0101-.0152-.0203-.0254-.0279-.4896-.6139.2816-3.2675.4998-3.8916.1319-.4389.1801-1.0224-.4008-1.0123-2.6815.3806-4.8557 4.9394-6.6341 6.8903-.4262.4896-.9691 1.1112-1.0984 1.2507-.066.0685-.099.1548-.0964.2435.0076.1979.1852.3248.3906.3248l1.5805-.0102c1.2025.0406 2.5243-.1395 3.1483.3273.0077.0101.0153.0203.0254.0279.4896.6139-.2816 3.2675-.4998 3.8916-.1319.4389-.1801 1.0224.4009 1.0123 2.6815-.3806 4.8556-4.9394 6.634-6.8903.4262-.4896.9691-1.1112 1.0985-1.2507.066-.0685.0989-.1548.0964-.2436z"/><path d="m8.26497 3.10263h-1.61348l-.31965 1.75555h1.66675c.79913 0 1.16952-.24862 1.25831-.74586.12431-.72809-.24862-1.00969-.99193-1.00969zm-.01776 7.80357-1.32934-3.56438h-1.0097l-.6393 3.56438h-3.19144l1.87986-10.639842h4.75417c2.73224 0 4.11484 1.542442 3.68864 4.008322-.2663 1.54245-1.0629 2.37709-2.2705 2.76778l1.8266 3.83074v.0355h-3.70645z"/><path d="m17.8388 11.1726c-3.7242 0-5.533-2.62573-4.8937-6.20786.5125-2.9073 2.854-4.96474 5.9415-4.96474 3.0874 0 5.5507 2.59019 4.9114 6.20783-.515 2.87179-2.7322 4.96477-5.9592 4.96477zm.1953-2.83629c1.5247 0 2.3594-.99194 2.6613-2.64347.2664-1.50693-.3197-2.83881-1.9509-2.83881-1.6313 0-2.4304 1.15176-2.6612 2.48364-.3374 1.8621.3019 2.9961 1.9508 2.9961z"/><path d="m28.8848.266358-1.3471 7.625972h4.2924l-.5327 3.01387h-7.4839l1.8773-10.639842z"/><path d="m37.2235.266358-1.3471 7.625972h4.2924l-.5327 3.01387h-7.4839l1.8773-10.639842z"/><path d="m45.4329 8.14094c1.2761 0 1.7733-.92343 1.9687-2.02192l1.03-5.852662h3.1914l-1.1695 6.651792c-.4617 2.64347-2.3238 4.23915-5.2134 4.23915-2.8895 0-5.0357-1.87982-4.4878-5.00022l1.0452-5.888185h3.1915l-1.0275 5.852665c-.1953 1.09848.0178 2.02192 1.4714 2.02192z"/><path d="m56.3701 3.10258h-.9234l-.4085 2.32382h.9387c.8879 0 1.4181-.24862 1.5602-1.02745.1421-.76361-.2486-1.29383-1.1695-1.29383zm-.4795 5.16263h-1.3648l-.4617 2.64349h-3.1915l1.8799-10.639852h3.9728c3.0316 0 4.5411 1.826582 4.0793 4.434532-.3729 2.16399-2.1284 3.56436-4.914 3.56436z"/><path d="m5.88818 19.2019h-1.95089l-.26637 1.5069h1.96864c.67482 0 1.02745-.2486 1.11625-.6748.08879-.5683-.07104-.8347-.87017-.8347zm.30189-3.813h-1.57796l-.28413 1.5069h1.59572c.78137 0 1.134-.1598 1.22279-.6215.10655-.6216-.15982-.8879-.95895-.8879zm-6.19007 7.9786 1.87985-10.6398h5.19561c2.60795 0 3.67094.9589 3.29794 3.0138-.1953 1.134-.88787 1.8266-1.98636 2.2173v.0177c1.41814.3552 1.79106 1.1873 1.50693 2.7678-.28413 1.5957-1.75554 2.6257-4.31022 2.6257h-5.58375z"/><path d="m15.9362 23.6339c-3.7242 0-5.5331-2.6257-4.8938-6.2078.515-2.9074 2.8566-4.9648 5.9415-4.9648s5.5508 2.5902 4.9115 6.2078c-.515 2.8744-2.7323 4.9648-5.9592 4.9648zm.1953-2.8363c1.5247 0 2.3593-.9919 2.6612-2.6435.2664-1.5069-.3196-2.8388-1.9509-2.8388-1.6312 0-2.4303 1.1518-2.6612 2.4837-.3374 1.8621.3019 2.9961 1.9509 2.9961z"/><path d="m27.5667 23.6339c-3.7242 0-5.533-2.6257-4.8937-6.2078.515-2.9074 2.854-4.9648 5.9414-4.9648 3.0875 0 5.5508 2.5902 4.914 6.2078-.515 2.8744-2.7322 4.9648-5.9592 4.9648zm.1953-2.8363c1.5247 0 2.3594-.9919 2.6613-2.6435.2663-1.5069-.3197-2.8388-1.9509-2.8388-1.6313 0-2.4304 1.1518-2.6613 2.4837-.3374 1.8621.3019 2.9961 1.9509 2.9961z"/><path d="m47.1459 15.7415.5328-3.0138h8.7955l-.5328 3.0138h-2.8033l-1.3471 7.626h-3.1914l1.3471-7.626h-2.8033z"/></g></svg>