<svg fill="none" height="290" viewBox="0 0 290 290" width="290" xmlns="http://www.w3.org/2000/svg" xmlns:xlink="http://www.w3.org/1999/xlink"><filter id="a" color-interpolation-filters="sRGB" filterUnits="userSpaceOnUse" height="289.385" width="289.385" x=".307265" y=".307265"><feFlood flood-opacity="0" result="BackgroundImageFix"/><feColorMatrix in="SourceAlpha" result="hardAlpha" type="matrix" values="0 0 0 0 0 0 0 0 0 0 0 0 0 0 0 0 0 0 127 0"/><feOffset dx="11.1732" dy="11.1732"/><feGaussianBlur stdDeviation="16.7598"/><feComposite in2="hardAlpha" operator="out"/><feColorMatrix type="matrix" values="0 0 0 0 0.823529 0 0 0 0 0.823529 0 0 0 0 0.823529 0 0 0 1 0"/><feBlend in2="BackgroundImageFix" mode="normal" result="effect1_dropShadow_470_9618"/><feColorMatrix in="SourceAlpha" result="hardAlpha" type="matrix" values="0 0 0 0 0 0 0 0 0 0 0 0 0 0 0 0 0 0 127 0"/><feOffset dx="-11.1732" dy="-11.1732"/><feGaussianBlur stdDeviation="16.7598"/><feComposite in2="hardAlpha" operator="out"/><feColorMatrix type="matrix" values="0 0 0 0 1 0 0 0 0 1 0 0 0 0 1 0 0 0 1 0"/><feBlend in2="effect1_dropShadow_470_9618" mode="normal" result="effect2_dropShadow_470_9618"/><feColorMatrix in="SourceAlpha" result="hardAlpha" type="matrix" values="0 0 0 0 0 0 0 0 0 0 0 0 0 0 0 0 0 0 127 0"/><feOffset dx="4.46927" dy="4.46927"/><feGaussianBlur stdDeviation="4.46927"/><feComposite in2="hardAlpha" operator="out"/><feColorMatrix type="matrix" values="0 0 0 0 0.5 0 0 0 0 0.5 0 0 0 0 0.5 0 0 0 0.2 0"/><feBlend in2="effect2_dropShadow_470_9618" mode="normal" result="effect3_dropShadow_470_9618"/><feBlend in="SourceGraphic" in2="effect3_dropShadow_470_9618" mode="normal" result="shape"/></filter><filter id="b" color-interpolation-filters="sRGB" filterUnits="userSpaceOnUse" height="21.341" width="21.341" x="159.413" y="219.751"><feFlood flood-opacity="0" result="BackgroundImageFix"/><feColorMatrix in="SourceAlpha" result="hardAlpha" type="matrix" values="0 0 0 0 0 0 0 0 0 0 0 0 0 0 0 0 0 0 127 0"/><feOffset dx="-.111732" dy="-.111732"/><feGaussianBlur stdDeviation="1.11732"/><feComposite in2="hardAlpha" operator="out"/><feColorMatrix type="matrix" values="0 0 0 0 0.569787 0 0 0 0 0.569787 0 0 0 0 0.569787 0 0 0 0.5 0"/><feBlend in2="BackgroundImageFix" mode="normal" result="effect1_dropShadow_470_9618"/><feColorMatrix in="SourceAlpha" result="hardAlpha" type="matrix" values="0 0 0 0 0 0 0 0 0 0 0 0 0 0 0 0 0 0 127 0"/><feOffset dx="2.23464" dy="2.23464"/><feGaussianBlur stdDeviation="1.11732"/><feComposite in2="hardAlpha" operator="out"/><feColorMatrix type="matrix" values="0 0 0 0 1 0 0 0 0 1 0 0 0 0 1 0 0 0 1 0"/><feBlend in2="effect1_dropShadow_470_9618" mode="normal" result="effect2_dropShadow_470_9618"/><feBlend in="SourceGraphic" in2="effect2_dropShadow_470_9618" mode="normal" result="shape"/></filter><filter id="c" color-interpolation-filters="sRGB" filterUnits="userSpaceOnUse" height="21.341" width="21.341" x="179.525" y="219.751"><feFlood flood-opacity="0" result="BackgroundImageFix"/><feColorMatrix in="SourceAlpha" result="hardAlpha" type="matrix" values="0 0 0 0 0 0 0 0 0 0 0 0 0 0 0 0 0 0 127 0"/><feOffset dx="-.111732" dy="-.111732"/><feGaussianBlur stdDeviation="1.11732"/><feComposite in2="hardAlpha" operator="out"/><feColorMatrix type="matrix" values="0 0 0 0 0.569787 0 0 0 0 0.569787 0 0 0 0 0.569787 0 0 0 0.5 0"/><feBlend in2="BackgroundImageFix" mode="normal" result="effect1_dropShadow_470_9618"/><feColorMatrix in="SourceAlpha" result="hardAlpha" type="matrix" values="0 0 0 0 0 0 0 0 0 0 0 0 0 0 0 0 0 0 127 0"/><feOffset dx="2.23464" dy="2.23464"/><feGaussianBlur stdDeviation="1.11732"/><feComposite in2="hardAlpha" operator="out"/><feColorMatrix type="matrix" values="0 0 0 0 1 0 0 0 0 1 0 0 0 0 1 0 0 0 1 0"/><feBlend in2="effect1_dropShadow_470_9618" mode="normal" result="effect2_dropShadow_470_9618"/><feBlend in="SourceGraphic" in2="effect2_dropShadow_470_9618" mode="normal" result="shape"/></filter><filter id="d" color-interpolation-filters="sRGB" filterUnits="userSpaceOnUse" height="21.341" width="21.341" x="199.636" y="219.751"><feFlood flood-opacity="0" result="BackgroundImageFix"/><feColorMatrix in="SourceAlpha" result="hardAlpha" type="matrix" values="0 0 0 0 0 0 0 0 0 0 0 0 0 0 0 0 0 0 127 0"/><feOffset dx="-.111732" dy="-.111732"/><feGaussianBlur stdDeviation="1.11732"/><feComposite in2="hardAlpha" operator="out"/><feColorMatrix type="matrix" values="0 0 0 0 0.569787 0 0 0 0 0.569787 0 0 0 0 0.569787 0 0 0 0.5 0"/><feBlend in2="BackgroundImageFix" mode="normal" result="effect1_dropShadow_470_9618"/><feColorMatrix in="SourceAlpha" result="hardAlpha" type="matrix" values="0 0 0 0 0 0 0 0 0 0 0 0 0 0 0 0 0 0 127 0"/><feOffset dx="2.23464" dy="2.23464"/><feGaussianBlur stdDeviation="1.11732"/><feComposite in2="hardAlpha" operator="out"/><feColorMatrix type="matrix" values="0 0 0 0 1 0 0 0 0 1 0 0 0 0 1 0 0 0 1 0"/><feBlend in2="effect1_dropShadow_470_9618" mode="normal" result="effect2_dropShadow_470_9618"/><feBlend in="SourceGraphic" in2="effect2_dropShadow_470_9618" mode="normal" result="shape"/></filter><filter id="e" color-interpolation-filters="sRGB" filterUnits="userSpaceOnUse" height="21.341" width="21.341" x="219.747" y="219.751"><feFlood flood-opacity="0" result="BackgroundImageFix"/><feColorMatrix in="SourceAlpha" result="hardAlpha" type="matrix" values="0 0 0 0 0 0 0 0 0 0 0 0 0 0 0 0 0 0 127 0"/><feOffset dx="-.111732" dy="-.111732"/><feGaussianBlur stdDeviation="1.11732"/><feComposite in2="hardAlpha" operator="out"/><feColorMatrix type="matrix" values="0 0 0 0 0.569787 0 0 0 0 0.569787 0 0 0 0 0.569787 0 0 0 0.5 0"/><feBlend in2="BackgroundImageFix" mode="normal" result="effect1_dropShadow_470_9618"/><feColorMatrix in="SourceAlpha" result="hardAlpha" type="matrix" values="0 0 0 0 0 0 0 0 0 0 0 0 0 0 0 0 0 0 127 0"/><feOffset dx="2.23464" dy="2.23464"/><feGaussianBlur stdDeviation="1.11732"/><feComposite in2="hardAlpha" operator="out"/><feColorMatrix type="matrix" values="0 0 0 0 1 0 0 0 0 1 0 0 0 0 1 0 0 0 1 0"/><feBlend in2="effect1_dropShadow_470_9618" mode="normal" result="effect2_dropShadow_470_9618"/><feBlend in="SourceGraphic" in2="effect2_dropShadow_470_9618" mode="normal" result="shape"/></filter><filter id="f" color-interpolation-filters="sRGB" filterUnits="userSpaceOnUse" height="29.4416" width="201.397" x="44.7207" y="44.7207"><feFlood flood-opacity="0" result="BackgroundImageFix"/><feColorMatrix in="SourceAlpha" result="hardAlpha" type="matrix" values="0 0 0 0 0 0 0 0 0 0 0 0 0 0 0 0 0 0 127 0"/><feOffset dx="-.139665" dy="-.139665"/><feGaussianBlur stdDeviation=".0698324"/><feColorMatrix type="matrix" values="0 0 0 0 0.759578 0 0 0 0 0.759578 0 0 0 0 0.759578 0 0 0 1 0"/><feBlend in2="BackgroundImageFix" mode="normal" result="effect1_dropShadow_470_9618"/><feColorMatrix in="SourceAlpha" result="hardAlpha" type="matrix" values="0 0 0 0 0 0 0 0 0 0 0 0 0 0 0 0 0 0 127 0"/><feOffset dx=".558659" dy=".558659"/><feGaussianBlur stdDeviation=".27933"/><feColorMatrix type="matrix" values="0 0 0 0 1 0 0 0 0 1 0 0 0 0 1 0 0 0 0.8 0"/><feBlend in2="effect1_dropShadow_470_9618" mode="normal" result="effect2_dropShadow_470_9618"/><feBlend in="SourceGraphic" in2="effect2_dropShadow_470_9618" mode="normal" result="shape"/><feGaussianBlur result="effect3_foregroundBlur_470_9618" stdDeviation=".027933"/></filter><filter id="g" color-interpolation-filters="sRGB" filterUnits="userSpaceOnUse" height="195.301" width="195.29" x="46.8971" y="47.3463"><feFlood flood-opacity="0" result="BackgroundImageFix"/><feColorMatrix in="SourceAlpha" result="hardAlpha" type="matrix" values="0 0 0 0 0 0 0 0 0 0 0 0 0 0 0 0 0 0 127 0"/><feOffset dx="11.1732" dy="11.1732"/><feGaussianBlur stdDeviation="16.7598"/><feComposite in2="hardAlpha" operator="out"/><feColorMatrix type="matrix" values="0 0 0 0 0.823529 0 0 0 0 0.823529 0 0 0 0 0.823529 0 0 0 1 0"/><feBlend in2="BackgroundImageFix" mode="normal" result="effect1_dropShadow_470_9618"/><feColorMatrix in="SourceAlpha" result="hardAlpha" type="matrix" values="0 0 0 0 0 0 0 0 0 0 0 0 0 0 0 0 0 0 127 0"/><feOffset dx="-11.1732" dy="-11.1732"/><feGaussianBlur stdDeviation="16.7598"/><feComposite in2="hardAlpha" operator="out"/><feColorMatrix type="matrix" values="0 0 0 0 1 0 0 0 0 1 0 0 0 0 1 0 0 0 1 0"/><feBlend in2="effect1_dropShadow_470_9618" mode="normal" result="effect2_dropShadow_470_9618"/><feBlend in="SourceGraphic" in2="effect2_dropShadow_470_9618" mode="normal" result="shape"/></filter><filter id="h" color-interpolation-filters="sRGB" filterUnits="userSpaceOnUse" height="93.1042" width="119.19" x="86.3837" y="99.241"><feFlood flood-opacity="0" result="BackgroundImageFix"/><feColorMatrix in="SourceAlpha" result="hardAlpha" type="matrix" values="0 0 0 0 0 0 0 0 0 0 0 0 0 0 0 0 0 0 127 0"/><feOffset dx="2.23464" dy="3.35196"/><feGaussianBlur stdDeviation="4.46927"/><feComposite in2="hardAlpha" operator="out"/><feColorMatrix type="matrix" values="0 0 0 0 0.814885 0 0 0 0 0.814885 0 0 0 0 0.814885 0 0 0 1 0"/><feBlend in2="BackgroundImageFix" mode="normal" result="effect1_dropShadow_470_9618"/><feColorMatrix in="SourceAlpha" result="hardAlpha" type="matrix" values="0 0 0 0 0 0 0 0 0 0 0 0 0 0 0 0 0 0 127 0"/><feOffset dx="-2.23464" dy="-3.35196"/><feGaussianBlur stdDeviation="3.35196"/><feComposite in2="hardAlpha" operator="out"/><feColorMatrix type="matrix" values="0 0 0 0 1 0 0 0 0 1 0 0 0 0 1 0 0 0 1 0"/><feBlend in2="effect1_dropShadow_470_9618" mode="normal" result="effect2_dropShadow_470_9618"/><feBlend in="SourceGraphic" in2="effect2_dropShadow_470_9618" mode="normal" result="shape"/></filter><linearGradient id="i"><stop offset="0" stop-color="#fff"/><stop offset="1" stop-color="#dedede"/></linearGradient><linearGradient id="j" gradientUnits="userSpaceOnUse" x1="45" x2="245" xlink:href="#i" y1="45" y2="245"/><linearGradient id="k"><stop offset="0" stop-color="#cdcdcd"/><stop offset="1" stop-color="#676767"/></linearGradient><linearGradient id="l" gradientUnits="userSpaceOnUse" x1="175.623" x2="162.234" xlink:href="#k" y1="235.961" y2="222.572"/><linearGradient id="m"><stop offset="0" stop-opacity=".2"/><stop offset="1" stop-color="#666"/></linearGradient><linearGradient id="n" gradientUnits="userSpaceOnUse" x1="162.234" x2="175.623" xlink:href="#m" y1="222.572" y2="235.961"/><linearGradient id="o"><stop offset="0" stop-color="#676767"/><stop offset="1" stop-color="#cdcdcd"/></linearGradient><linearGradient id="p" gradientUnits="userSpaceOnUse" x1="174.182" x2="163.883" xlink:href="#o" y1="234.52" y2="224.221"/><linearGradient id="q"><stop offset="0" stop-color="#676767"/><stop offset="1" stop-color="#323232"/></linearGradient><linearGradient id="r" gradientUnits="userSpaceOnUse" x1="172.636" x2="165.684" xlink:href="#q" y1="232.717" y2="226.28"/><linearGradient id="s" gradientUnits="userSpaceOnUse" x1="195.734" x2="182.345" xlink:href="#k" y1="235.961" y2="222.572"/><linearGradient id="t" gradientUnits="userSpaceOnUse" x1="182.345" x2="195.734" xlink:href="#m" y1="222.572" y2="235.961"/><linearGradient id="u" gradientUnits="userSpaceOnUse" x1="194.294" x2="183.994" xlink:href="#o" y1="234.52" y2="224.221"/><linearGradient id="v" gradientUnits="userSpaceOnUse" x1="192.748" x2="185.796" xlink:href="#q" y1="232.717" y2="226.28"/><linearGradient id="w" gradientUnits="userSpaceOnUse" x1="215.846" x2="202.457" xlink:href="#k" y1="235.961" y2="222.572"/><linearGradient id="x" gradientUnits="userSpaceOnUse" x1="202.457" x2="215.846" xlink:href="#m" y1="222.572" y2="235.961"/><linearGradient id="y" gradientUnits="userSpaceOnUse" x1="214.405" x2="204.106" xlink:href="#o" y1="234.52" y2="224.221"/><linearGradient id="z" gradientUnits="userSpaceOnUse" x1="212.859" x2="205.907" xlink:href="#q" y1="232.717" y2="226.28"/><linearGradient id="A" gradientUnits="userSpaceOnUse" x1="235.957" x2="222.568" xlink:href="#k" y1="235.961" y2="222.572"/><linearGradient id="B" gradientUnits="userSpaceOnUse" x1="222.568" x2="235.957" xlink:href="#m" y1="222.572" y2="235.961"/><linearGradient id="C" gradientUnits="userSpaceOnUse" x1="234.516" x2="224.217" xlink:href="#o" y1="234.52" y2="224.221"/><linearGradient id="D" gradientUnits="userSpaceOnUse" x1="232.97" x2="226.018" xlink:href="#q" y1="232.717" y2="226.28"/><linearGradient id="E" gradientUnits="userSpaceOnUse" x1="91.3606" x2="196.811" xlink:href="#i" y1="92.2695" y2="198.629"/><clipPath id="F"><rect height="200" rx="8.93855" width="200" x="45" y="45"/></clipPath><mask id="G" height="131" maskUnits="userSpaceOnUse" width="137" x="77" y="77"><path d="m213.158 207.569h-39.976v-9.84h-1.31c5.877-3.011 11.337-7.068 16.099-12.166 22.236-23.804 20.822-61.262-3.16-83.665-23.983-22.4021-61.451-21.2652-83.688 2.54-22.2361 23.804-20.8208 61.262 3.161 83.665 4.21 3.932 8.837 7.139 13.723 9.626h-.279v9.84h-40.3237v-129.6081h135.7537z" fill="#fafafa"/></mask><g filter="url(#a)"><g clip-path="url(#F)"><rect fill="#f7f7f7" height="200" rx="8.93855" width="200" x="45" y="45"/><rect fill="url(#j)" fill-opacity=".5" height="200" rx="8.93855" width="200" x="45" y="45"/><g mask="url(#G)" stroke="#000"><g stroke-width=".454545"><path d="m82.4976 155.784 125.4384-22.118"/><path d="m156.091 207.709-22.118-125.4377"/><path d="m96.2231 186.16 97.5739-81.874"/><path d="m185.918 194.33-81.874-97.5739"/><path d="m123.247 204.871 43.565-119.6912"/><path d="m205.012 167.098-119.6915-43.564"/><path d="m85.2855 166.507 119.6915-43.564"/><path d="m166.779 204.861-43.565-119.6917"/><path d="m104.072 194.043 81.874-97.5732"/><path d="m193.825 186.514-97.5739-81.874"/><path d="m133.936 207.777 22.118-125.4382"/><path d="m207.9 156.38-125.4381-22.118"/><path d="m81.8142 150.279 126.8888-11.101"/><path d="m150.604 208.42-11.102-126.8883"/><path d="m92.8403 181.732 104.3377-73.058"/><path d="m181.484 197.687-73.059-104.338"/><path d="m118.132 202.732 53.83-115.4393"/><path d="m202.877 172.229-115.4397-53.83"/><path d="m83.6541 161.208 123.0329-32.966"/><path d="m161.493 206.52-32.966-123.0333"/></g><path d="m99.9741 190.271 90.0669-90.067" stroke-width=".454546"/><path d="m190.04 190.592-90.066-90.066" stroke-width=".454546"/><path d="m128.529 206.558 32.966-123.0327" stroke-width=".454545"/><path d="m206.689 161.804-123.0328-32.967" stroke-width=".454545"/><path d="m83.6541 161.212 123.0329-32.967" stroke-width=".454545"/><path d="m161.493 206.522-32.966-123.0334" stroke-width=".454545"/><path d="m99.9702 190.275 90.0668-90.067" stroke-width=".454545"/><path d="m190.037 190.596-90.0669-90.066" stroke-width=".454545"/><path d="m128.529 206.556 32.966-123.0327" stroke-width=".454545"/><path d="m206.689 161.802-123.0328-32.967" stroke-width=".454545"/><path d="m87.359 171.649 115.439-53.83" stroke-width=".454545"/><path d="m171.884 202.756-53.83-115.4391" stroke-width=".454545"/><path d="m108.476 197.442 73.058-104.3381" stroke-width=".454545"/><path d="m197.229 182.118-104.338-73.058" stroke-width=".454545"/><path d="m139.428 208.521 11.101-126.8883" stroke-width=".454545"/><path d="m208.629 150.873-126.8889-11.101" stroke-width=".454545"/><path d="m77.3613 144.032h135.9117" stroke-width="1.81818"/><path d="m144.405 212.893v-135.9117" stroke-width="1.81818"/><path d="m85.8208 178.584 117.7022-67.956" stroke-width="1.81818"/><path d="m178.318 204.699-67.955-117.703" stroke-width="1.81818"/><path d="m110.51 203.495 67.955-117.703" stroke-width="1.81818"/><path d="m203.672 179.863-117.7022-67.955" stroke-width="1.81818"/></g><g filter="url(#b)"><circle cx="169.022" cy="229.36" fill="url(#l)" r="6.70391" stroke="url(#n)" stroke-width="1.11732"/><circle cx="169.023" cy="229.361" fill="url(#p)" r="5.36313"/><circle cx="169.023" cy="229.361" fill="url(#r)" r="4.34123"/></g><g filter="url(#c)"><circle cx="189.134" cy="229.36" fill="url(#s)" r="6.70391" stroke="url(#t)" stroke-width="1.11732"/><circle cx="189.135" cy="229.361" fill="url(#u)" r="5.36313"/><circle cx="189.134" cy="229.361" fill="url(#v)" r="4.34123"/></g><g filter="url(#d)"><circle cx="209.245" cy="229.36" fill="url(#w)" r="6.70391" stroke="url(#x)" stroke-width="1.11732"/><circle cx="209.246" cy="229.361" fill="url(#y)" r="5.36313"/><circle cx="209.246" cy="229.361" fill="url(#z)" r="4.34123"/></g><g filter="url(#e)"><circle cx="229.356" cy="229.36" fill="url(#A)" r="6.70391" stroke="url(#B)" stroke-width="1.11732"/><circle cx="229.357" cy="229.361" fill="url(#C)" r="5.36313"/><circle cx="229.357" cy="229.361" fill="url(#D)" r="4.34123"/></g><path d="m67.3471 227.954c-.0079-.191-.1928-.312-.4068-.312l-1.6459.009c-1.2523-.039-2.6287.134-3.2786-.314-.0079-.01-.0158-.02-.0264-.027-.5099-.59.2932-3.138.5205-3.738.1373-.422.1875-.982-.4175-.972-2.7924.365-5.0565 4.744-6.9085 6.618-.4438.471-1.0092 1.068-1.1439 1.202-.0687.065-.103.148-.1004.234.0079.19.1929.311.4068.311l1.6459-.009c1.2523.039 2.6287-.134 3.2786.314.0079.01.0159.02.0264.027.5099.59-.2932 3.139-.5204 3.738-.1374.422-.1876.982.4174.972 2.7925-.365 5.0566-4.744 6.9085-6.618.4438-.471 1.0092-1.068 1.1439-1.202.0687-.065.1031-.148.1004-.233z" fill="#000" stroke="#000" stroke-width=".740048"/><g fill="#808679" filter="url(#f)"><path d="m57.3691 60.5936c-.3405 0-.631-.0881-.8714-.2644-.2403-.1803-.4246-.4327-.5528-.7572-.1282-.3286-.1923-.7112-.1923-1.1479 0-.4447.0641-.8293.1923-1.1538s.3125-.5749.5528-.7512c.2404-.1763.5309-.2644.8714-.2644.3446 0 .6351.0881.8714.2644.2404.1763.4247.4267.5529.7512.1282.3205.1923.7051.1923 1.1538 0 .4407-.0641.8233-.1923 1.1479-.1282.3245-.3125.5769-.5529.7572-.2363.1763-.5268.2644-.8714.2644zm0-.5409c.3165 0 .5549-.1422.7152-.4266.1602-.2885.2404-.6892.2404-1.202 0-.5208-.0802-.9214-.2404-1.2019-.1603-.2844-.3987-.4267-.7152-.4267-.3125 0-.5488.1423-.7091.4267-.1603.2805-.2404.6811-.2404 1.2019 0 .5128.0801.9135.2404 1.202.1603.2844.3966.4266.7091.4266zm4.4615.4688v-2.5902l.0301-.8533-.6791.5529-.7512.6009v-.7512l1.5745-1.1538h.4627v4.1947zm-1.4002 0v-.5409h2.9687v.5409z"/><path d="m217.588 58.977v-.625h1.893v.625zm6.324 2.1274 2.326-4.7836h.745l-2.326 4.7836zm6.919-2.1214v-.625h3.059v.625zm1.22 1.226v-3.0589h.625v3.0589z"/></g><g filter="url(#g)"><ellipse cx="144.542" cy="144.997" fill="#f7f7f7" rx="53.1818" ry="52.7273" transform="matrix(.70327684 -.71091609 .71091609 .70327684 -60.191741 145.781202)"/><ellipse cx="144.542" cy="144.997" fill="url(#E)" fill-opacity=".2" rx="53.1818" ry="52.7273" transform="matrix(.70327684 -.71091609 .71091609 .70327684 -60.191741 145.781202)"/></g><g filter="url(#h)"><rect fill="#f7f7f7" height="16.3636" rx="2.23464" transform="matrix(.84311657 .53773083 -.53773083 .84311657 74.515729 -38.518777)" width="109.094" x="103.271" y="108.445"/></g><path d="m185.137 167.514c.223-.35.737-.343.95.014l2.094 3.498c.237.395-.079.89-.537.842l-4.055-.423c-.413-.043-.636-.506-.413-.856z" fill="#6c6c6c"/></g><rect height="198.324" rx="8.10056" stroke="#b3b3b3" stroke-opacity=".1" stroke-width="1.67598" width="198.324" x="45.838" y="45.838"/></g></svg>