<svg width="290" height="290" viewBox="0 0 290 290" fill="none" xmlns="http://www.w3.org/2000/svg">
<g filter="url(#filter0_ddd_470_9618)">
<g clip-path="url(#clip0_470_9618)">
<rect x="45" y="45" width="200" height="200" rx="8.93855" fill="#F7F7F7"/>
<rect x="45" y="45" width="200" height="200" rx="8.93855" fill="url(#paint0_linear_470_9618)" fill-opacity="0.5"/>
<mask id="mask0_470_9618" style="mask-type:alpha" maskUnits="userSpaceOnUse" x="77" y="77" width="137" height="131">
<path d="M213.158 207.569H173.182V197.729H171.872C177.749 194.718 183.209 190.661 187.971 185.563C210.207 161.759 208.793 124.301 184.811 101.898C160.828 79.4959 123.36 80.6328 101.123 104.438C78.8869 128.242 80.3022 165.7 104.284 188.103C108.494 192.035 113.121 195.242 118.007 197.729H117.728V207.569H77.4043V77.9609H213.158V207.569Z" fill="#FAFAFA"/>
</mask>
<g mask="url(#mask0_470_9618)">
<line x1="82.4976" y1="155.784" x2="207.936" y2="133.666" stroke="black" stroke-width="0.454545"/>
<line x1="156.091" y1="207.709" x2="133.973" y2="82.2713" stroke="black" stroke-width="0.454545"/>
<line x1="96.2231" y1="186.16" x2="193.797" y2="104.286" stroke="black" stroke-width="0.454545"/>
<line x1="185.918" y1="194.33" x2="104.044" y2="96.7561" stroke="black" stroke-width="0.454545"/>
<line x1="123.247" y1="204.871" x2="166.812" y2="85.1798" stroke="black" stroke-width="0.454545"/>
<line x1="205.012" y1="167.098" x2="85.3205" y2="123.534" stroke="black" stroke-width="0.454545"/>
<line x1="85.2855" y1="166.507" x2="204.977" y2="122.943" stroke="black" stroke-width="0.454545"/>
<line x1="166.779" y1="204.861" x2="123.214" y2="85.1693" stroke="black" stroke-width="0.454545"/>
<line x1="104.072" y1="194.043" x2="185.946" y2="96.4698" stroke="black" stroke-width="0.454545"/>
<line x1="193.825" y1="186.514" x2="96.2511" y2="104.64" stroke="black" stroke-width="0.454545"/>
<line x1="133.936" y1="207.777" x2="156.054" y2="82.3388" stroke="black" stroke-width="0.454545"/>
<line x1="207.9" y1="156.38" x2="82.4619" y2="134.262" stroke="black" stroke-width="0.454545"/>
<line x1="81.8142" y1="150.279" x2="208.703" y2="139.178" stroke="black" stroke-width="0.454545"/>
<line x1="150.604" y1="208.42" x2="139.502" y2="81.5317" stroke="black" stroke-width="0.454545"/>
<line x1="92.8403" y1="181.732" x2="197.178" y2="108.674" stroke="black" stroke-width="0.454545"/>
<line x1="181.484" y1="197.687" x2="108.425" y2="93.349" stroke="black" stroke-width="0.454545"/>
<line x1="118.132" y1="202.732" x2="171.962" y2="87.2927" stroke="black" stroke-width="0.454545"/>
<line x1="202.877" y1="172.229" x2="87.4373" y2="118.399" stroke="black" stroke-width="0.454545"/>
<line x1="83.6541" y1="161.208" x2="206.687" y2="128.242" stroke="black" stroke-width="0.454545"/>
<line x1="161.493" y1="206.52" x2="128.527" y2="83.4867" stroke="black" stroke-width="0.454545"/>
<line x1="99.9741" y1="190.271" x2="190.041" y2="100.204" stroke="black" stroke-width="0.454546"/>
<line x1="190.04" y1="190.592" x2="99.974" y2="100.526" stroke="black" stroke-width="0.454546"/>
<line x1="128.529" y1="206.558" x2="161.495" y2="83.5253" stroke="black" stroke-width="0.454545"/>
<line x1="206.689" y1="161.804" x2="83.6562" y2="128.837" stroke="black" stroke-width="0.454545"/>
<line x1="83.6541" y1="161.212" x2="206.687" y2="128.245" stroke="black" stroke-width="0.454545"/>
<line x1="161.493" y1="206.522" x2="128.527" y2="83.4886" stroke="black" stroke-width="0.454545"/>
<line x1="99.9702" y1="190.275" x2="190.037" y2="100.208" stroke="black" stroke-width="0.454545"/>
<line x1="190.037" y1="190.596" x2="99.9701" y2="100.53" stroke="black" stroke-width="0.454545"/>
<line x1="128.529" y1="206.556" x2="161.495" y2="83.5233" stroke="black" stroke-width="0.454545"/>
<line x1="206.689" y1="161.802" x2="83.6562" y2="128.835" stroke="black" stroke-width="0.454545"/>
<line x1="87.359" y1="171.649" x2="202.798" y2="117.819" stroke="black" stroke-width="0.454545"/>
<line x1="171.884" y1="202.756" x2="118.054" y2="87.3169" stroke="black" stroke-width="0.454545"/>
<line x1="108.476" y1="197.442" x2="181.534" y2="93.1039" stroke="black" stroke-width="0.454545"/>
<line x1="197.229" y1="182.118" x2="92.891" y2="109.06" stroke="black" stroke-width="0.454545"/>
<line x1="139.428" y1="208.521" x2="150.529" y2="81.6327" stroke="black" stroke-width="0.454545"/>
<line x1="208.629" y1="150.873" x2="81.7401" y2="139.772" stroke="black" stroke-width="0.454545"/>
<line x1="77.3613" y1="144.032" x2="213.273" y2="144.032" stroke="black" stroke-width="1.81818"/>
<line x1="144.405" y1="212.893" x2="144.405" y2="76.9813" stroke="black" stroke-width="1.81818"/>
<line x1="85.8208" y1="178.584" x2="203.523" y2="110.628" stroke="black" stroke-width="1.81818"/>
<line x1="178.318" y1="204.699" x2="110.363" y2="86.996" stroke="black" stroke-width="1.81818"/>
<line x1="110.51" y1="203.495" x2="178.465" y2="85.792" stroke="black" stroke-width="1.81818"/>
<line x1="203.672" y1="179.863" x2="85.9698" y2="111.908" stroke="black" stroke-width="1.81818"/>
</g>
<g style="mix-blend-mode:multiply" filter="url(#filter1_dd_470_9618)">
<circle cx="169.022" cy="229.36" r="6.70391" fill="url(#paint1_linear_470_9618)" stroke="url(#paint2_linear_470_9618)" stroke-width="1.11732"/>
<circle cx="169.023" cy="229.361" r="5.36313" fill="url(#paint3_linear_470_9618)"/>
<circle cx="169.023" cy="229.361" r="4.34123" fill="url(#paint4_linear_470_9618)"/>
</g>
<g style="mix-blend-mode:multiply" filter="url(#filter2_dd_470_9618)">
<circle cx="189.134" cy="229.36" r="6.70391" fill="url(#paint5_linear_470_9618)" stroke="url(#paint6_linear_470_9618)" stroke-width="1.11732"/>
<circle cx="189.135" cy="229.361" r="5.36313" fill="url(#paint7_linear_470_9618)"/>
<circle cx="189.134" cy="229.361" r="4.34123" fill="url(#paint8_linear_470_9618)"/>
</g>
<g style="mix-blend-mode:multiply" filter="url(#filter3_dd_470_9618)">
<circle cx="209.245" cy="229.36" r="6.70391" fill="url(#paint9_linear_470_9618)" stroke="url(#paint10_linear_470_9618)" stroke-width="1.11732"/>
<circle cx="209.246" cy="229.361" r="5.36313" fill="url(#paint11_linear_470_9618)"/>
<circle cx="209.246" cy="229.361" r="4.34123" fill="url(#paint12_linear_470_9618)"/>
</g>
<g style="mix-blend-mode:multiply" filter="url(#filter4_dd_470_9618)">
<circle cx="229.356" cy="229.36" r="6.70391" fill="url(#paint13_linear_470_9618)" stroke="url(#paint14_linear_470_9618)" stroke-width="1.11732"/>
<circle cx="229.357" cy="229.361" r="5.36313" fill="url(#paint15_linear_470_9618)"/>
<circle cx="229.357" cy="229.361" r="4.34123" fill="url(#paint16_linear_470_9618)"/>
</g>
<path d="M67.3471 227.954C67.3392 227.763 67.1543 227.642 66.9403 227.642L65.2944 227.651C64.0421 227.612 62.6657 227.785 62.0158 227.337C62.0079 227.327 62 227.317 61.9894 227.31C61.4795 226.72 62.2826 224.172 62.5099 223.572C62.6472 223.15 62.6974 222.59 62.0924 222.6C59.3 222.965 57.0359 227.344 55.1839 229.218C54.7401 229.689 54.1747 230.286 54.04 230.42C53.9713 230.485 53.937 230.568 53.9396 230.654C53.9475 230.844 54.1325 230.965 54.3464 230.965L55.9923 230.956C57.2446 230.995 58.621 230.822 59.2709 231.27C59.2788 231.28 59.2868 231.29 59.2973 231.297C59.8072 231.887 59.0041 234.436 58.7769 235.035C58.6395 235.457 58.5893 236.017 59.1943 236.007C61.9868 235.642 64.2509 231.263 66.1028 229.389C66.5466 228.918 67.112 228.321 67.2467 228.187C67.3154 228.122 67.3498 228.039 67.3471 227.954Z" fill="black" stroke="black" stroke-width="0.740048"/>
<g style="mix-blend-mode:multiply" filter="url(#filter5_ddf_470_9618)">
<path d="M57.3691 60.5936C57.0286 60.5936 56.7381 60.5055 56.4977 60.3292C56.2574 60.1489 56.0731 59.8965 55.9449 59.572C55.8167 59.2434 55.7526 58.8608 55.7526 58.4241C55.7526 57.9794 55.8167 57.5948 55.9449 57.2703C56.0731 56.9458 56.2574 56.6954 56.4977 56.5191C56.7381 56.3428 57.0286 56.2547 57.3691 56.2547C57.7137 56.2547 58.0042 56.3428 58.2405 56.5191C58.4809 56.6954 58.6652 56.9458 58.7934 57.2703C58.9216 57.5908 58.9857 57.9754 58.9857 58.4241C58.9857 58.8648 58.9216 59.2474 58.7934 59.572C58.6652 59.8965 58.4809 60.1489 58.2405 60.3292C58.0042 60.5055 57.7137 60.5936 57.3691 60.5936ZM57.3691 60.0527C57.6856 60.0527 57.924 59.9105 58.0843 59.6261C58.2445 59.3376 58.3247 58.9369 58.3247 58.4241C58.3247 57.9033 58.2445 57.5027 58.0843 57.2222C57.924 56.9378 57.6856 56.7955 57.3691 56.7955C57.0566 56.7955 56.8203 56.9378 56.66 57.2222C56.4997 57.5027 56.4196 57.9033 56.4196 58.4241C56.4196 58.9369 56.4997 59.3376 56.66 59.6261C56.8203 59.9105 57.0566 60.0527 57.3691 60.0527ZM61.8306 60.5215V57.9313L61.8607 57.078L61.1816 57.6309L60.4304 58.2318V57.4806L62.0049 56.3268H62.4676V60.5215H61.8306ZM60.4304 60.5215V59.9806H63.3991V60.5215H60.4304Z" fill="#808679"/>
<path d="M217.588 58.977V58.352H219.481V58.977H217.588ZM223.912 61.1044L226.238 56.3208H226.983L224.657 61.1044H223.912ZM230.831 58.983V58.358H233.89V58.983H230.831ZM232.051 60.209V57.1501H232.676V60.209H232.051Z" fill="#808679"/>
</g>
<g filter="url(#filter6_dd_470_9618)">
<ellipse cx="144.542" cy="144.997" rx="53.1818" ry="52.7273" transform="rotate(-45.3095 144.542 144.997)" fill="#F7F7F7"/>
<ellipse cx="144.542" cy="144.997" rx="53.1818" ry="52.7273" transform="rotate(-45.3095 144.542 144.997)" fill="url(#paint17_linear_470_9618)" fill-opacity="0.2"/>
</g>
<g filter="url(#filter7_dd_470_9618)">
<rect x="103.271" y="108.445" width="109.094" height="16.3636" rx="2.23464" transform="rotate(32.5293 103.271 108.445)" fill="#F7F7F7"/>
</g>
<path d="M185.137 167.514C185.36 167.164 185.874 167.171 186.087 167.528L188.181 171.026C188.418 171.421 188.102 171.916 187.644 171.868L183.589 171.445C183.176 171.402 182.953 170.939 183.176 170.589L185.137 167.514Z" fill="#6C6C6C"/>
</g>
<rect x="45.838" y="45.838" width="198.324" height="198.324" rx="8.10056" stroke="#B3B3B3" stroke-opacity="0.1" stroke-width="1.67598" style="mix-blend-mode:multiply"/>
</g>
<defs>
<filter id="filter0_ddd_470_9618" x="0.307265" y="0.307265" width="289.385" height="289.385" filterUnits="userSpaceOnUse" color-interpolation-filters="sRGB">
<feFlood flood-opacity="0" result="BackgroundImageFix"/>
<feColorMatrix in="SourceAlpha" type="matrix" values="0 0 0 0 0 0 0 0 0 0 0 0 0 0 0 0 0 0 127 0" result="hardAlpha"/>
<feOffset dx="11.1732" dy="11.1732"/>
<feGaussianBlur stdDeviation="16.7598"/>
<feComposite in2="hardAlpha" operator="out"/>
<feColorMatrix type="matrix" values="0 0 0 0 0.823529 0 0 0 0 0.823529 0 0 0 0 0.823529 0 0 0 1 0"/>
<feBlend mode="normal" in2="BackgroundImageFix" result="effect1_dropShadow_470_9618"/>
<feColorMatrix in="SourceAlpha" type="matrix" values="0 0 0 0 0 0 0 0 0 0 0 0 0 0 0 0 0 0 127 0" result="hardAlpha"/>
<feOffset dx="-11.1732" dy="-11.1732"/>
<feGaussianBlur stdDeviation="16.7598"/>
<feComposite in2="hardAlpha" operator="out"/>
<feColorMatrix type="matrix" values="0 0 0 0 1 0 0 0 0 1 0 0 0 0 1 0 0 0 1 0"/>
<feBlend mode="normal" in2="effect1_dropShadow_470_9618" result="effect2_dropShadow_470_9618"/>
<feColorMatrix in="SourceAlpha" type="matrix" values="0 0 0 0 0 0 0 0 0 0 0 0 0 0 0 0 0 0 127 0" result="hardAlpha"/>
<feOffset dx="4.46927" dy="4.46927"/>
<feGaussianBlur stdDeviation="4.46927"/>
<feComposite in2="hardAlpha" operator="out"/>
<feColorMatrix type="matrix" values="0 0 0 0 0.5 0 0 0 0 0.5 0 0 0 0 0.5 0 0 0 0.2 0"/>
<feBlend mode="normal" in2="effect2_dropShadow_470_9618" result="effect3_dropShadow_470_9618"/>
<feBlend mode="normal" in="SourceGraphic" in2="effect3_dropShadow_470_9618" result="shape"/>
</filter>
<filter id="filter1_dd_470_9618" x="159.413" y="219.751" width="21.341" height="21.341" filterUnits="userSpaceOnUse" color-interpolation-filters="sRGB">
<feFlood flood-opacity="0" result="BackgroundImageFix"/>
<feColorMatrix in="SourceAlpha" type="matrix" values="0 0 0 0 0 0 0 0 0 0 0 0 0 0 0 0 0 0 127 0" result="hardAlpha"/>
<feOffset dx="-0.111732" dy="-0.111732"/>
<feGaussianBlur stdDeviation="1.11732"/>
<feComposite in2="hardAlpha" operator="out"/>
<feColorMatrix type="matrix" values="0 0 0 0 0.569787 0 0 0 0 0.569787 0 0 0 0 0.569787 0 0 0 0.5 0"/>
<feBlend mode="normal" in2="BackgroundImageFix" result="effect1_dropShadow_470_9618"/>
<feColorMatrix in="SourceAlpha" type="matrix" values="0 0 0 0 0 0 0 0 0 0 0 0 0 0 0 0 0 0 127 0" result="hardAlpha"/>
<feOffset dx="2.23464" dy="2.23464"/>
<feGaussianBlur stdDeviation="1.11732"/>
<feComposite in2="hardAlpha" operator="out"/>
<feColorMatrix type="matrix" values="0 0 0 0 1 0 0 0 0 1 0 0 0 0 1 0 0 0 1 0"/>
<feBlend mode="normal" in2="effect1_dropShadow_470_9618" result="effect2_dropShadow_470_9618"/>
<feBlend mode="normal" in="SourceGraphic" in2="effect2_dropShadow_470_9618" result="shape"/>
</filter>
<filter id="filter2_dd_470_9618" x="179.525" y="219.751" width="21.341" height="21.341" filterUnits="userSpaceOnUse" color-interpolation-filters="sRGB">
<feFlood flood-opacity="0" result="BackgroundImageFix"/>
<feColorMatrix in="SourceAlpha" type="matrix" values="0 0 0 0 0 0 0 0 0 0 0 0 0 0 0 0 0 0 127 0" result="hardAlpha"/>
<feOffset dx="-0.111732" dy="-0.111732"/>
<feGaussianBlur stdDeviation="1.11732"/>
<feComposite in2="hardAlpha" operator="out"/>
<feColorMatrix type="matrix" values="0 0 0 0 0.569787 0 0 0 0 0.569787 0 0 0 0 0.569787 0 0 0 0.5 0"/>
<feBlend mode="normal" in2="BackgroundImageFix" result="effect1_dropShadow_470_9618"/>
<feColorMatrix in="SourceAlpha" type="matrix" values="0 0 0 0 0 0 0 0 0 0 0 0 0 0 0 0 0 0 127 0" result="hardAlpha"/>
<feOffset dx="2.23464" dy="2.23464"/>
<feGaussianBlur stdDeviation="1.11732"/>
<feComposite in2="hardAlpha" operator="out"/>
<feColorMatrix type="matrix" values="0 0 0 0 1 0 0 0 0 1 0 0 0 0 1 0 0 0 1 0"/>
<feBlend mode="normal" in2="effect1_dropShadow_470_9618" result="effect2_dropShadow_470_9618"/>
<feBlend mode="normal" in="SourceGraphic" in2="effect2_dropShadow_470_9618" result="shape"/>
</filter>
<filter id="filter3_dd_470_9618" x="199.636" y="219.751" width="21.341" height="21.341" filterUnits="userSpaceOnUse" color-interpolation-filters="sRGB">
<feFlood flood-opacity="0" result="BackgroundImageFix"/>
<feColorMatrix in="SourceAlpha" type="matrix" values="0 0 0 0 0 0 0 0 0 0 0 0 0 0 0 0 0 0 127 0" result="hardAlpha"/>
<feOffset dx="-0.111732" dy="-0.111732"/>
<feGaussianBlur stdDeviation="1.11732"/>
<feComposite in2="hardAlpha" operator="out"/>
<feColorMatrix type="matrix" values="0 0 0 0 0.569787 0 0 0 0 0.569787 0 0 0 0 0.569787 0 0 0 0.5 0"/>
<feBlend mode="normal" in2="BackgroundImageFix" result="effect1_dropShadow_470_9618"/>
<feColorMatrix in="SourceAlpha" type="matrix" values="0 0 0 0 0 0 0 0 0 0 0 0 0 0 0 0 0 0 127 0" result="hardAlpha"/>
<feOffset dx="2.23464" dy="2.23464"/>
<feGaussianBlur stdDeviation="1.11732"/>
<feComposite in2="hardAlpha" operator="out"/>
<feColorMatrix type="matrix" values="0 0 0 0 1 0 0 0 0 1 0 0 0 0 1 0 0 0 1 0"/>
<feBlend mode="normal" in2="effect1_dropShadow_470_9618" result="effect2_dropShadow_470_9618"/>
<feBlend mode="normal" in="SourceGraphic" in2="effect2_dropShadow_470_9618" result="shape"/>
</filter>
<filter id="filter4_dd_470_9618" x="219.747" y="219.751" width="21.341" height="21.341" filterUnits="userSpaceOnUse" color-interpolation-filters="sRGB">
<feFlood flood-opacity="0" result="BackgroundImageFix"/>
<feColorMatrix in="SourceAlpha" type="matrix" values="0 0 0 0 0 0 0 0 0 0 0 0 0 0 0 0 0 0 127 0" result="hardAlpha"/>
<feOffset dx="-0.111732" dy="-0.111732"/>
<feGaussianBlur stdDeviation="1.11732"/>
<feComposite in2="hardAlpha" operator="out"/>
<feColorMatrix type="matrix" values="0 0 0 0 0.569787 0 0 0 0 0.569787 0 0 0 0 0.569787 0 0 0 0.5 0"/>
<feBlend mode="normal" in2="BackgroundImageFix" result="effect1_dropShadow_470_9618"/>
<feColorMatrix in="SourceAlpha" type="matrix" values="0 0 0 0 0 0 0 0 0 0 0 0 0 0 0 0 0 0 127 0" result="hardAlpha"/>
<feOffset dx="2.23464" dy="2.23464"/>
<feGaussianBlur stdDeviation="1.11732"/>
<feComposite in2="hardAlpha" operator="out"/>
<feColorMatrix type="matrix" values="0 0 0 0 1 0 0 0 0 1 0 0 0 0 1 0 0 0 1 0"/>
<feBlend mode="normal" in2="effect1_dropShadow_470_9618" result="effect2_dropShadow_470_9618"/>
<feBlend mode="normal" in="SourceGraphic" in2="effect2_dropShadow_470_9618" result="shape"/>
</filter>
<filter id="filter5_ddf_470_9618" x="44.7207" y="44.7207" width="201.397" height="29.4416" filterUnits="userSpaceOnUse" color-interpolation-filters="sRGB">
<feFlood flood-opacity="0" result="BackgroundImageFix"/>
<feColorMatrix in="SourceAlpha" type="matrix" values="0 0 0 0 0 0 0 0 0 0 0 0 0 0 0 0 0 0 127 0" result="hardAlpha"/>
<feOffset dx="-0.139665" dy="-0.139665"/>
<feGaussianBlur stdDeviation="0.0698324"/>
<feColorMatrix type="matrix" values="0 0 0 0 0.759578 0 0 0 0 0.759578 0 0 0 0 0.759578 0 0 0 1 0"/>
<feBlend mode="normal" in2="BackgroundImageFix" result="effect1_dropShadow_470_9618"/>
<feColorMatrix in="SourceAlpha" type="matrix" values="0 0 0 0 0 0 0 0 0 0 0 0 0 0 0 0 0 0 127 0" result="hardAlpha"/>
<feOffset dx="0.558659" dy="0.558659"/>
<feGaussianBlur stdDeviation="0.27933"/>
<feColorMatrix type="matrix" values="0 0 0 0 1 0 0 0 0 1 0 0 0 0 1 0 0 0 0.8 0"/>
<feBlend mode="normal" in2="effect1_dropShadow_470_9618" result="effect2_dropShadow_470_9618"/>
<feBlend mode="normal" in="SourceGraphic" in2="effect2_dropShadow_470_9618" result="shape"/>
<feGaussianBlur stdDeviation="0.027933" result="effect3_foregroundBlur_470_9618"/>
</filter>
<filter id="filter6_dd_470_9618" x="46.8971" y="47.3463" width="195.29" height="195.301" filterUnits="userSpaceOnUse" color-interpolation-filters="sRGB">
<feFlood flood-opacity="0" result="BackgroundImageFix"/>
<feColorMatrix in="SourceAlpha" type="matrix" values="0 0 0 0 0 0 0 0 0 0 0 0 0 0 0 0 0 0 127 0" result="hardAlpha"/>
<feOffset dx="11.1732" dy="11.1732"/>
<feGaussianBlur stdDeviation="16.7598"/>
<feComposite in2="hardAlpha" operator="out"/>
<feColorMatrix type="matrix" values="0 0 0 0 0.823529 0 0 0 0 0.823529 0 0 0 0 0.823529 0 0 0 1 0"/>
<feBlend mode="normal" in2="BackgroundImageFix" result="effect1_dropShadow_470_9618"/>
<feColorMatrix in="SourceAlpha" type="matrix" values="0 0 0 0 0 0 0 0 0 0 0 0 0 0 0 0 0 0 127 0" result="hardAlpha"/>
<feOffset dx="-11.1732" dy="-11.1732"/>
<feGaussianBlur stdDeviation="16.7598"/>
<feComposite in2="hardAlpha" operator="out"/>
<feColorMatrix type="matrix" values="0 0 0 0 1 0 0 0 0 1 0 0 0 0 1 0 0 0 1 0"/>
<feBlend mode="normal" in2="effect1_dropShadow_470_9618" result="effect2_dropShadow_470_9618"/>
<feBlend mode="normal" in="SourceGraphic" in2="effect2_dropShadow_470_9618" result="shape"/>
</filter>
<filter id="filter7_dd_470_9618" x="86.3837" y="99.241" width="119.19" height="93.1042" filterUnits="userSpaceOnUse" color-interpolation-filters="sRGB">
<feFlood flood-opacity="0" result="BackgroundImageFix"/>
<feColorMatrix in="SourceAlpha" type="matrix" values="0 0 0 0 0 0 0 0 0 0 0 0 0 0 0 0 0 0 127 0" result="hardAlpha"/>
<feOffset dx="2.23464" dy="3.35196"/>
<feGaussianBlur stdDeviation="4.46927"/>
<feComposite in2="hardAlpha" operator="out"/>
<feColorMatrix type="matrix" values="0 0 0 0 0.814885 0 0 0 0 0.814885 0 0 0 0 0.814885 0 0 0 1 0"/>
<feBlend mode="normal" in2="BackgroundImageFix" result="effect1_dropShadow_470_9618"/>
<feColorMatrix in="SourceAlpha" type="matrix" values="0 0 0 0 0 0 0 0 0 0 0 0 0 0 0 0 0 0 127 0" result="hardAlpha"/>
<feOffset dx="-2.23464" dy="-3.35196"/>
<feGaussianBlur stdDeviation="3.35196"/>
<feComposite in2="hardAlpha" operator="out"/>
<feColorMatrix type="matrix" values="0 0 0 0 1 0 0 0 0 1 0 0 0 0 1 0 0 0 1 0"/>
<feBlend mode="normal" in2="effect1_dropShadow_470_9618" result="effect2_dropShadow_470_9618"/>
<feBlend mode="normal" in="SourceGraphic" in2="effect2_dropShadow_470_9618" result="shape"/>
</filter>
<linearGradient id="paint0_linear_470_9618" x1="45" y1="45" x2="245" y2="245" gradientUnits="userSpaceOnUse">
<stop stop-color="white"/>
<stop offset="1" stop-color="#DEDEDE"/>
</linearGradient>
<linearGradient id="paint1_linear_470_9618" x1="175.623" y1="235.961" x2="162.234" y2="222.572" gradientUnits="userSpaceOnUse">
<stop stop-color="#CDCDCD"/>
<stop offset="1" stop-color="#676767"/>
</linearGradient>
<linearGradient id="paint2_linear_470_9618" x1="162.234" y1="222.572" x2="175.623" y2="235.961" gradientUnits="userSpaceOnUse">
<stop stop-opacity="0.2"/>
<stop offset="1" stop-color="#666666"/>
</linearGradient>
<linearGradient id="paint3_linear_470_9618" x1="174.182" y1="234.52" x2="163.883" y2="224.221" gradientUnits="userSpaceOnUse">
<stop stop-color="#676767"/>
<stop offset="1" stop-color="#CDCDCD"/>
</linearGradient>
<linearGradient id="paint4_linear_470_9618" x1="172.636" y1="232.717" x2="165.684" y2="226.28" gradientUnits="userSpaceOnUse">
<stop stop-color="#676767"/>
<stop offset="1" stop-color="#323232"/>
</linearGradient>
<linearGradient id="paint5_linear_470_9618" x1="195.734" y1="235.961" x2="182.345" y2="222.572" gradientUnits="userSpaceOnUse">
<stop stop-color="#CDCDCD"/>
<stop offset="1" stop-color="#676767"/>
</linearGradient>
<linearGradient id="paint6_linear_470_9618" x1="182.345" y1="222.572" x2="195.734" y2="235.961" gradientUnits="userSpaceOnUse">
<stop stop-opacity="0.2"/>
<stop offset="1" stop-color="#666666"/>
</linearGradient>
<linearGradient id="paint7_linear_470_9618" x1="194.294" y1="234.52" x2="183.994" y2="224.221" gradientUnits="userSpaceOnUse">
<stop stop-color="#676767"/>
<stop offset="1" stop-color="#CDCDCD"/>
</linearGradient>
<linearGradient id="paint8_linear_470_9618" x1="192.748" y1="232.717" x2="185.796" y2="226.28" gradientUnits="userSpaceOnUse">
<stop stop-color="#676767"/>
<stop offset="1" stop-color="#323232"/>
</linearGradient>
<linearGradient id="paint9_linear_470_9618" x1="215.846" y1="235.961" x2="202.457" y2="222.572" gradientUnits="userSpaceOnUse">
<stop stop-color="#CDCDCD"/>
<stop offset="1" stop-color="#676767"/>
</linearGradient>
<linearGradient id="paint10_linear_470_9618" x1="202.457" y1="222.572" x2="215.846" y2="235.961" gradientUnits="userSpaceOnUse">
<stop stop-opacity="0.2"/>
<stop offset="1" stop-color="#666666"/>
</linearGradient>
<linearGradient id="paint11_linear_470_9618" x1="214.405" y1="234.52" x2="204.106" y2="224.221" gradientUnits="userSpaceOnUse">
<stop stop-color="#676767"/>
<stop offset="1" stop-color="#CDCDCD"/>
</linearGradient>
<linearGradient id="paint12_linear_470_9618" x1="212.859" y1="232.717" x2="205.907" y2="226.28" gradientUnits="userSpaceOnUse">
<stop stop-color="#676767"/>
<stop offset="1" stop-color="#323232"/>
</linearGradient>
<linearGradient id="paint13_linear_470_9618" x1="235.957" y1="235.961" x2="222.568" y2="222.572" gradientUnits="userSpaceOnUse">
<stop stop-color="#CDCDCD"/>
<stop offset="1" stop-color="#676767"/>
</linearGradient>
<linearGradient id="paint14_linear_470_9618" x1="222.568" y1="222.572" x2="235.957" y2="235.961" gradientUnits="userSpaceOnUse">
<stop stop-opacity="0.2"/>
<stop offset="1" stop-color="#666666"/>
</linearGradient>
<linearGradient id="paint15_linear_470_9618" x1="234.516" y1="234.52" x2="224.217" y2="224.221" gradientUnits="userSpaceOnUse">
<stop stop-color="#676767"/>
<stop offset="1" stop-color="#CDCDCD"/>
</linearGradient>
<linearGradient id="paint16_linear_470_9618" x1="232.97" y1="232.717" x2="226.018" y2="226.28" gradientUnits="userSpaceOnUse">
<stop stop-color="#676767"/>
<stop offset="1" stop-color="#323232"/>
</linearGradient>
<linearGradient id="paint17_linear_470_9618" x1="91.3606" y1="92.2695" x2="196.811" y2="198.629" gradientUnits="userSpaceOnUse">
<stop stop-color="white"/>
<stop offset="1" stop-color="#DEDEDE"/>
</linearGradient>
<clipPath id="clip0_470_9618">
<rect x="45" y="45" width="200" height="200" rx="8.93855" fill="white"/>
</clipPath>
</defs>
</svg>
