<svg fill="none" height="87" viewBox="0 0 87 87" width="87" xmlns="http://www.w3.org/2000/svg"><rect fill="#191919" height="87" rx="12" width="87"/><path d="m55.532 24.0752c-3.5236-2.0501-7.3677-3.0752-11.532-3.0752s-8.0084 1.0251-11.532 3.0752c-3.5237 2.0501-6.3427 4.8691-8.3928 8.3928-2.0501 3.5236-3.0752 7.3677-3.0752 11.532s1.0251 8.0084 3.0752 11.532c2.0501 3.5237 4.8691 6.3427 8.3928 8.3928 3.5236 2.0501 7.3677 3.0752 11.532 3.0752s8.0084-1.0251 11.532-3.0752c3.5237-2.0501 6.3427-4.8691 8.3928-8.3928 2.0501-3.5236 3.0752-7.3677 3.0752-11.532s-1.0251-8.0084-3.0752-11.532c-2.0501-3.5237-4.8691-6.3427-8.3928-8.3928zm-10.1225 28.2535c-2.6268 0-4.6769-.7688-6.2786-2.2423-1.0891-1.0251-1.7939-2.2424-2.1142-3.7159h24.858c-.2563 2.1142-.897 4.1003-1.7939 5.9582h-14.6073zm-8.3928-10.6351c.3203-1.4095 1.0251-2.6908 2.1142-3.7159 1.6017-1.4735 3.6518-2.2423 6.2786-2.2423h14.6713c.961 1.8579 1.5376 3.844 1.7939 5.9582zm-8.5849-6.8552c1.6016-2.7548 3.7799-4.9972 6.5348-6.5988 2.7548-1.6017 5.766-2.4346 9.0975-2.4346 3.3314 0 6.3426.8329 9.0975 2.4346 1.4094.8328 2.6267 1.7938 3.7799 2.947h-11.5961c-2.6267 0-4.9972.5766-7.0474 1.6658-2.0501 1.0891-3.6518 2.6267-4.7409 4.5487-.7688 1.3454-1.2813 2.819-1.5376 4.3566h-5.702c.2563-2.4346 1.0251-4.741 2.2424-6.8552zm24.6657 24.922c-2.7549 1.6017-5.766 2.4346-9.0975 2.4346s-6.3426-.8329-9.0975-2.4346c-2.7549-1.6016-4.9331-3.844-6.5348-6.5988-1.2173-2.1142-1.9861-4.3566-2.2424-6.7911h5.702c.2563 1.5376.7688 3.0111 1.5376 4.3565 1.1532 1.922 2.7549 3.3956 4.7409 4.5488 2.0502 1.0891 4.4207 1.6657 7.0474 1.6657h11.532c-1.0891 1.0891-2.3064 2.0501-3.6518 2.8189z" fill="#fff"/></svg>